<svg width="57" height="17" viewBox="0 0 57 17" fill="none" xmlns="http://www.w3.org/2000/svg">
<path d="M2.096 12.112C1.69067 12.112 1.35467 11.9893 1.088 11.744C0.832 11.488 0.704 11.1733 0.704 10.8C0.704 10.4267 0.832 10.1173 1.088 9.872C1.35467 9.616 1.69067 9.488 2.096 9.488C2.49067 9.488 2.816 9.616 3.072 9.872C3.328 10.1173 3.456 10.4267 3.456 10.8C3.456 11.1733 3.328 11.488 3.072 11.744C2.816 11.9893 2.49067 12.112 2.096 12.112ZM4.90025 7.536C4.90025 6.64 5.07625 5.84533 5.42825 5.152C5.79092 4.45867 6.27625 3.92533 6.88425 3.552C7.50292 3.17867 8.19092 2.992 8.94825 2.992C9.60958 2.992 10.1856 3.12533 10.6763 3.392C11.1776 3.65867 11.5776 3.99467 11.8763 4.4V3.136H14.1323V12H11.8763V10.704C11.5883 11.12 11.1883 11.4667 10.6763 11.744C10.1749 12.0107 9.59358 12.144 8.93225 12.144C8.18558 12.144 7.50292 11.952 6.88425 11.568C6.27625 11.184 5.79092 10.6453 5.42825 9.952C5.07625 9.248 4.90025 8.44267 4.90025 7.536ZM11.8763 7.568C11.8763 7.024 11.7696 6.56 11.5563 6.176C11.3429 5.78133 11.0549 5.48267 10.6923 5.28C10.3296 5.06667 9.94025 4.96 9.52425 4.96C9.10825 4.96 8.72425 5.06133 8.37225 5.264C8.02025 5.46667 7.73225 5.76533 7.50825 6.16C7.29492 6.544 7.18825 7.00267 7.18825 7.536C7.18825 8.06933 7.29492 8.53867 7.50825 8.944C7.73225 9.33867 8.02025 9.64267 8.37225 9.856C8.73492 10.0693 9.11892 10.176 9.52425 10.176C9.94025 10.176 10.3296 10.0747 10.6923 9.872C11.0549 9.65867 11.3429 9.36 11.5563 8.976C11.7696 8.58133 11.8763 8.112 11.8763 7.568ZM19.144 4.976V9.264C19.144 9.56267 19.2133 9.78133 19.352 9.92C19.5013 10.048 19.7467 10.112 20.088 10.112H21.128V12H19.72C17.832 12 16.888 11.0827 16.888 9.248V4.976H15.832V3.136H16.888V0.943999H19.144V3.136H21.128V4.976H19.144ZM31.1951 7.376C31.1951 7.696 31.1738 7.984 31.1311 8.24H24.6511C24.7045 8.88 24.9285 9.38133 25.3231 9.744C25.7178 10.1067 26.2031 10.288 26.7791 10.288C27.6111 10.288 28.2031 9.93067 28.5551 9.216H30.9711C30.7151 10.0693 30.2245 10.7733 29.4991 11.328C28.7738 11.872 27.8831 12.144 26.8271 12.144C25.9738 12.144 25.2058 11.9573 24.5231 11.584C23.8511 11.2 23.3231 10.6613 22.9391 9.968C22.5658 9.27467 22.3791 8.47467 22.3791 7.568C22.3791 6.65067 22.5658 5.84533 22.9391 5.152C23.3125 4.45867 23.8351 3.92533 24.5071 3.552C25.1791 3.17867 25.9525 2.992 26.8271 2.992C27.6698 2.992 28.4218 3.17333 29.0831 3.536C29.7551 3.89867 30.2725 4.416 30.6351 5.088C31.0085 5.74933 31.1951 6.512 31.1951 7.376ZM28.8751 6.736C28.8645 6.16 28.6565 5.70133 28.2511 5.36C27.8458 5.008 27.3498 4.832 26.7631 4.832C26.2085 4.832 25.7391 5.00267 25.3551 5.344C24.9818 5.67467 24.7525 6.13867 24.6671 6.736H28.8751ZM34.0381 12.112C33.6328 12.112 33.2968 11.9893 33.0301 11.744C32.7741 11.488 32.6461 11.1733 32.6461 10.8C32.6461 10.4267 32.7741 10.1173 33.0301 9.872C33.2968 9.616 33.6328 9.488 34.0381 9.488C34.4328 9.488 34.7581 9.616 35.0141 9.872C35.2701 10.1173 35.3981 10.4267 35.3981 10.8C35.3981 11.1733 35.2701 11.488 35.0141 11.744C34.7581 11.9893 34.4328 12.112 34.0381 12.112ZM42.3304 3.008C43.3864 3.008 44.2397 3.344 44.8904 4.016C45.541 4.67733 45.8664 5.60533 45.8664 6.8V12H43.6264V7.104C43.6264 6.4 43.4504 5.86133 43.0984 5.488C42.7464 5.104 42.2664 4.912 41.6584 4.912C41.0397 4.912 40.549 5.104 40.1864 5.488C39.8344 5.86133 39.6584 6.4 39.6584 7.104V12H37.4184V3.136H39.6584V4.24C39.957 3.856 40.3357 3.55733 40.7944 3.344C41.2637 3.12 41.7757 3.008 42.3304 3.008ZM51.6845 2.992C52.3458 2.992 52.9272 3.12533 53.4285 3.392C53.9298 3.648 54.3245 3.984 54.6125 4.4V3.136H56.8685V12.064C56.8685 12.8853 56.7032 13.616 56.3725 14.256C56.0418 14.9067 55.5458 15.4187 54.8845 15.792C54.2232 16.176 53.4232 16.368 52.4845 16.368C51.2258 16.368 50.1912 16.0747 49.3805 15.488C48.5805 14.9013 48.1272 14.1013 48.0205 13.088H50.2445C50.3618 13.4933 50.6125 13.8133 50.9965 14.048C51.3912 14.2933 51.8658 14.416 52.4205 14.416C53.0712 14.416 53.5992 14.2187 54.0045 13.824C54.4098 13.44 54.6125 12.8533 54.6125 12.064V10.688C54.3245 11.104 53.9245 11.4507 53.4125 11.728C52.9112 12.0053 52.3352 12.144 51.6845 12.144C50.9378 12.144 50.2552 11.952 49.6365 11.568C49.0178 11.184 48.5272 10.6453 48.1645 9.952C47.8125 9.248 47.6365 8.44267 47.6365 7.536C47.6365 6.64 47.8125 5.84533 48.1645 5.152C48.5272 4.45867 49.0125 3.92533 49.6205 3.552C50.2392 3.17867 50.9272 2.992 51.6845 2.992ZM54.6125 7.568C54.6125 7.024 54.5058 6.56 54.2925 6.176C54.0792 5.78133 53.7912 5.48267 53.4285 5.28C53.0658 5.06667 52.6765 4.96 52.2605 4.96C51.8445 4.96 51.4605 5.06133 51.1085 5.264C50.7565 5.46667 50.4685 5.76533 50.2445 6.16C50.0312 6.544 49.9245 7.00267 49.9245 7.536C49.9245 8.06933 50.0312 8.53867 50.2445 8.944C50.4685 9.33867 50.7565 9.64267 51.1085 9.856C51.4712 10.0693 51.8552 10.176 52.2605 10.176C52.6765 10.176 53.0658 10.0747 53.4285 9.872C53.7912 9.65867 54.0792 9.36 54.2925 8.976C54.5058 8.58133 54.6125 8.112 54.6125 7.568Z" fill="black" fill-opacity="0.5"/>
</svg>
