<svg width="110" height="99" viewBox="0 0 110 99" fill="none" xmlns="http://www.w3.org/2000/svg">
<path d="M24.7053 42.3524C30.5876 48.823 42.9404 73.5286 46.4698 71.1756C55.8814 53.5288 78.2341 16.4704 101.763 9.41162" stroke="#00BC00" stroke-width="15" stroke-linecap="round" stroke-linejoin="round"/>
<mask id="path-2-inside-1" fill="white">
<path fill-rule="evenodd" clip-rule="evenodd" d="M78.7997 9.68597C70.5862 3.59961 60.4191 0 49.4112 0C22.1222 0 0 22.1222 0 49.4112C0 76.7003 22.1222 98.8224 49.4112 98.8224C76.7003 98.8224 98.8224 76.7003 98.8224 49.4112C98.8224 42.6359 97.4588 36.179 94.9909 30.3002L89.231 34.78C90.9073 39.3407 91.8224 44.2691 91.8224 49.4112C91.8224 72.8343 72.8343 91.8224 49.4112 91.8224C25.9882 91.8224 7 72.8343 7 49.4112C7 25.9882 25.9882 7 49.4112 7C58.1279 7 66.2303 9.62962 72.9686 14.1388L78.7997 9.68597Z"/>
</mask>
<path fill-rule="evenodd" clip-rule="evenodd" d="M78.7997 9.68597C70.5862 3.59961 60.4191 0 49.4112 0C22.1222 0 0 22.1222 0 49.4112C0 76.7003 22.1222 98.8224 49.4112 98.8224C76.7003 98.8224 98.8224 76.7003 98.8224 49.4112C98.8224 42.6359 97.4588 36.179 94.9909 30.3002L89.231 34.78C90.9073 39.3407 91.8224 44.2691 91.8224 49.4112C91.8224 72.8343 72.8343 91.8224 49.4112 91.8224C25.9882 91.8224 7 72.8343 7 49.4112C7 25.9882 25.9882 7 49.4112 7C58.1279 7 66.2303 9.62962 72.9686 14.1388L78.7997 9.68597Z" fill="#00BC00"/>
<path d="M78.7997 9.68597L90.938 25.5813L112.068 9.44569L90.7071 -6.38306L78.7997 9.68597ZM94.9909 30.3002L113.432 22.5588L103.324 -1.51871L82.7121 14.5131L94.9909 30.3002ZM89.231 34.78L76.9522 18.993L65.4178 27.9642L70.4589 41.6797L89.231 34.78ZM72.9686 14.1388L61.8455 30.7604L73.7359 38.7175L85.1068 30.0342L72.9686 14.1388ZM90.7071 -6.38306C79.166 -14.9352 64.851 -20 49.4112 -20V20C55.9872 20 62.0064 22.1344 66.8923 25.755L90.7071 -6.38306ZM49.4112 -20C11.0765 -20 -20 11.0765 -20 49.4112H20C20 33.1679 33.1679 20 49.4112 20V-20ZM-20 49.4112C-20 87.746 11.0765 118.822 49.4112 118.822V78.8224C33.1679 78.8224 20 65.6546 20 49.4112H-20ZM49.4112 118.822C87.746 118.822 118.822 87.746 118.822 49.4112H78.8224C78.8224 65.6546 65.6546 78.8224 49.4112 78.8224V118.822ZM118.822 49.4112C118.822 39.9303 116.91 30.845 113.432 22.5588L76.5499 38.0415C78.0071 41.513 78.8224 45.3414 78.8224 49.4112H118.822ZM101.51 50.5671L107.27 46.0872L82.7121 14.5131L76.9522 18.993L101.51 50.5671ZM111.822 49.4112C111.822 41.8803 110.48 34.6181 108.003 27.8804L70.4589 41.6797C71.335 44.0633 71.8224 46.6578 71.8224 49.4112H111.822ZM49.4112 111.822C83.88 111.822 111.822 83.88 111.822 49.4112H71.8224C71.8224 61.7886 61.7886 71.8224 49.4112 71.8224V111.822ZM-13 49.4112C-13 83.88 14.9425 111.822 49.4112 111.822V71.8224C37.0338 71.8224 27 61.7886 27 49.4112H-13ZM49.4112 -13C14.9425 -13 -13 14.9425 -13 49.4112H27C27 37.0338 37.0338 27 49.4112 27V-13ZM84.0917 -2.48273C74.1647 -9.12585 62.21 -13 49.4112 -13V27C54.0457 27 58.296 28.3851 61.8455 30.7604L84.0917 -2.48273ZM66.6615 -6.20939L60.8303 -1.75652L85.1068 30.0342L90.938 25.5813L66.6615 -6.20939Z" fill="#00BC00" mask="url(#path-2-inside-1)"/>
</svg>
