<svg width="871" height="851" viewBox="0 0 871 851" fill="none" xmlns="http://www.w3.org/2000/svg">
<circle cx="473.5" cy="339.5" r="336.5" fill="#D4E9FF"/>
<circle cx="534.5" cy="336.5" r="336.5" fill="#027BFE"/>
<path d="M434 851C673.692 851 868 841.822 868 830.5C868 819.178 673.692 810 434 810C194.308 810 0 819.178 0 830.5C0 841.822 194.308 851 434 851Z" fill="#939393"/>
<path d="M288 688H115V819H288V688Z" fill="#027BFE"/>
<path d="M293 682H110V703H293V682Z" fill="#D4E9FF"/>
<path d="M288 703H115V715H288V703Z" fill="#0869D1"/>
<path d="M209 682H194V819H209V682Z" fill="white"/>
<path d="M209 715H194V819H209V715Z" fill="#E9E2E8"/>
<path d="M209 703H194V715H209V703Z" fill="#D4CAD4"/>
<path d="M91.9526 711C92.0552 711.749 91.9908 712.51 91.7638 713.233C91.5367 713.956 91.1522 714.624 90.636 715.192C90.1198 715.76 89.4838 716.215 88.7705 716.527C88.0572 716.839 87.2831 717 86.5 717C85.7169 717 84.9428 716.839 84.2295 716.527C83.5162 716.215 82.8802 715.76 82.364 715.192C81.8478 714.624 81.4633 713.956 81.2362 713.233C81.0092 712.51 80.9448 711.749 81.0474 711C80.9448 710.251 81.0092 709.49 81.2362 708.767C81.4633 708.044 81.8478 707.376 82.364 706.808C82.8802 706.24 83.5162 705.785 84.2295 705.473C84.9428 705.161 85.7169 705 86.5 705C87.2831 705 88.0572 705.161 88.7705 705.473C89.4838 705.785 90.1198 706.24 90.636 706.808C91.1522 707.376 91.5367 708.044 91.7638 708.767C91.9908 709.49 92.0552 710.251 91.9526 711Z" fill="#0033A8"/>
<path d="M473.229 147H349.771C334.434 147 322 159.42 322 174.741V445.259C322 460.58 334.434 473 349.771 473H473.229C488.566 473 501 460.58 501 445.259V174.741C501 159.42 488.566 147 473.229 147Z" fill="#939393"/>
<path d="M476.302 390H346.698C346.248 390 345.816 389.842 345.497 389.561C345.179 389.279 345 388.898 345 388.5C345 388.102 345.179 387.721 345.497 387.439C345.816 387.158 346.248 387 346.698 387H476.302C476.752 387 477.184 387.158 477.503 387.439C477.821 387.721 478 388.102 478 388.5C478 388.898 477.821 389.279 477.503 389.561C477.184 389.842 476.752 390 476.302 390Z" fill="#D4E9FF"/>
<path d="M476.302 405H346.698C346.248 405 345.816 404.789 345.497 404.414C345.179 404.039 345 403.53 345 403C345 402.47 345.179 401.961 345.497 401.586C345.816 401.211 346.248 401 346.698 401H476.302C476.525 401 476.746 401.052 476.952 401.152C477.158 401.253 477.345 401.4 477.503 401.586C477.66 401.772 477.785 401.992 477.871 402.235C477.956 402.477 478 402.737 478 403C478 403.263 477.956 403.523 477.871 403.765C477.785 404.008 477.66 404.228 477.503 404.414C477.345 404.6 477.158 404.747 476.952 404.848C476.746 404.948 476.525 405 476.302 405Z" fill="#D4E9FF"/>
<path d="M476.302 419H346.698C346.248 419 345.816 418.842 345.497 418.561C345.179 418.279 345 417.898 345 417.5C345 417.102 345.179 416.721 345.497 416.439C345.816 416.158 346.248 416 346.698 416H476.302C476.752 416 477.184 416.158 477.503 416.439C477.821 416.721 478 417.102 478 417.5C478 417.898 477.821 418.279 477.503 418.561C477.184 418.842 476.752 419 476.302 419Z" fill="#D4E9FF"/>
<path d="M476.302 434H346.698C346.248 434 345.816 433.842 345.497 433.561C345.179 433.279 345 432.898 345 432.5C345 432.102 345.179 431.721 345.497 431.439C345.816 431.158 346.248 431 346.698 431H476.302C476.752 431 477.184 431.158 477.503 431.439C477.821 431.721 478 432.102 478 432.5C478 432.898 477.821 433.279 477.503 433.561C477.184 433.842 476.752 434 476.302 434Z" fill="#D4E9FF"/>
<path d="M476.302 449H346.698C346.248 449 345.816 448.789 345.497 448.414C345.179 448.039 345 447.53 345 447C345 446.47 345.179 445.961 345.497 445.586C345.816 445.211 346.248 445 346.698 445H476.302C476.752 445 477.184 445.211 477.503 445.586C477.821 445.961 478 446.47 478 447C478 447.53 477.821 448.039 477.503 448.414C477.184 448.789 476.752 449 476.302 449Z" fill="#D4E9FF"/>
<path d="M470 347.216L469.056 348.35C468.113 349.296 466.509 350.903 464.244 352.793C460.347 356.069 456.071 358.863 451.506 361.113C450.091 361.869 448.581 362.531 446.977 363.193C443.905 364.495 440.754 365.6 437.542 366.502L433.296 367.636C426.14 369.226 418.83 370.019 411.5 369.999C404.334 370.025 397.196 369.103 390.27 367.258L384.892 365.651C375.825 362.637 367.338 358.097 359.794 352.226C357.932 350.801 356.167 349.253 354.51 347.594C353.976 347.121 353.472 346.616 353 346.081L358.284 338.329C359.135 337.208 359.922 336.04 360.643 334.831C363.285 330.955 366.304 326.323 369.418 321.407L372.248 316.774C377.258 308.968 381.523 300.707 384.986 292.1C384.986 292.1 384.986 291.343 384.986 290.965C385.293 289.971 385.545 288.961 385.741 287.94C386.123 284.99 386.123 282.003 385.741 279.053C385.741 277.163 385.741 275.366 384.986 273.476C383.069 264.079 379.895 254.984 375.551 246.437L374.513 244.358C384.515 230.839 381.684 208.906 380.08 200.208L383.948 197.277C384.581 196.781 385.323 196.442 386.112 196.287C386.901 196.133 387.715 196.168 388.488 196.389C389.261 196.61 389.971 197.012 390.559 197.561C391.148 198.109 391.598 198.79 391.874 199.546C393.573 205.114 396.658 210.156 400.838 214.2C404.099 217.204 408.392 218.83 412.821 218.738H415.18C417.5 218.394 419.72 217.556 421.69 216.28C425.96 213.269 429.243 209.058 431.126 204.179C431.598 202.855 432.069 201.437 432.447 200.114V199.357C433.029 198.052 434.081 197.016 435.393 196.455C436.705 195.894 438.18 195.85 439.523 196.332L441.505 196.994C441.149 208.603 442.679 220.193 446.034 231.311C446.034 232.54 446.789 233.769 447.166 234.809C448.005 237.241 449.079 239.584 450.374 241.805C450.374 241.805 450.374 242.467 449.714 243.318C449.053 244.169 448.298 246.816 447.26 249.557C445.562 254.095 443.392 260.429 441.316 267.803C439.496 275.513 439.112 283.494 440.184 291.343C441.62 300.384 444.588 309.113 448.959 317.152L452.073 322.919C456.643 330.876 461.783 338.491 467.452 345.703L470 347.216Z" fill="#D4E9FF"/>
<path d="M391.999 202.501C391.999 203.429 391.63 204.319 390.974 204.975C390.317 205.631 389.427 206 388.499 206C387.579 205.976 386.703 205.6 386.051 204.949C385.4 204.297 385.024 203.421 385 202.501C385 201.573 385.369 200.683 386.025 200.026C386.681 199.37 387.571 199.001 388.499 199.001C388.962 198.988 389.423 199.07 389.854 199.241C390.284 199.412 390.675 199.67 391.003 199.997C391.33 200.325 391.588 200.716 391.759 201.146C391.93 201.577 392.012 202.038 391.999 202.501Z" fill="#939393"/>
<path d="M438 202.364C438 203.328 437.661 204.253 437.058 204.935C436.454 205.617 435.636 206 434.783 206C434.203 205.995 433.636 205.809 433.145 205.462C432.654 205.115 432.257 204.621 432 204.034C432.435 202.659 432.87 201.184 433.217 199.809V199.022H434.522C434.947 198.968 435.377 199.013 435.786 199.154C436.196 199.295 436.575 199.529 436.901 199.842C437.227 200.155 437.492 200.541 437.681 200.974C437.871 201.408 437.979 201.881 438 202.364Z" fill="#939393"/>
<path d="M391.999 217.501C391.999 218.429 391.63 219.319 390.974 219.975C390.317 220.631 389.427 221 388.499 221C387.579 220.976 386.703 220.6 386.051 219.949C385.4 219.297 385.024 218.421 385 217.501C385 216.573 385.369 215.683 386.025 215.026C386.681 214.37 387.571 214.001 388.499 214.001C388.962 213.988 389.423 214.07 389.854 214.241C390.284 214.412 390.675 214.67 391.003 214.997C391.33 215.325 391.588 215.716 391.759 216.146C391.93 216.577 392.012 217.038 391.999 217.501Z" fill="#939393"/>
<path d="M407 217.706C406.907 218.616 406.507 219.456 405.878 220.064C405.249 220.672 404.436 221.006 403.595 221C402.657 221 401.757 220.602 401.086 219.891C400.414 219.179 400.025 218.211 400 217.191C400.014 216.569 400.158 215.959 400.42 215.407C400.682 214.854 401.056 214.373 401.514 214C403.151 215.543 405.003 216.793 407 217.706Z" fill="#939393"/>
<path d="M422.989 217.136C422.999 218.02 422.716 218.879 422.189 219.569C421.662 220.258 420.924 220.735 420.1 220.917C419.276 221.1 418.417 220.978 417.67 220.571C416.922 220.164 416.332 219.497 416 218.685C418.421 218.31 420.737 217.394 422.793 216C422.96 216.351 423.028 216.745 422.989 217.136Z" fill="#939393"/>
<path d="M437.999 217.501C437.999 218.429 437.63 219.319 436.974 219.975C436.317 220.631 435.427 221 434.499 221C433.579 220.976 432.703 220.6 432.051 219.949C431.4 219.297 431.024 218.421 431 217.501C431 216.573 431.369 215.683 432.025 215.026C432.681 214.37 433.571 214.001 434.499 214.001C434.962 213.988 435.423 214.07 435.854 214.241C436.284 214.412 436.675 214.67 437.003 214.997C437.33 215.325 437.588 215.716 437.759 216.146C437.93 216.577 438.012 217.038 437.999 217.501Z" fill="#939393"/>
<path d="M391.999 231.499C392.012 231.962 391.93 232.423 391.759 232.854C391.588 233.284 391.33 233.675 391.003 234.003C390.675 234.33 390.284 234.588 389.854 234.759C389.423 234.93 388.962 235.012 388.499 234.999C387.571 234.999 386.681 234.63 386.025 233.974C385.369 233.317 385 232.427 385 231.499C385.024 230.579 385.4 229.703 386.051 229.051C386.703 228.4 387.579 228.024 388.499 228C389.427 228 390.317 228.369 390.974 229.025C391.63 229.681 391.999 230.571 391.999 231.499Z" fill="#939393"/>
<path d="M404.5 235C406.433 235 408 233.433 408 231.5C408 229.567 406.433 228 404.5 228C402.567 228 401 229.567 401 231.5C401 233.433 402.567 235 404.5 235Z" fill="#939393"/>
<path d="M419.5 235C421.433 235 423 233.433 423 231.5C423 229.567 421.433 228 419.5 228C417.567 228 416 229.567 416 231.5C416 233.433 417.567 235 419.5 235Z" fill="#939393"/>
<path d="M437.999 231.499C438.012 231.962 437.93 232.423 437.759 232.854C437.588 233.284 437.33 233.675 437.003 234.003C436.675 234.33 436.284 234.588 435.854 234.759C435.423 234.93 434.962 235.012 434.499 234.999C433.571 234.999 432.681 234.63 432.025 233.974C431.369 233.317 431 232.427 431 231.499C431.024 230.579 431.4 229.703 432.051 229.051C432.703 228.4 433.579 228.024 434.499 228C435.427 228 436.317 228.369 436.974 229.025C437.63 229.681 437.999 230.571 437.999 231.499Z" fill="#939393"/>
<path d="M377 247L375 244C376.081 244.812 376.782 245.864 377 247Z" fill="#CE101D"/>
<path d="M391.999 246.499C392.012 246.962 391.93 247.423 391.759 247.854C391.588 248.284 391.33 248.675 391.003 249.003C390.675 249.33 390.284 249.588 389.854 249.759C389.423 249.93 388.962 250.012 388.499 249.999C387.571 249.999 386.681 249.63 386.025 248.974C385.369 248.317 385 247.427 385 246.499C385.024 245.579 385.4 244.703 386.051 244.051C386.703 243.4 387.579 243.024 388.499 243C389.427 243 390.317 243.369 390.974 244.025C391.63 244.681 391.999 245.571 391.999 246.499Z" fill="#939393"/>
<path d="M404.5 250C406.433 250 408 248.433 408 246.5C408 244.567 406.433 243 404.5 243C402.567 243 401 244.567 401 246.5C401 248.433 402.567 250 404.5 250Z" fill="#939393"/>
<path d="M419.5 250C421.433 250 423 248.433 423 246.5C423 244.567 421.433 243 419.5 243C417.567 243 416 244.567 416 246.5C416 248.433 417.567 250 419.5 250Z" fill="#939393"/>
<path d="M437.999 246.499C438.012 246.962 437.93 247.423 437.759 247.854C437.588 248.284 437.33 248.675 437.003 249.003C436.675 249.33 436.284 249.588 435.854 249.759C435.423 249.93 434.962 250.012 434.499 249.999C433.571 249.999 432.681 249.63 432.025 248.974C431.369 248.317 431 247.427 431 246.499C431.024 245.579 431.4 244.703 432.051 244.051C432.703 243.4 433.579 243.024 434.499 243C435.427 243 436.317 243.369 436.974 244.025C437.63 244.681 437.999 245.571 437.999 246.499Z" fill="#939393"/>
<path d="M451 243C450.4 244.273 449.501 246.364 448.402 249C447.948 248.7 447.582 248.302 447.338 247.842C447.094 247.382 446.979 246.874 447.003 246.364C447.003 245.472 447.393 244.616 448.086 243.985C448.779 243.354 449.72 243 450.7 243H451Z" fill="#939393"/>
<path d="M391.999 261.453C392.01 261.915 391.936 262.374 391.779 262.804C391.622 263.233 391.387 263.625 391.086 263.956C390.786 264.286 390.426 264.549 390.029 264.729C389.632 264.908 389.206 265 388.775 265C388 264.864 387.296 264.437 386.788 263.796C386.279 263.155 386 262.341 386 261.5C386 260.659 386.279 259.845 386.788 259.204C387.296 258.563 388 258.136 388.775 258C389.63 258 390.45 258.364 391.055 259.011C391.659 259.659 391.999 260.537 391.999 261.453Z" fill="#939393"/>
<path d="M407.999 261.409C408.019 262.109 407.8 262.798 407.369 263.387C406.937 263.977 406.314 264.44 405.579 264.716C404.844 264.992 404.031 265.069 403.245 264.937C402.46 264.805 401.737 264.47 401.172 263.975C400.606 263.48 400.223 262.848 400.072 262.161C399.921 261.473 400.009 260.762 400.325 260.119C400.64 259.476 401.169 258.93 401.843 258.553C402.517 258.175 403.304 257.983 404.104 258.001C405.128 258.024 406.104 258.391 406.828 259.025C407.553 259.659 407.972 260.513 407.999 261.409Z" fill="#939393"/>
<path d="M423 261.356C423 262.306 422.643 263.219 422.005 263.899C421.366 264.58 420.497 264.975 419.582 265C418.848 264.791 418.199 264.34 417.734 263.715C417.268 263.091 417.011 262.326 417 261.536C416.99 260.746 417.227 259.974 417.676 259.337C418.125 258.699 418.761 258.23 419.489 258C420.374 257.997 421.228 258.341 421.879 258.964C422.53 259.586 422.93 260.44 423 261.356Z" fill="#939393"/>
<path d="M437.999 261.453C438.01 261.915 437.936 262.374 437.779 262.804C437.622 263.233 437.387 263.625 437.086 263.956C436.786 264.286 436.426 264.549 436.029 264.729C435.632 264.908 435.206 265 434.775 265C434 264.864 433.296 264.437 432.788 263.796C432.279 263.155 432 262.341 432 261.5C432 260.659 432.279 259.845 432.788 259.204C433.296 258.563 434 258.136 434.775 258C435.63 258 436.45 258.364 437.055 259.011C437.659 259.659 437.999 260.537 437.999 261.453Z" fill="#939393"/>
<path d="M391.999 276.501C391.999 277.429 391.627 278.319 390.967 278.975C390.306 279.631 389.41 280 388.476 280C387.873 279.991 387.283 279.828 386.762 279.527C386.762 277.636 386.762 275.839 386 273.947C386.684 273.347 387.563 273.012 388.476 273.001C388.942 272.988 389.406 273.07 389.839 273.241C390.273 273.412 390.666 273.67 390.996 273.997C391.326 274.325 391.585 274.716 391.757 275.146C391.93 275.577 392.012 276.038 391.999 276.501Z" fill="#939393"/>
<path d="M407.947 276.066C407.794 276.885 407.313 277.63 406.59 278.167C405.867 278.705 404.949 279 404 279C403.051 279 402.133 278.705 401.41 278.167C400.687 277.63 400.206 276.885 400.053 276.066C399.959 275.565 399.991 275.052 400.146 274.563C400.301 274.074 400.576 273.621 400.951 273.234C401.327 272.847 401.794 272.537 402.321 272.323C402.847 272.11 403.42 272 404 272C404.58 272 405.153 272.11 405.679 272.323C406.206 272.537 406.673 272.847 407.049 273.234C407.424 273.621 407.699 274.074 407.854 274.563C408.009 275.052 408.041 275.565 407.947 276.066Z" fill="#939393"/>
<path d="M423 276.053C422.978 277.092 422.631 278.08 422.031 278.814C421.431 279.549 420.624 279.973 419.776 280C419.001 279.845 418.296 279.357 417.788 278.624C417.279 277.891 417 276.961 417 276C417 275.039 417.279 274.108 417.788 273.376C418.296 272.643 419.001 272.155 419.776 272C420.639 272.028 421.459 272.467 422.061 273.224C422.663 273.981 423 274.997 423 276.053Z" fill="#939393"/>
<path d="M437.999 276.053C437.999 277.1 437.659 278.104 437.055 278.844C436.45 279.584 435.63 280 434.775 280C434 279.845 433.296 279.357 432.788 278.624C432.279 277.891 432 276.961 432 276C432 275.039 432.279 274.108 432.788 273.376C433.296 272.643 434 272.155 434.775 272C435.206 272 435.632 272.105 436.029 272.31C436.426 272.515 436.786 272.816 437.086 273.193C437.387 273.571 437.622 274.019 437.779 274.51C437.936 275.001 438.01 275.526 437.999 276.053Z" fill="#939393"/>
<path d="M391.997 290.517C391.997 291.44 391.613 292.326 390.929 292.98C390.246 293.633 389.318 294 388.351 294C387.631 293.995 386.929 293.787 386.332 293.402C385.736 293.017 385.272 292.471 385 291.835C385 291.835 385 291.081 385 290.705C385.32 289.715 385.584 288.709 385.788 287.692C386.409 287.238 387.176 287.005 387.957 287.033C388.471 286.964 388.994 287.003 389.49 287.148C389.987 287.294 390.444 287.541 390.829 287.873C391.214 288.205 391.519 288.614 391.721 289.071C391.922 289.528 392.017 290.021 391.997 290.517Z" fill="#939393"/>
<path d="M404.5 294C406.433 294 408 292.433 408 290.5C408 288.567 406.433 287 404.5 287C402.567 287 401 288.567 401 290.5C401 292.433 402.567 294 404.5 294Z" fill="#939393"/>
<path d="M419.5 294C421.433 294 423 292.433 423 290.5C423 288.567 421.433 287 419.5 287C417.567 287 416 288.567 416 290.5C416 292.433 417.567 294 419.5 294Z" fill="#939393"/>
<path d="M437.999 290.501C437.999 291.429 437.63 292.319 436.974 292.975C436.317 293.631 435.427 294 434.499 294C433.579 293.976 432.703 293.6 432.051 292.949C431.4 292.297 431.024 291.421 431 290.501C431 289.573 431.369 288.683 432.025 288.026C432.681 287.37 433.571 287.001 434.499 287.001C434.962 286.988 435.423 287.07 435.854 287.241C436.284 287.412 436.675 287.67 437.003 287.997C437.33 288.325 437.588 288.716 437.759 289.146C437.93 289.577 438.012 290.038 437.999 290.501Z" fill="#939393"/>
<path d="M391.999 305.5C392.012 305.963 391.93 306.424 391.759 306.854C391.588 307.285 391.33 307.675 391.003 308.003C390.675 308.33 390.284 308.588 389.854 308.759C389.423 308.93 388.962 309.012 388.499 308.999C387.571 308.999 386.681 308.63 386.025 307.974C385.369 307.318 385 306.428 385 305.5C385 304.572 385.369 303.682 386.025 303.026C386.681 302.37 387.571 302.001 388.499 302.001C388.962 301.988 389.423 302.07 389.854 302.241C390.284 302.412 390.675 302.67 391.003 302.997C391.33 303.325 391.588 303.715 391.759 304.146C391.93 304.576 392.012 305.037 391.999 305.5Z" fill="#939393"/>
<path d="M404.5 309C406.433 309 408 307.433 408 305.5C408 303.567 406.433 302 404.5 302C402.567 302 401 303.567 401 305.5C401 307.433 402.567 309 404.5 309Z" fill="#939393"/>
<path d="M419.5 309C421.433 309 423 307.433 423 305.5C423 303.567 421.433 302 419.5 302C417.567 302 416 303.567 416 305.5C416 307.433 417.567 309 419.5 309Z" fill="#939393"/>
<path d="M437.999 305.5C438.012 305.963 437.93 306.424 437.759 306.854C437.588 307.285 437.33 307.675 437.003 308.003C436.675 308.33 436.284 308.588 435.854 308.759C435.423 308.93 434.962 309.012 434.499 308.999C433.571 308.999 432.681 308.63 432.025 307.974C431.369 307.318 431 306.428 431 305.5C431 304.572 431.369 303.682 432.025 303.026C432.681 302.37 433.571 302.001 434.499 302.001C434.962 301.988 435.423 302.07 435.854 302.241C436.284 302.412 436.675 302.67 437.003 302.997C437.33 303.325 437.588 303.715 437.759 304.146C437.93 304.576 438.012 305.037 437.999 305.5Z" fill="#939393"/>
<path d="M377 320.51C377 321.435 376.621 322.323 375.946 322.977C375.272 323.632 374.357 323.999 373.403 323.999C372.65 324.014 371.912 323.792 371.298 323.368C370.685 322.943 370.23 322.337 370 321.641L372.917 317.02C373.425 316.968 373.94 317.018 374.427 317.169C374.915 317.32 375.365 317.567 375.748 317.895C376.132 318.223 376.442 318.625 376.657 319.075C376.873 319.525 376.989 320.013 377 320.51Z" fill="#939393"/>
<path d="M391.999 320.499C392.012 320.962 391.93 321.423 391.759 321.854C391.588 322.284 391.33 322.675 391.003 323.003C390.675 323.33 390.284 323.588 389.854 323.759C389.423 323.93 388.962 324.012 388.499 323.999C387.571 323.999 386.681 323.63 386.025 322.974C385.369 322.317 385 321.427 385 320.499C385.024 319.579 385.4 318.703 386.051 318.051C386.703 317.4 387.579 317.024 388.499 317C389.427 317 390.317 317.369 390.974 318.025C391.63 318.681 391.999 319.571 391.999 320.499Z" fill="#939393"/>
<path d="M408 320C407.845 320.838 407.357 321.599 406.624 322.149C405.891 322.698 404.961 323 404 323C403.039 323 402.108 322.698 401.376 322.149C400.643 321.599 400.155 320.838 400 320C400.155 319.162 400.643 318.401 401.376 317.851C402.108 317.302 403.039 317 404 317C404.961 317 405.891 317.302 406.624 317.851C407.357 318.401 407.845 319.162 408 320Z" fill="#939393"/>
<path d="M422.989 320.216C423.028 320.706 422.965 321.2 422.804 321.665C422.642 322.129 422.386 322.554 422.052 322.911C421.718 323.268 421.313 323.549 420.865 323.737C420.416 323.924 419.933 324.013 419.448 323.998C418.992 324.011 418.538 323.93 418.114 323.759C417.69 323.587 417.305 323.33 416.982 323.003C416.66 322.675 416.406 322.284 416.238 321.854C416.069 321.423 415.988 320.962 416.001 320.499C416.001 319.571 416.364 318.681 417.011 318.025C417.657 317.369 418.534 317 419.448 317C420.326 316.995 421.174 317.321 421.829 317.916C422.483 318.51 422.896 319.329 422.989 320.216Z" fill="#939393"/>
<path d="M437.999 320.499C438.012 320.962 437.93 321.423 437.759 321.854C437.588 322.284 437.33 322.675 437.003 323.003C436.675 323.33 436.284 323.588 435.854 323.759C435.423 323.93 434.962 324.012 434.499 323.999C433.571 323.999 432.681 323.63 432.025 322.974C431.369 322.317 431 321.427 431 320.499C431.024 319.579 431.4 318.703 432.051 318.051C432.703 317.4 433.579 317.024 434.499 317C435.427 317 436.317 317.369 436.974 318.025C437.63 318.681 437.999 319.571 437.999 320.499Z" fill="#939393"/>
<path d="M453 322.769C452.681 323.153 452.285 323.461 451.839 323.673C451.393 323.885 450.908 323.996 450.416 323.999C449.964 324.012 449.514 323.93 449.094 323.759C448.674 323.588 448.293 323.33 447.973 323.003C447.653 322.675 447.402 322.284 447.235 321.854C447.068 321.423 446.989 320.962 447.001 320.499C447.013 319.653 447.315 318.838 447.855 318.198C448.396 317.558 449.139 317.134 449.955 317L453 322.769Z" fill="#939393"/>
<path d="M361 335.162C361.007 335.801 360.815 336.424 360.454 336.937C360.093 337.449 359.582 337.823 359 338C359.693 337.039 360.335 336.037 360.923 335L361 335.162Z" fill="#939393"/>
<path d="M373.5 338C375.433 338 377 336.433 377 334.5C377 332.567 375.433 331 373.5 331C371.567 331 370 332.567 370 334.5C370 336.433 371.567 338 373.5 338Z" fill="#939393"/>
<path d="M391.999 334.499C392.012 334.962 391.93 335.423 391.759 335.854C391.588 336.284 391.33 336.675 391.003 337.003C390.675 337.33 390.284 337.588 389.854 337.759C389.423 337.93 388.962 338.012 388.499 337.999C387.571 337.999 386.681 337.63 386.025 336.974C385.369 336.317 385 335.427 385 334.499C385.024 333.579 385.4 332.703 386.051 332.051C386.703 331.4 387.579 331.024 388.499 331C389.427 331 390.317 331.369 390.974 332.025C391.63 332.681 391.999 333.571 391.999 334.499Z" fill="#939393"/>
<path d="M404.5 338C406.433 338 408 336.433 408 334.5C408 332.567 406.433 331 404.5 331C402.567 331 401 332.567 401 334.5C401 336.433 402.567 338 404.5 338Z" fill="#939393"/>
<path d="M419.5 338C421.433 338 423 336.433 423 334.5C423 332.567 421.433 331 419.5 331C417.567 331 416 332.567 416 334.5C416 336.433 417.567 338 419.5 338Z" fill="#939393"/>
<path d="M437.999 334.499C438.012 334.962 437.93 335.423 437.759 335.854C437.588 336.284 437.33 336.675 437.003 337.003C436.675 337.33 436.284 337.588 435.854 337.759C435.423 337.93 434.962 338.012 434.499 337.999C433.571 337.999 432.681 337.63 432.025 336.974C431.369 336.317 431 335.427 431 334.499C431.024 333.579 431.4 332.703 432.051 332.051C432.703 331.4 433.579 331.024 434.499 331C435.427 331 436.317 331.369 436.974 332.025C437.63 332.681 437.999 333.571 437.999 334.499Z" fill="#939393"/>
<path d="M450.5 338C452.433 338 454 336.433 454 334.5C454 332.567 452.433 331 450.5 331C448.567 331 447 332.567 447 334.5C447 336.433 448.567 338 450.5 338Z" fill="#939393"/>
<path d="M361 349.619C360.976 350.501 360.654 351.345 360.091 352C358.298 350.564 356.597 349.005 355 347.333C355.305 346.93 355.692 346.601 356.131 346.371C356.571 346.14 357.054 346.014 357.545 346C358.462 346 359.34 346.381 359.988 347.06C360.636 347.739 361 348.659 361 349.619Z" fill="#939393"/>
<path d="M373.5 353C375.433 353 377 351.433 377 349.5C377 347.567 375.433 346 373.5 346C371.567 346 370 347.567 370 349.5C370 351.433 371.567 353 373.5 353Z" fill="#939393"/>
<path d="M391.999 349.547C391.999 350.463 391.659 351.341 391.055 351.989C390.45 352.636 389.63 353 388.775 353C388 352.864 387.296 352.437 386.788 351.796C386.279 351.155 386 350.341 386 349.5C386 348.659 386.279 347.845 386.788 347.204C387.296 346.563 388 346.136 388.775 346C389.206 346 389.632 346.092 390.029 346.271C390.426 346.451 390.786 346.714 391.086 347.044C391.387 347.375 391.622 347.767 391.779 348.196C391.936 348.626 392.01 349.085 391.999 349.547Z" fill="#939393"/>
<path d="M404.5 353C406.433 353 408 351.433 408 349.5C408 347.567 406.433 346 404.5 346C402.567 346 401 347.567 401 349.5C401 351.433 402.567 353 404.5 353Z" fill="#939393"/>
<path d="M419.5 353C421.433 353 423 351.433 423 349.5C423 347.567 421.433 346 419.5 346C417.567 346 416 347.567 416 349.5C416 351.433 417.567 353 419.5 353Z" fill="#939393"/>
<path d="M437.999 349.547C437.999 350.463 437.659 351.341 437.055 351.989C436.45 352.636 435.63 353 434.775 353C434 352.864 433.296 352.437 432.788 351.796C432.279 351.155 432 350.341 432 349.5C432 348.659 432.279 347.845 432.788 347.204C433.296 346.563 434 346.136 434.775 346C435.206 346 435.632 346.092 436.029 346.271C436.426 346.451 436.786 346.714 437.086 347.044C437.387 347.375 437.622 347.767 437.779 348.196C437.936 348.626 438.01 349.085 437.999 349.547Z" fill="#939393"/>
<path d="M450.5 353C452.433 353 454 351.433 454 349.5C454 347.567 452.433 346 450.5 346C448.567 346 447 347.567 447 349.5C447 351.433 448.567 353 450.5 353Z" fill="#939393"/>
<path d="M469 348.299C468.158 349.299 466.726 351 464.705 353C464.257 352.73 463.87 352.334 463.578 351.848C463.287 351.362 463.098 350.799 463.029 350.207C462.961 349.616 463.013 349.013 463.183 348.451C463.353 347.889 463.635 347.384 464.004 346.979C464.374 346.575 464.821 346.282 465.306 346.127C465.792 345.972 466.302 345.959 466.793 346.088C467.284 346.218 467.741 346.487 468.125 346.872C468.509 347.257 468.81 347.747 469 348.299Z" fill="#939393"/>
<path d="M391.999 364.313C391.995 364.834 391.862 365.347 391.611 365.813C391.359 366.279 390.996 366.685 390.548 367L385.035 365.478C384.988 365.091 384.988 364.7 385.035 364.313C385.035 363.878 385.127 363.447 385.307 363.045C385.487 362.643 385.751 362.278 386.083 361.97C386.415 361.663 386.81 361.419 387.244 361.252C387.678 361.086 388.143 361 388.613 361C389.071 361.012 389.521 361.107 389.939 361.279C390.356 361.452 390.733 361.7 391.048 362.007C391.362 362.315 391.608 362.677 391.771 363.073C391.934 363.468 392.011 363.89 391.999 364.313Z" fill="#939393"/>
<path d="M408 364C407.845 364.838 407.357 365.599 406.624 366.149C405.891 366.698 404.961 367 404 367C403.039 367 402.108 366.698 401.376 366.149C400.643 365.599 400.155 364.838 400 364C400.155 363.162 400.643 362.401 401.376 361.851C402.108 361.302 403.039 361 404 361C404.961 361 405.891 361.302 406.624 361.851C407.357 362.401 407.845 363.162 408 364Z" fill="#939393"/>
<path d="M423 364.501C422.976 365.421 422.6 366.297 421.949 366.949C421.297 367.6 420.421 367.976 419.501 368C418.573 368 417.683 367.631 417.026 366.975C416.37 366.319 416.001 365.429 416.001 364.501C415.988 364.038 416.07 363.577 416.241 363.146C416.412 362.716 416.67 362.325 416.997 361.997C417.325 361.67 417.716 361.412 418.146 361.241C418.577 361.07 419.038 360.988 419.501 361.001C419.96 361.001 420.415 361.092 420.84 361.268C421.264 361.444 421.65 361.701 421.975 362.026C422.3 362.351 422.558 362.737 422.734 363.162C422.909 363.586 423 364.041 423 364.501Z" fill="#939393"/>
<path d="M437.998 364.649C438.026 365.43 437.792 366.197 437.336 366.817L433.08 368C432.466 367.703 431.944 367.23 431.576 366.637C431.208 366.044 431.008 365.355 431 364.649C431 364.17 431.091 363.695 431.266 363.253C431.442 362.81 431.7 362.408 432.025 362.07C432.35 361.731 432.735 361.462 433.16 361.279C433.584 361.096 434.039 361.001 434.499 361.001C434.962 360.988 435.423 361.073 435.853 361.251C436.283 361.43 436.674 361.698 437.002 362.039C437.329 362.381 437.587 362.788 437.758 363.237C437.929 363.686 438.011 364.166 437.998 364.649Z" fill="#939393"/>
<path d="M452 361.172C450.437 361.837 448.771 362.418 447 363C447.278 362.409 447.777 361.901 448.429 361.545C449.081 361.188 449.855 361 450.646 361.006C451.107 360.981 451.57 361.037 452 361.172Z" fill="#939393"/>
<path d="M501 154.425V172H322V154.425C322 152.456 322.786 150.567 324.186 149.175C325.585 147.782 327.483 147 329.462 147H493.632C495.595 147.025 497.469 147.818 498.848 149.208C500.227 150.597 501 152.472 501 154.425Z" fill="#1F141D"/>
<path d="M691.568 822.928C691.97 823.024 692.388 823.024 692.79 822.928C693.213 822.771 693.6 822.531 693.929 822.221C694.258 821.912 694.522 821.54 694.706 821.126C694.89 820.713 694.989 820.267 694.999 819.815C695.009 819.362 694.929 818.912 694.763 818.491L626.542 644.135C626.205 643.296 625.551 642.626 624.723 642.272C623.895 641.918 622.96 641.909 622.125 642.247C621.29 642.585 620.623 643.242 620.271 644.075C619.919 644.907 619.91 645.845 620.246 646.684L688.373 820.757C688.643 821.388 689.087 821.928 689.654 822.313C690.22 822.698 690.885 822.911 691.568 822.928Z" fill="#020113"/>
<path d="M510.428 823C511.111 822.983 511.774 822.77 512.34 822.385C512.906 822 513.35 821.46 513.619 820.828L581.763 646.719C581.929 646.298 582.009 645.848 581.999 645.395C581.989 644.942 581.89 644.496 581.706 644.083C581.522 643.67 581.259 643.297 580.93 642.988C580.601 642.678 580.215 642.438 579.792 642.281C579.381 642.099 578.937 642.003 578.488 642C578.038 641.997 577.593 642.087 577.18 642.264C576.766 642.441 576.393 642.701 576.084 643.029C575.774 643.357 575.535 643.745 575.381 644.17L507.236 818.279C507.071 818.7 506.991 819.15 507.001 819.603C507.011 820.056 507.11 820.502 507.294 820.915C507.478 821.328 507.741 821.701 508.07 822.01C508.399 822.32 508.785 822.56 509.208 822.717C509.589 822.899 510.005 822.996 510.428 823Z" fill="#020113"/>
<path d="M542.385 741.936C542.756 742.021 543.141 742.021 543.511 741.936L646.741 705.611C647.161 705.463 647.547 705.233 647.878 704.935C648.209 704.636 648.478 704.275 648.669 703.872C648.861 703.469 648.972 703.032 648.995 702.585C649.019 702.139 648.954 701.692 648.806 701.271C648.658 700.849 648.43 700.461 648.133 700.128C647.836 699.796 647.477 699.525 647.076 699.332C646.675 699.14 646.24 699.028 645.796 699.005C645.352 698.981 644.908 699.046 644.489 699.195L541.259 735.52C540.839 735.669 540.453 735.898 540.122 736.197C539.791 736.495 539.522 736.857 539.331 737.26C539.139 737.663 539.028 738.1 539.005 738.547C538.981 738.993 539.046 739.439 539.194 739.861C539.458 740.488 539.903 741.022 540.472 741.392C541.041 741.762 541.707 741.952 542.385 741.936Z" fill="#020113"/>
<path d="M659.557 742C660.274 741.974 660.967 741.738 661.551 741.32C662.135 740.903 662.583 740.323 662.84 739.653C663.11 738.794 663.036 737.863 662.634 737.058C662.231 736.252 661.532 735.634 660.683 735.335L557.507 699.193C557.089 699.045 556.645 698.981 556.201 699.005C555.758 699.029 555.323 699.139 554.923 699.331C554.522 699.523 554.163 699.792 553.866 700.123C553.569 700.453 553.341 700.839 553.193 701.258C553.045 701.677 552.981 702.122 553.005 702.565C553.029 703.009 553.139 703.444 553.331 703.845C553.523 704.246 553.791 704.605 554.122 704.902C554.452 705.199 554.838 705.429 555.256 705.576L658.432 741.718C658.78 741.898 659.165 741.995 659.557 742Z" fill="#020113"/>
<path d="M563.614 822.935C564.017 823.022 564.434 823.022 564.838 822.935C565.261 822.779 565.648 822.538 565.974 822.226C566.301 821.914 566.561 821.538 566.737 821.121C566.913 820.705 567.003 820.256 567 819.803C566.997 819.35 566.902 818.902 566.72 818.488L498.489 643.736C498.069 643.012 497.405 642.465 496.618 642.191C495.83 641.918 494.971 641.938 494.197 642.247C493.423 642.556 492.784 643.134 492.398 643.876C492.011 644.618 491.902 645.474 492.09 646.29L560.414 820.759C560.664 821.406 561.104 821.961 561.675 822.35C562.247 822.739 562.924 822.943 563.614 822.935Z" fill="#020113"/>
<path d="M382.025 823C382.719 823.008 383.398 822.804 383.973 822.415C384.548 822.026 384.99 821.47 385.241 820.823L453.91 646.292C454.099 645.476 453.989 644.619 453.6 643.877C453.212 643.134 452.57 642.556 451.792 642.247C451.014 641.938 450.15 641.918 449.359 642.191C448.567 642.465 447.9 643.013 447.478 643.736L379.282 818.267C379.099 818.682 379.003 819.13 379 819.583C378.997 820.036 379.087 820.485 379.264 820.902C379.442 821.319 379.703 821.695 380.031 822.007C380.359 822.319 380.748 822.56 381.173 822.716C381.441 822.854 381.728 822.949 382.025 823Z" fill="#020113"/>
<path d="M413.416 741.936C413.79 742.021 414.178 742.021 414.552 741.936L518.721 705.635C519.144 705.487 519.533 705.257 519.867 704.959C520.201 704.661 520.473 704.3 520.666 703.897C520.86 703.494 520.972 703.057 520.995 702.611C521.019 702.165 520.954 701.719 520.804 701.298C520.666 700.868 520.442 700.472 520.145 700.132C519.848 699.793 519.484 699.517 519.076 699.323C518.668 699.129 518.224 699.02 517.772 699.002C517.32 698.985 516.87 699.06 516.448 699.223L412.279 735.525C411.856 735.673 411.466 735.902 411.133 736.201C410.799 736.499 410.527 736.86 410.334 737.263C410.14 737.666 410.028 738.103 410.005 738.549C409.981 738.995 410.046 739.441 410.196 739.862C410.462 740.489 410.911 741.023 411.485 741.393C412.059 741.763 412.732 741.952 413.416 741.936Z" fill="#020113"/>
<path d="M531.596 741.982C532.311 741.976 533.006 741.746 533.582 741.326C534.158 740.905 534.586 740.314 534.805 739.637C534.954 739.219 535.019 738.775 534.995 738.331C534.972 737.888 534.86 737.453 534.667 737.052C534.475 736.652 534.204 736.293 533.871 735.996C533.538 735.699 533.15 735.471 532.728 735.324L428.537 699.222C428.116 699.06 427.667 698.985 427.217 699.002C426.766 699.019 426.324 699.128 425.917 699.321C425.511 699.514 425.148 699.788 424.852 700.126C424.556 700.464 424.332 700.858 424.195 701.285C424.046 701.704 423.981 702.147 424.005 702.591C424.028 703.035 424.14 703.469 424.333 703.87C424.525 704.271 424.796 704.63 425.129 704.926C425.461 705.223 425.85 705.451 426.272 705.598L530.086 741.7C530.548 741.946 531.075 742.044 531.596 741.982Z" fill="#020113"/>
<path d="M392 649.068C392 649.068 536.342 731.738 627.853 664.922C631.589 662.187 635.179 659.258 638.608 656.146L642.099 652.843C720.213 576.495 620.589 454 620.589 454L612.853 457.303L610.117 458.53C467.567 522.892 392 649.068 392 649.068Z" fill="#939393"/>
<path d="M637.985 503.54C649.938 527.345 663.124 563.005 657.811 597.631C654.812 622.549 644.373 646.009 627.834 665C631.591 662.273 635.201 659.352 638.649 656.25C650.401 638.797 657.963 618.905 660.752 598.101C663.132 581.132 662.101 563.864 657.717 547.292C653.7 531.726 647.974 516.644 640.641 502.317C632.833 486.673 623.491 471.829 612.751 458L610 459.223V459.788C620.792 473.399 630.168 488.057 637.985 503.54Z" fill="#020113"/>
<path d="M593.045 528C593.045 528 621.294 603.437 594.364 638.044C567.433 672.651 506.7 688.492 418 636.724L593.045 528Z" fill="#020113"/>
<path d="M501.192 408V409.227V410.831L500.628 414.321C500.628 416.586 499.782 418.945 499.312 421.303C498.278 425.927 497.149 430.738 495.833 435.362C493.213 444.775 490.075 454.036 486.432 463.101C484.646 467.63 482.766 472.536 480.792 476.593C478.818 480.65 476.75 485.367 474.493 489.708L472.801 492.916L471.109 496.123C469.887 498.199 468.759 500.369 467.443 502.445L465.563 505.559L463.682 508.578V509.333V508.861C462.537 509.657 461.344 510.381 460.11 511.031C458.343 511.958 456.522 512.777 454.658 513.484C450.615 515.182 446.197 516.598 441.59 518.013C436.984 519.428 432.189 520.655 427.301 521.881L412.636 525.183C402.671 527.165 392.612 529.052 382.459 530.75L367.229 533.109L359.521 534.241L355.76 534.807L352 535.279L355.008 570H359.145L362.999 569.811L371.084 569.151L387.065 567.736C397.782 566.603 408.499 565.282 419.216 563.584C430.224 562.011 441.143 559.87 451.931 557.168C457.658 555.812 463.307 554.142 468.853 552.168C471.799 551.161 474.932 549.935 478.254 548.488C481.775 546.845 485.141 544.887 488.313 542.638C490.42 541.175 492.373 539.5 494.141 537.638C494.705 537.166 495.175 536.506 495.739 535.939C496.303 535.373 496.773 534.713 497.244 533.958L497.902 533.109L498.466 532.26L500.91 528.769L503.26 525.183C504.858 522.73 506.268 520.372 507.773 517.918C509.277 515.465 509.277 515.465 509.935 514.239C510.593 513.012 511.439 511.786 512.097 510.559L514.165 506.785L516.139 503.011C517.549 500.558 518.772 498.01 520.088 495.463C522.532 490.368 524.882 485.179 527.044 479.895C531.41 469.212 535.145 458.279 538.231 447.156C539.829 441.683 541.24 436.116 542.462 430.55C543.12 427.719 543.684 424.889 544.248 422.058C544.812 419.228 544.248 419.133 545 417.624V415.359V414.133V412.623L501.192 408Z" fill="#FFA48F"/>
<path d="M476.468 521.905C476.847 522.032 477.258 522.032 477.638 521.905C477.871 521.651 478 521.318 478 520.973C478 520.627 477.871 520.294 477.638 520.04C473.771 515.878 469.634 511.977 465.255 508.365C465.003 508.13 464.672 508 464.329 508C463.985 508 463.654 508.13 463.402 508.365C463.275 508.484 463.174 508.628 463.105 508.789C463.036 508.949 463 509.122 463 509.297C463 509.472 463.036 509.645 463.105 509.805C463.174 509.965 463.275 510.11 463.402 510.229C467.708 513.644 471.72 517.418 475.395 521.512C475.535 521.652 475.703 521.759 475.889 521.827C476.074 521.894 476.271 521.921 476.468 521.905Z" fill="#FF9E00"/>
<path d="M473.457 511.977C473.783 512.04 474.119 511.972 474.4 511.788C474.681 511.605 474.886 511.317 474.976 510.983C475.039 510.629 474.978 510.263 474.803 509.952C474.629 509.642 474.353 509.408 474.027 509.294C474.027 509.294 469.092 507.902 464.536 507.008C464.201 506.972 463.863 507.062 463.585 507.262C463.307 507.463 463.106 507.76 463.018 508.101C462.962 508.456 463.039 508.82 463.234 509.116C463.428 509.413 463.725 509.619 464.062 509.691C468.143 510.486 472.983 511.878 473.552 511.878L473.457 511.977Z" fill="#FF9E00"/>
<path d="M374.884 571.996C375.041 571.984 375.195 571.938 375.336 571.861C375.478 571.784 375.604 571.677 375.707 571.546C375.811 571.416 375.889 571.264 375.939 571.1C375.989 570.936 376.008 570.763 375.997 570.591L372.401 530.139C372.391 529.97 372.349 529.805 372.277 529.655C372.205 529.505 372.106 529.373 371.985 529.267C371.864 529.161 371.725 529.084 371.575 529.041C371.425 528.997 371.269 528.989 371.116 529.015C370.959 529.027 370.805 529.073 370.664 529.15C370.522 529.227 370.396 529.334 370.293 529.464C370.189 529.595 370.111 529.746 370.061 529.91C370.011 530.074 369.992 530.247 370.003 530.419L373.599 570.872C373.642 571.203 373.799 571.504 374.038 571.713C374.276 571.922 374.579 572.023 374.884 571.996Z" fill="#FF9E00"/>
<path d="M354.487 563L373.824 560.707C373.999 560.696 374.169 560.647 374.324 560.563C374.479 560.48 374.615 560.364 374.725 560.224C374.834 560.083 374.913 559.92 374.958 559.746C375.003 559.572 375.012 559.39 374.985 559.212C374.973 559.032 374.926 558.857 374.845 558.697C374.764 558.537 374.652 558.397 374.516 558.284C374.379 558.171 374.221 558.089 374.052 558.043C373.883 557.997 373.707 557.988 373.534 558.016L354.197 560.309C354.017 560.303 353.838 560.34 353.674 560.418C353.511 560.496 353.367 560.612 353.254 560.757C353.142 560.902 353.063 561.072 353.026 561.254C352.988 561.436 352.992 561.624 353.037 561.804C353.037 562.402 353.907 562.801 354.487 563Z" fill="#FF9E00"/>
<path d="M360.239 549.861C360.084 550.224 360.002 550.614 360 551.008C359.998 551.403 360.074 551.794 360.226 552.159C360.377 552.523 360.599 552.854 360.88 553.131C361.161 553.408 361.494 553.626 361.861 553.772C362.595 554.076 363.419 554.076 364.153 553.772C364.886 553.468 365.469 552.884 365.772 552.151C366.076 551.417 366.076 550.592 365.772 549.859C365.468 549.125 364.884 548.543 364.151 548.239C363.788 548.084 363.398 548.002 363.003 548C362.609 547.998 362.217 548.074 361.853 548.226C361.488 548.377 361.158 548.599 360.881 548.88C360.604 549.161 360.385 549.494 360.239 549.861Z" fill="#FF9E00"/>
<path d="M362 770.894L354.866 790L328 786.235L333.559 766L362 770.894Z" fill="#FFA48F"/>
<path d="M256.705 820.158L355.762 834C356.788 832.337 357.491 830.49 357.832 828.559C359.074 818.234 359.326 807.811 358.585 797.437V794.86C358.519 793.683 358.519 792.504 358.585 791.328C358.811 790.522 358.844 789.673 358.681 788.852C358.519 788.031 358.165 787.261 357.649 786.607C357.134 785.953 356.471 785.434 355.718 785.092C354.964 784.751 354.141 784.598 353.317 784.645C341.934 793.237 332.621 776.626 325.095 780.636C325.095 780.636 321.991 782.259 313.148 788.368C302.211 794.16 290.477 798.247 278.341 800.492C262.819 804.693 257.739 810.039 256.328 814.525C255.785 816.388 255.919 818.387 256.705 820.158Z" fill="#1F141D"/>
<path d="M256.48 820.225L355.922 834C356.952 832.345 357.657 830.507 358 828.585L256.386 815C255.841 816.704 255.874 818.542 256.48 820.225Z" fill="#4F3F4B"/>
<path d="M323 784.626C323 784.626 321.857 780.288 317.667 781.102C313.476 781.915 313 788.15 313 788.15C313 788.15 314.524 794.114 323 784.626Z" fill="white"/>
<path d="M321.824 804.973C322.045 805.014 322.273 805.008 322.493 804.957C322.712 804.905 322.917 804.809 323.094 804.674C323.272 804.54 323.417 804.37 323.52 804.176C323.622 803.983 323.681 803.77 323.691 803.553C324.205 800.618 324.077 797.611 323.315 794.726C322.554 791.841 321.175 789.141 319.268 786.799C319.13 786.587 318.945 786.406 318.726 786.271C318.508 786.135 318.261 786.048 318.003 786.015C317.746 785.982 317.483 786.004 317.236 786.079C316.988 786.155 316.76 786.282 316.569 786.452C316.378 786.622 316.228 786.83 316.13 787.062C316.032 787.294 315.989 787.544 316.002 787.794C316.016 788.044 316.087 788.288 316.21 788.508C316.332 788.729 316.504 788.921 316.713 789.07C318.249 790.985 319.364 793.181 319.989 795.525C320.615 797.868 320.737 800.31 320.349 802.701C320.236 802.943 320.186 803.207 320.204 803.472C320.223 803.736 320.309 803.992 320.455 804.217C320.601 804.442 320.802 804.629 321.041 804.76C321.279 804.892 321.548 804.965 321.824 804.973Z" fill="white"/>
<path d="M303.25 788.899C303.61 789.034 304.008 789.034 304.368 788.899C308.167 787.767 312.215 787.767 316.014 788.899C316.228 788.953 316.452 788.962 316.671 788.924C316.889 788.887 317.097 788.805 317.282 788.682C317.466 788.56 317.623 788.4 317.741 788.214C317.86 788.027 317.938 787.818 317.97 787.6C318.053 787.17 317.962 786.725 317.718 786.36C317.474 785.996 317.096 785.742 316.666 785.652C311.959 784.535 307.024 784.859 302.505 786.58C302.346 786.719 302.219 786.89 302.132 787.082C302.045 787.274 302 787.482 302 787.693C302 787.903 302.045 788.111 302.132 788.303C302.219 788.495 302.346 788.666 302.505 788.806C302.739 788.909 302.998 788.941 303.25 788.899Z" fill="white"/>
<path d="M318.598 786.01L317.846 784.991L317 783.137L318.034 782.395L320.289 780.912H320.853C323.54 779.274 326.452 778.025 329.499 777.204C331.053 776.932 332.643 776.932 334.198 777.204C335.158 777.317 336.083 777.632 336.91 778.128C337.737 778.624 338.446 779.289 338.99 780.078C339.533 780.803 339.87 781.656 339.97 782.552C340.069 783.448 339.925 784.353 339.554 785.176C339.264 785.728 338.883 786.23 338.427 786.659C335.663 788.982 332.088 790.146 328.465 789.904C326.055 790.032 323.639 790.032 321.229 789.904H320.477L317.376 789.255L318.598 786.01Z" fill="white"/>
<path d="M314.982 788L317.073 784.998C315.463 784.049 314.128 782.738 313.19 781.182C312.251 779.626 311.738 777.875 311.697 776.085C311.697 775.523 311.697 774.866 313.887 774.584C314.233 774.485 314.601 774.476 314.952 774.559C315.303 774.641 315.623 774.812 315.878 775.053C317.375 777.701 317.765 780.78 316.974 783.684L320.757 784.247C320.757 783.403 322.051 775.898 318.666 772.614C317.989 771.969 317.152 771.494 316.23 771.232C315.309 770.97 314.332 770.929 313.389 771.113C312.122 771.149 310.903 771.585 309.929 772.35C308.954 773.115 308.28 774.166 308.013 775.335C307.902 777.835 308.487 780.319 309.71 782.541C310.932 784.763 312.75 786.645 314.982 788Z" fill="white"/>
<path d="M345.03 832H347.944C344.787 827.145 343.673 821.256 344.842 815.597C345.595 811.749 347.156 808.101 349.423 804.89C351.689 801.679 354.612 798.976 358 796.957V795C354.073 797.101 350.652 800.022 347.975 803.562C345.298 807.102 343.427 811.177 342.493 815.504C341.334 821.127 342.234 826.975 345.03 832Z" fill="#4F3F4B"/>
<path d="M314.173 794.992C314.532 795.028 314.893 794.942 315.205 794.747C315.518 794.553 315.766 794.258 315.917 793.905C316.046 793.471 316.024 793 315.855 792.582C315.687 792.163 315.382 791.826 314.999 791.631L309.217 789.16C309.025 789.063 308.817 789.009 308.605 789.001C308.393 788.993 308.181 789.032 307.984 789.116C307.786 789.199 307.607 789.325 307.456 789.485C307.305 789.646 307.186 789.838 307.106 790.05C306.955 790.483 306.966 790.963 307.137 791.387C307.308 791.811 307.627 792.147 308.024 792.323L313.806 794.893L314.173 794.992Z" fill="white"/>
<path d="M307.179 796.993C307.537 797.023 307.896 796.952 308.208 796.789C308.519 796.627 308.767 796.382 308.917 796.087C309.046 795.725 309.024 795.333 308.856 794.985C308.688 794.636 308.384 794.355 308.002 794.193L302.239 792.133C302.048 792.052 301.84 792.007 301.628 792.001C301.417 791.994 301.207 792.027 301.01 792.096C300.813 792.166 300.633 792.271 300.483 792.404C300.333 792.538 300.214 792.698 300.135 792.875C300.047 793.052 300.001 793.244 300 793.439C299.999 793.633 300.043 793.825 300.129 794.003C300.215 794.182 300.341 794.342 300.5 794.474C300.658 794.606 300.846 794.706 301.05 794.769L306.813 796.911L307.179 796.993Z" fill="white"/>
<path d="M300.926 799.985C301.325 800.036 301.731 799.957 302.079 799.758C302.428 799.559 302.7 799.253 302.853 798.886C302.949 798.678 303 798.452 303 798.223C303 797.994 302.951 797.767 302.855 797.559C302.758 797.351 302.618 797.165 302.443 797.015C302.267 796.865 302.061 796.753 301.839 796.688L295.45 794.091C295.004 793.95 294.522 793.974 294.093 794.157C293.663 794.341 293.317 794.673 293.117 795.09C292.95 795.528 292.962 796.012 293.151 796.441C293.341 796.87 293.692 797.21 294.132 797.387L300.52 799.885L300.926 799.985Z" fill="white"/>
<path d="M293.271 801.977C293.609 802.041 293.956 801.969 294.248 801.772C294.541 801.576 294.758 801.27 294.86 800.91C294.946 800.715 294.993 800.501 294.999 800.284C295.005 800.067 294.97 799.851 294.895 799.649C294.82 799.448 294.707 799.267 294.565 799.116C294.422 798.966 294.252 798.85 294.066 798.777L288.416 796.255C288.218 796.123 287.996 796.039 287.766 796.011C287.536 795.983 287.303 796.01 287.083 796.091C286.863 796.172 286.662 796.305 286.495 796.48C286.327 796.655 286.195 796.869 286.111 797.106C286.026 797.343 285.989 797.597 286.003 797.851C286.017 798.105 286.081 798.353 286.192 798.577C286.302 798.801 286.455 798.995 286.641 799.147C286.827 799.299 287.041 799.404 287.268 799.456L292.918 801.88L293.271 801.977Z" fill="white"/>
<path d="M285.959 803.992C286.356 804.027 286.754 803.942 287.098 803.749C287.443 803.556 287.717 803.264 287.883 802.914C288.05 802.484 288.038 802.008 287.849 801.587C287.66 801.166 287.309 800.833 286.87 800.658L280.391 798.109C280.179 798.031 279.952 797.994 279.725 798.001C279.497 798.008 279.274 798.058 279.066 798.149C278.859 798.241 278.673 798.371 278.518 798.532C278.363 798.693 278.243 798.883 278.164 799.09C278.064 799.295 278.009 799.517 278.001 799.744C277.993 799.97 278.033 800.196 278.118 800.407C278.204 800.618 278.332 800.81 278.497 800.972C278.661 801.133 278.858 801.26 279.075 801.345L285.554 803.796L285.959 803.992Z" fill="white"/>
<path d="M259 759.152L248.517 772L225 757.755L235.483 745L259 759.152Z" fill="#FFA48F"/>
<path d="M146 760.653L230.457 813C232.049 811.922 233.419 810.545 234.492 808.944C239.712 799.957 244.049 790.481 247.442 780.649C247.818 779.705 248.193 778.857 248.568 778.102C249.131 776.782 249.694 775.744 250.07 774.989C250.487 774.397 250.773 773.722 250.909 773.009C251.045 772.297 251.028 771.563 250.86 770.857C250.691 770.152 250.374 769.491 249.93 768.918C249.486 768.346 248.926 767.875 248.287 767.538C234.492 770.745 232.428 751.976 224.264 752.636C224.264 752.636 220.698 752.636 210.187 754.9C197.875 755.795 185.499 754.776 173.495 751.881C157.636 749.429 150.88 752.542 147.971 755.748C146.781 757.112 146.086 758.841 146 760.653Z" fill="#1F141D"/>
<path d="M146.008 760.229L230.942 813C232.543 811.913 233.921 810.525 235 808.911L147.613 755C146.49 756.502 145.923 758.351 146.008 760.229Z" fill="#4F3F4B"/>
<path d="M220.95 755.574C220.95 755.574 221.652 750.937 217.793 750.086C213.934 749.234 211.04 755.006 211.04 755.006C211.04 755.006 209.812 761.346 220.95 755.574Z" fill="white"/>
<path d="M211.78 772.777C212.138 772.994 212.559 773.056 212.957 772.948C213.355 772.841 213.7 772.573 213.921 772.199C215.387 769.688 216.357 766.878 216.772 763.944C217.186 761.009 217.035 758.014 216.33 755.146C216.265 754.937 216.163 754.744 216.03 754.578C215.896 754.412 215.734 754.275 215.552 754.177C215.369 754.079 215.171 754.02 214.968 754.004C214.765 753.989 214.56 754.016 214.367 754.086C214.174 754.156 213.995 754.266 213.841 754.41C213.687 754.554 213.561 754.73 213.47 754.926C213.379 755.123 213.325 755.337 213.31 755.557C213.296 755.776 213.322 755.997 213.386 756.206C213.941 758.599 214.038 761.09 213.67 763.526C213.301 765.961 212.476 768.29 211.245 770.368C211.132 770.564 211.056 770.782 211.021 771.009C210.987 771.237 210.994 771.47 211.044 771.694C211.094 771.919 211.185 772.13 211.311 772.316C211.438 772.502 211.597 772.659 211.78 772.777Z" fill="white"/>
<path d="M200.446 750.954C200.825 751.106 201.248 751.106 201.627 750.954C205.828 751.375 209.822 752.969 213.148 755.552C213.473 755.84 213.894 756 214.33 756C214.766 756 215.187 755.84 215.512 755.552C215.824 755.24 216 754.818 216 754.378C216 753.938 215.824 753.515 215.512 753.204C214.625 752.617 206.649 747.138 201.43 748.117C201.203 748.138 200.982 748.208 200.784 748.322C200.586 748.436 200.416 748.591 200.285 748.778C200.154 748.964 200.065 749.176 200.025 749.4C199.984 749.624 199.994 749.853 200.052 750.073C200.107 750.395 200.243 750.697 200.446 750.954Z" fill="white"/>
<path d="M216.306 753.679V754.891L214 757.407C214.795 758.089 215.662 758.683 216.583 759.177H217.137C219.222 760.396 221.379 761.485 223.595 762.439C225.155 763.273 226.864 763.786 228.622 763.946C230.381 764.106 232.153 763.91 233.836 763.371C234.4 763.137 234.928 762.824 235.404 762.439C236.045 761.81 236.517 761.027 236.776 760.162C237.034 759.298 237.07 758.382 236.88 757.5C236.678 756.557 236.288 755.665 235.732 754.88C235.177 754.095 234.469 753.433 233.651 752.934C232.298 752.105 230.791 751.565 229.223 751.35C226.165 750.883 223.055 750.883 219.997 751.35H219.351L216.676 751.816H215.476L216.306 753.679ZM218.797 756.382L217.783 755.729H221.196C223.191 755.539 225.198 755.539 227.193 755.729C228.206 755.632 229.225 755.632 230.238 755.729C230.984 755.895 231.7 756.178 232.359 756.568C233.192 757.097 233.787 757.933 234.02 758.898C234.114 759.118 234.162 759.356 234.162 759.597C234.162 759.837 234.114 760.075 234.02 760.295C232.765 761.028 231.284 761.261 229.868 760.948C228.453 760.798 227.077 760.388 225.809 759.736C223.392 758.798 221.048 757.676 218.797 756.382Z" fill="white"/>
<path d="M211.594 755L214.815 752.958C213.758 751.428 213.104 749.671 212.911 747.841C212.718 746.011 212.991 744.163 213.708 742.459C213.708 742.459 214.714 741.486 216.325 741.875C216.698 741.928 217.051 742.072 217.35 742.293C217.65 742.514 217.886 742.805 218.036 743.139C218.222 746.214 217.258 749.25 215.318 751.694L218.539 753.736C219.043 752.958 223.371 746.347 221.559 741.875C221.229 740.988 220.665 740.2 219.924 739.586C219.183 738.972 218.29 738.555 217.331 738.375C216.143 737.93 214.836 737.879 213.614 738.232C212.393 738.584 211.328 739.318 210.587 740.32C209.392 742.633 208.856 745.212 209.033 747.791C209.21 750.371 210.094 752.859 211.594 755Z" fill="white"/>
<path d="M222.117 807.436L224.664 809C224.154 806.206 224.225 803.34 224.874 800.574C225.522 797.807 226.734 795.196 228.437 792.896C230.694 789.789 233.586 787.172 236.93 785.208C240.274 783.244 243.998 781.976 247.868 781.485C248.245 780.564 248.623 779.736 249 779C244.533 779.352 240.2 780.655 236.305 782.817C232.41 784.979 229.048 787.948 226.456 791.515C223.085 796.136 221.544 801.792 222.117 807.436Z" fill="#4F3F4B"/>
<path d="M208.451 760.633C208.755 760.871 209.129 761 209.513 761C209.898 761 210.272 760.871 210.576 760.633C210.85 760.286 211 759.855 211 759.411C211 758.966 210.85 758.535 210.576 758.188L205.939 753.494C205.614 753.177 205.182 753 204.731 753C204.28 753 203.848 753.177 203.523 753.494C203.359 753.641 203.227 753.821 203.137 754.023C203.047 754.226 203 754.445 203 754.667C203 754.889 203.047 755.109 203.137 755.311C203.227 755.513 203.359 755.694 203.523 755.841L208.161 760.633H208.451Z" fill="white"/>
<path d="M201.334 760.672C201.655 760.886 202.032 761 202.418 761C202.803 761 203.18 760.886 203.502 760.672C203.822 760.338 204 759.892 204 759.428C204 758.964 203.822 758.518 203.502 758.184L198.77 753.309C198.429 753.075 198.017 752.969 197.607 753.008C197.196 753.047 196.812 753.23 196.52 753.525C196.228 753.819 196.047 754.207 196.008 754.622C195.969 755.036 196.074 755.452 196.306 755.796L201.038 760.573L201.334 760.672Z" fill="white"/>
<path d="M194.334 759.713C194.655 759.9 195.032 760 195.418 760C195.803 760 196.18 759.9 196.502 759.713C196.822 759.421 197 759.031 197 758.625C197 758.219 196.822 757.828 196.502 757.536L191.77 753.27C191.429 753.066 191.017 752.973 190.607 753.007C190.196 753.042 189.811 753.201 189.52 753.459C189.228 753.717 189.047 754.056 189.008 754.419C188.969 754.782 189.074 755.145 189.306 755.447L194.038 759.626L194.334 759.713Z" fill="white"/>
<path d="M186.8 759.646C187.053 759.875 187.365 760 187.687 760C188.008 760 188.321 759.875 188.574 759.646C188.847 759.318 189 758.881 189 758.425C189 757.97 188.847 757.533 188.574 757.205L184.519 752.52C184.386 752.36 184.227 752.231 184.051 752.142C183.875 752.053 183.686 752.005 183.493 752C183.301 751.996 183.11 752.035 182.931 752.116C182.752 752.197 182.589 752.317 182.45 752.471C182.311 752.625 182.2 752.809 182.123 753.012C182.046 753.216 182.004 753.435 182 753.657C181.996 753.879 182.03 754.1 182.1 754.307C182.17 754.514 182.275 754.702 182.408 754.863L186.462 759.646H186.8Z" fill="white"/>
<path d="M179.407 757.679C179.709 757.887 180.08 758 180.462 758C180.843 758 181.214 757.887 181.516 757.679C181.827 757.392 182 757.008 182 756.609C182 756.21 181.827 755.827 181.516 755.54L176.915 751.432C176.594 751.155 176.164 751 175.717 751C175.27 751 174.841 751.155 174.519 751.432C174.356 751.56 174.225 751.719 174.136 751.896C174.046 752.073 174 752.265 174 752.459C174 752.653 174.046 752.845 174.136 753.022C174.225 753.199 174.356 753.357 174.519 753.486L179.12 757.679H179.407Z" fill="white"/>
<path d="M345.157 563.377C355.628 556.478 502.31 548.351 545.89 570.182C549.192 581.334 477.124 610.725 456.089 631.328C422.26 629.453 388.363 633.482 355.911 643.236C341.57 664.65 325.814 685.078 308.746 704.381C290.896 724.028 274.082 744.596 258.374 766L228 743.602C228 743.602 316.67 582.279 345.157 563.377Z" fill="#020113"/>
<path d="M270.541 747.993C270.827 748.022 271.115 747.958 271.361 747.811C271.607 747.664 271.798 747.442 271.905 747.177C272.012 746.913 272.029 746.622 271.953 746.348C271.878 746.073 271.714 745.831 271.486 745.657L240.187 724.347C239.942 724.124 239.621 724 239.288 724C238.955 724 238.635 724.124 238.39 724.347C238.267 724.461 238.169 724.599 238.102 724.751C238.035 724.904 238 725.069 238 725.235C238 725.402 238.035 725.567 238.102 725.719C238.169 725.872 238.267 726.009 238.39 726.123L269.879 747.432L270.541 747.993Z" fill="#9E001B"/>
<path d="M261.923 742.847C262.13 742.948 262.358 743 262.588 743C262.819 743 263.046 742.948 263.253 742.847C263.253 742.847 267.244 737.26 293.372 708.754C315.015 683.783 335.131 657.534 353.608 630.151C353.732 630.036 353.83 629.897 353.898 629.742C353.965 629.587 354 629.42 354 629.252C354 629.083 353.965 628.916 353.898 628.761C353.83 628.606 353.732 628.467 353.608 628.352C353.362 628.126 353.04 628 352.705 628C352.371 628 352.049 628.126 351.803 628.352C333.392 655.462 313.339 681.427 291.756 706.103C265.249 734.513 261.543 740.29 261.353 740.48C261.126 740.725 261 741.046 261 741.379C261 741.713 261.126 742.034 261.353 742.279L261.923 742.847Z" fill="#9E001B"/>
<path d="M596.703 568C596.703 568 623.821 682.769 491.712 664.587C432.107 656.538 405.742 641.766 405.742 641.766C405.742 641.766 394.16 693.942 386.91 715.532C379.659 737.123 364.122 775 364.122 775L329 767.993C329 767.993 346.138 603.51 378.058 591.389C409.979 579.269 461.957 575.765 533.614 582.677C533.614 582.772 585.309 571.03 596.703 568Z" fill="#020113"/>
<path d="M362.841 754.436C363.14 754.489 363.449 754.444 363.721 754.309C363.993 754.173 364.214 753.954 364.351 753.684C374.317 727.436 382.516 700.556 388.894 673.223C394.086 652.543 399.089 632.992 402.204 631.206C405.319 629.42 413.532 632.898 424.67 637.034C454.787 649.635 487.155 656.03 519.822 655.833C529.277 656.069 538.683 654.4 547.475 650.927C556.266 647.455 564.263 642.249 570.985 635.624C584.087 619.741 591.17 599.779 590.997 579.226C590.997 579.057 590.963 578.89 590.895 578.735C590.828 578.58 590.729 578.441 590.605 578.327C590.481 578.212 590.334 578.124 590.174 578.068C590.014 578.013 589.844 577.991 589.675 578.004C589.325 578.004 588.989 578.142 588.741 578.389C588.493 578.636 588.354 578.971 588.354 579.32C588.69 599.165 582.007 618.497 569.475 633.932C563.031 640.554 555.292 645.79 546.735 649.315C538.178 652.839 528.986 654.578 519.728 654.423C487.311 654.563 455.201 648.168 425.331 635.624C412.21 630.736 404.281 627.822 400.694 629.89C397.107 631.958 393.048 646.433 386.157 673.505C380.004 700.63 371.961 727.296 362.086 753.308C361.962 753.632 361.973 753.992 362.114 754.309C362.255 754.625 362.517 754.874 362.841 755V754.436Z" fill="#CE101D"/>
<path d="M331.135 748.772L370.753 756C371.065 755.959 371.356 755.81 371.578 755.577C371.801 755.344 371.943 755.04 371.982 754.713C372.038 754.359 371.961 753.997 371.767 753.701C371.573 753.406 371.277 753.201 370.942 753.129L331.229 746C330.903 746 330.591 746.136 330.36 746.377C330.129 746.618 330 746.946 330 747.287C330 747.628 330.129 747.956 330.36 748.197C330.591 748.439 330.903 748.574 331.229 748.574L331.135 748.772Z" fill="#CE101D"/>
<path d="M496.52 569.299L371.816 564.308C366.659 564.102 362.31 568.118 362.104 573.278C361.898 578.438 365.911 582.789 371.069 582.995L495.773 587.986C500.93 588.192 505.279 584.176 505.485 579.016C505.691 573.856 501.678 569.505 496.52 569.299Z" fill="#1F141D"/>
<path d="M345.849 581.814C343.224 581.704 340.712 580.722 338.708 579.025C336.703 577.329 335.322 575.013 334.783 572.444L312.275 471.623C311.927 470.22 311.909 468.755 312.222 467.344C312.535 465.933 313.17 464.613 314.078 463.488C314.986 462.363 316.143 461.463 317.457 460.858C318.771 460.254 320.207 459.962 321.653 460.004L385.425 462.628C387.512 462.681 389.522 463.429 391.136 464.753C392.75 466.077 393.876 467.901 394.334 469.936L422 585L345.849 581.814Z" fill="#1F141D"/>
<path d="M352.306 522.092C353.027 525.32 354.68 528.262 357.059 530.55C359.437 532.839 362.435 534.371 365.677 534.956C371.662 535.52 375.028 530.543 373.719 523.97C373.026 520.72 371.384 517.751 369.002 515.442C366.62 513.134 363.607 511.592 360.347 511.012C354.456 510.73 350.903 515.613 352.306 522.092Z" fill="#027BFE"/>
<path d="M364.214 521.454C364.214 522.825 365.069 524 365.582 524C366.096 524 366.181 523.021 365.582 521.65C364.984 520.279 364.727 519.104 364.299 519.006C363.872 518.908 363.957 520.083 364.214 521.454Z" fill="#1F141D"/>
<path d="M359.161 520.454C359.161 521.825 360.028 523 360.462 523C360.896 523 361.156 522.021 360.896 520.552C360.636 519.083 359.942 518.104 359.508 518.006C359.074 517.908 358.814 519.083 359.161 520.454Z" fill="#1F141D"/>
<path d="M364.447 529C369.018 529 368.925 524.582 368.925 524.582C368.974 524.486 369 524.38 369 524.273C369 524.166 368.974 524.06 368.925 523.963H368.458C368.458 523.963 368.458 528.028 364.634 527.763C360.809 527.498 359.037 523.345 358.943 523.257C358.85 523.168 358.943 522.726 358.29 523.257C357.637 523.787 358.29 523.257 358.29 523.787C358.825 525.045 359.659 526.17 360.726 527.074C361.794 527.978 363.067 528.637 364.447 529Z" fill="#1F141D"/>
<path d="M394.442 470.034L421.635 584H429L401.807 470.409C401.346 468.277 400.151 466.372 398.428 465.02C396.705 463.669 394.561 462.956 392.365 463.005H385C387.144 462.937 389.248 463.597 390.964 464.874C392.68 466.152 393.907 467.972 394.442 470.034Z" fill="#1F141D"/>
<path d="M419.963 577C419.725 576.987 419.497 576.898 419.312 576.746C419.127 576.593 418.996 576.385 418.936 576.151L394 469.728C394.065 469.517 394.196 469.333 394.372 469.202C394.548 469.071 394.762 469 394.981 469C395.2 469 395.413 469.071 395.589 469.202C395.766 469.333 395.896 469.517 395.961 469.728L420.991 575.679C421.026 575.964 420.961 576.252 420.807 576.493C420.654 576.735 420.421 576.914 420.15 577H419.963Z" fill="#4F3F4B"/>
<path d="M477.505 487.235C477.891 488.589 478.363 489.917 478.917 491.211C481.671 497.377 485.425 503.04 490.023 507.97L490.965 509.011C490.965 509.011 490.965 509.768 490.965 510.242C490.821 512.216 490.538 514.178 490.118 516.112C484.564 541.391 483.246 545.652 480.705 556.35C513.649 604.258 591.963 574.15 596.104 568.185C599.681 542.527 599.681 542.527 603.54 517.721C606.721 501.575 611.287 485.735 617.189 470.382C617.189 469.719 617.189 469.057 617.942 468.299C619.918 463.092 621.989 457.79 624.154 452.772C633.567 430.806 631.496 410.924 618.789 401.93C611.319 398.08 603.375 395.246 595.163 393.503L590.457 392.556C582.173 390.947 575.679 390 575.679 390H535.675C531.722 390.473 528.145 390.947 524.944 391.515C522.376 391.952 519.831 392.521 517.32 393.219C496.989 398.805 496.142 409.598 492.377 429.008C491.265 434.479 489.851 439.884 488.141 445.198L486.447 450.121C480.987 465.648 475.246 479.093 477.505 487.235Z" fill="#D4E9FF"/>
<path d="M536.516 389L535.084 402.847C534.795 405.392 535.252 407.965 536.402 410.271C537.552 412.577 539.349 414.525 541.588 415.891C543.828 417.258 546.419 417.989 549.067 418C551.715 418.011 554.313 417.303 556.565 415.955C568.308 409.124 578.905 399.708 579 390.754L536.516 389Z" fill="#FFA48F"/>
<path d="M491 509.25C491 509.25 491 510.045 491 510.542C500.332 512.605 509.968 512.605 519.3 510.542C532.914 508.072 546.921 510.339 559.202 517H559.768C559.959 516.985 560.143 516.923 560.307 516.82C560.471 516.716 560.609 516.574 560.712 516.404C560.897 516.185 561 515.902 561 515.609C561 515.316 560.897 515.033 560.712 514.814C548.004 507.779 533.433 505.402 519.3 508.058C509.981 510.247 500.319 510.247 491 508.058V509.25Z" fill="#FF9E00"/>
<path d="M527.45 455C540.858 455 568.531 435.824 569.672 434.865C569.776 434.766 569.858 434.647 569.915 434.516C569.971 434.384 570 434.242 570 434.098C570 433.954 569.971 433.812 569.915 433.68C569.858 433.548 569.776 433.429 569.672 433.331C569.574 433.226 569.456 433.143 569.325 433.086C569.195 433.029 569.054 433 568.911 433C568.769 433 568.628 433.029 568.497 433.086C568.366 433.143 568.248 433.226 568.15 433.331C568.15 433.331 539.622 453.082 527.165 452.507C514.707 451.932 512.235 438.988 512.235 438.892C512.285 438.72 512.296 438.539 512.265 438.362C512.234 438.186 512.162 438.019 512.056 437.876C511.95 437.732 511.812 437.615 511.653 437.535C511.494 437.455 511.319 437.413 511.141 437.413C510.963 437.413 510.788 437.455 510.629 437.535C510.47 437.615 510.332 437.732 510.226 437.876C510.12 438.019 510.049 438.186 510.018 438.362C509.986 438.539 509.997 438.72 510.048 438.892C510.722 443.162 512.809 447.076 515.968 450C519.127 452.925 523.173 454.686 527.45 455Z" fill="#FF9E00"/>
<path d="M483.618 537.985C483.923 538.031 484.234 537.972 484.503 537.818C484.772 537.664 484.983 537.424 485.103 537.135C488.165 527.127 491.878 509.471 491.971 508.81C492.026 508.559 492.002 508.295 491.902 508.058C491.802 507.821 491.631 507.621 491.414 507.489C484.835 502.052 480.282 494.489 478.513 486.056C478.446 485.721 478.253 485.426 477.976 485.233C477.7 485.039 477.36 484.962 477.028 485.018C476.71 485.106 476.432 485.306 476.245 485.582C476.058 485.859 475.974 486.194 476.007 486.528C477.757 495.35 482.444 503.286 489.279 508.999C488.537 512.587 485.381 527.222 482.69 535.813C482.597 536.152 482.631 536.513 482.786 536.827C482.94 537.141 483.203 537.385 483.525 537.513L483.618 537.985Z" fill="#FF9E00"/>
<path d="M530.053 283.504C526.441 282.221 522.585 281.75 518.765 282.125C514.945 282.501 511.258 283.715 507.973 285.677C503.774 287.921 500.407 291.43 498.362 295.693C496.316 299.957 495.699 304.753 496.598 309.387C497.459 317.039 491.246 314.111 490.099 326.202C488.952 338.293 498.223 334.515 496.407 345.095C494.591 355.675 490.768 367.483 498.893 373.434C507.017 379.386 502.525 388.832 504.341 398.467C504.341 401.207 514.951 392.516 536.744 391.949C545.156 391.949 542.193 383.731 536.744 374.379C531.296 365.027 529.48 313.071 534.068 304.192C538.656 295.312 530.053 283.504 530.053 283.504Z" fill="#1F141D"/>
<path d="M514.586 343.355C514.586 343.355 506.84 337.076 504.526 345.024C502.212 352.971 507.745 367.395 517 363.274L514.586 343.355Z" fill="#FF737F"/>
<path d="M535 377.815L537.584 397.059C537.584 397.059 551.609 416.303 578 390.706C572.454 381.825 569.57 371.507 569.695 361C567.821 362.169 566.06 363.514 564.436 365.017L562.221 366.418C554.1 372.223 544.799 376.117 535 377.815Z" fill="#FFA48F"/>
<path d="M535 377.638L536.293 387C547.507 382.668 557.165 374.999 564 365L561.783 366.404C553.775 372.092 544.632 375.927 535 377.638Z" fill="#1F141D"/>
<path d="M516.337 373.686C533.565 390.491 568.491 362.168 569.998 361.035C569.998 359.524 569.998 357.919 569.998 356.409C570.073 344.326 568.36 332.299 564.914 320.721C564.196 314.944 561.666 309.544 557.69 305.302C553.714 301.06 548.497 298.194 542.791 297.118C533.064 296.379 523.391 299.122 515.49 304.86C506.735 309.392 502.969 322.421 506.076 339.603C509.371 360.563 511.536 369.06 516.337 373.686Z" fill="#FFA48F"/>
<path d="M522 301.094C522 301.094 514.721 327.265 497.001 325.952C497.001 325.952 496.426 299.218 522 301.094Z" fill="#1F141D"/>
<path d="M518.097 293.271C518.097 293.271 515.924 311.241 532.173 313.029C548.422 314.816 553.901 318.391 554.751 327.236C555.602 336.08 564.671 333.257 569.678 333.822C574.685 334.386 566.277 345.676 568.639 356.873C571 368.069 563.537 373.243 564.576 382.464C565.616 391.684 592.918 391.872 606.71 397.329C620.503 402.786 596.13 373.432 601.703 363.741C610.017 349.44 586.683 344.924 592.256 332.598C594.904 327.775 595.535 322.108 594.014 316.824C592.494 311.54 588.943 307.066 584.132 304.373C575.913 298.257 577.235 288.66 566.56 281.228C559.286 276.241 551.539 276.429 537.18 277.935C532.76 278.086 528.509 279.664 525.067 282.429C521.626 285.195 519.179 289 518.097 293.271Z" fill="#1F141D"/>
<path d="M538.857 440C537.024 440.015 535.214 439.593 533.575 438.77C531.936 437.947 530.514 436.745 529.427 435.264C520.845 423.235 531.03 392.358 531.501 391.126C531.639 390.712 531.935 390.369 532.324 390.174C532.713 389.979 533.163 389.946 533.576 390.085C533.989 390.223 534.33 390.52 534.524 390.911C534.719 391.301 534.751 391.754 534.613 392.168C534.613 392.168 524.523 422.667 532.067 433.275C532.882 434.43 533.976 435.358 535.246 435.971C536.517 436.585 537.922 436.863 539.329 436.779C566.583 436.779 582.615 391.6 582.804 391.221C582.941 390.807 583.237 390.464 583.626 390.269C584.015 390.073 584.466 390.041 584.878 390.179C585.291 390.317 585.632 390.615 585.827 391.005C586.021 391.396 586.053 391.849 585.916 392.263C584.69 394.252 568.469 440 538.857 440Z" fill="white"/>
<path d="M547.899 295.565C547.899 295.565 529.06 269.62 553.645 259.525C557.671 257.577 562.14 256.732 566.598 257.074C571.057 257.417 575.345 258.934 579.028 261.474C582.711 264.013 585.658 267.483 587.569 271.532C589.48 275.581 590.287 280.064 589.909 284.527C587.46 298.018 569.846 305 569.846 305L547.899 295.565Z" fill="#1F141D"/>
<path d="M530.031 364.829C528.75 365.057 527.439 365.057 526.159 364.829C526.056 364.707 526 364.554 526 364.396C526 364.238 526.056 364.085 526.159 363.964C526.213 363.902 526.28 363.853 526.355 363.82C526.43 363.786 526.512 363.769 526.594 363.769C526.677 363.769 526.758 363.786 526.833 363.82C526.908 363.853 526.975 363.902 527.03 363.964C528.042 364.28 529.111 364.375 530.164 364.242C531.217 364.109 532.228 363.752 533.129 363.195C533.183 363.134 533.25 363.085 533.325 363.051C533.4 363.017 533.482 363 533.564 363C533.647 363 533.728 363.017 533.803 363.051C533.878 363.085 533.945 363.134 534 363.195C534 363.195 534 363.964 534 364.156C532.752 364.699 531.389 364.93 530.031 364.829Z" fill="#FF737F"/>
<path d="M517 353.657C517 353.657 526.821 352.31 539 350C538.845 352.629 537.792 355.131 536.011 357.103C534.23 359.076 531.823 360.404 529.179 360.874C526.607 361.261 523.979 360.75 521.753 359.43C519.527 358.111 517.845 356.068 517 353.657Z" fill="white"/>
<path d="M525.956 347.993C526.015 347.841 526.015 347.673 525.956 347.521C525.956 347.049 525.956 346.671 525.388 346.482L519.985 344.971L523.397 341.666C523.477 341.453 523.477 341.218 523.397 341.005L521.975 332.129C522.02 332.001 522.033 331.864 522.014 331.73C521.995 331.596 521.944 331.468 521.865 331.357C521.786 331.247 521.682 331.157 521.561 331.095C521.44 331.032 521.306 331 521.169 331C521.033 331 520.899 331.032 520.778 331.095C520.657 331.157 520.553 331.247 520.474 331.357C520.395 331.468 520.344 331.596 520.325 331.73C520.306 331.864 520.319 332.001 520.364 332.129L521.691 340.533L518.089 344.593C518.03 344.711 518 344.84 518 344.971C518 345.102 518.03 345.232 518.089 345.349C518.089 345.349 518.089 345.915 518.658 345.915L525.388 347.804C525.461 347.878 525.55 347.933 525.649 347.966C525.748 347.999 525.853 348.008 525.956 347.993Z" fill="black"/>
<path d="M529.2 319.064C529.2 319.064 525.685 320.001 527.541 322.907C529.396 325.813 535.742 321.22 541.893 326C542.284 326 542.284 318.22 529.2 319.064Z" fill="#1F141D"/>
<path d="M513.912 322C513.912 322 517.612 322 516.912 324.807C516.212 327.614 508.412 325.86 504.312 332C504.512 332 500.912 325.333 513.912 322Z" fill="#1F141D"/>
<path d="M535.018 342.943C535.018 344.719 538.621 345.45 542.495 344.719C546.37 343.987 549.253 341.793 548.982 340.017C548.712 338.241 545.379 337.509 541.504 338.345C537.63 339.181 534.747 341.271 535.018 342.943Z" fill="#FF737F"/>
<g opacity="0.8">
<path opacity="0.8" d="M505.579 351.089H507.371C511.427 350.429 514.446 348.541 514.163 346.937C513.88 345.332 510.39 344.671 506.333 345.332H504.824L505.579 351.089Z" fill="#FF737F"/>
</g>
<path d="M561 353C563.097 356.552 566.245 359.35 570 361C570 359.42 570 357.741 570 356.16C566.768 355.967 563.653 354.873 561 353Z" fill="#1F141D"/>
<path d="M563 336.881C563 336.881 569.508 323.489 577.412 331.62C583.92 338.411 577.412 360.316 566.161 355.246L563 336.881Z" fill="#FFA48F"/>
<path d="M566.464 351.684C566.674 351.636 566.858 351.509 566.981 351.327C567.104 351.146 567.156 350.923 567.128 350.703C566.947 347.955 567.464 345.206 568.628 342.728C569.792 340.251 571.562 338.132 573.762 336.581C573.916 336.388 574 336.145 574 335.895C574 335.644 573.916 335.402 573.762 335.208C573.583 335.073 573.367 335 573.146 335C572.924 335 572.708 335.073 572.53 335.208C570.042 336.942 568.041 339.323 566.726 342.112C565.412 344.901 564.831 348 565.043 351.095C565.039 351.23 565.066 351.363 565.12 351.485C565.174 351.608 565.255 351.715 565.355 351.8C565.456 351.886 565.574 351.946 565.7 351.977C565.827 352.007 565.958 352.008 566.085 351.978L566.464 351.684Z" fill="#1F141D"/>
<path d="M574.06 345C574.347 344.93 574.596 344.761 574.76 344.527C574.915 344.355 575 344.137 575 343.912C575 343.686 574.915 343.468 574.76 343.296C573.726 342.689 572.573 342.283 571.371 342.104C570.168 341.926 568.94 341.977 567.758 342.255C567.617 342.289 567.484 342.351 567.371 342.438C567.257 342.525 567.165 342.634 567.101 342.758C567.037 342.883 567.003 343.018 567 343.157C566.998 343.295 567.027 343.432 567.086 343.558C567.145 343.684 567.233 343.797 567.343 343.887C567.454 343.978 567.583 344.045 567.724 344.083C567.864 344.121 568.011 344.13 568.156 344.109C568.3 344.087 568.437 344.036 568.559 343.959C570.059 343.296 572.859 344.432 573.86 344.905L574.06 345Z" fill="#1F141D"/>
<path d="M532.133 335.379C532.133 337.562 533.528 339.175 534.595 338.985C535.662 338.795 536.236 336.803 535.908 334.62C535.58 332.438 534.431 330.825 533.364 331.015C532.297 331.205 531.723 333.197 532.133 335.379Z" fill="#1F141D"/>
<path d="M510.114 338.43C510.114 340.629 511.942 342.254 513.261 341.967C514.581 341.68 515.292 339.768 514.886 337.57C514.48 335.371 513.058 333.746 511.739 334.033C510.419 334.32 509.708 336.232 510.114 338.43Z" fill="#1F141D"/>
<path d="M531.811 345C530.104 344.993 528.456 344.37 527.171 343.246C525.886 342.123 525.05 340.574 524.816 338.884L524.039 333.932C523.899 332.993 524.138 332.036 524.703 331.272C525.267 330.508 526.111 329.998 527.051 329.854L547.162 327.039C548.102 326.9 549.059 327.138 549.824 327.702C550.589 328.266 551.099 329.11 551.242 330.049L551.922 335C552.062 335.92 552.013 336.859 551.779 337.76C551.545 338.661 551.132 339.506 550.562 340.243C549.438 341.756 547.763 342.768 545.899 343.058L532.491 344.903L531.811 345ZM547.648 328.689L527.536 331.602C527.063 331.674 526.637 331.927 526.347 332.308C526.057 332.688 525.926 333.166 525.982 333.641L526.662 338.592C526.758 339.304 526.997 339.989 527.365 340.606C527.732 341.223 528.22 341.76 528.8 342.184C529.898 342.875 531.207 343.151 532.491 342.961L545.51 341.019C546.222 340.923 546.908 340.684 547.525 340.317C548.143 339.95 548.68 339.463 549.105 338.884C549.526 338.319 549.829 337.676 549.996 336.992C550.163 336.308 550.19 335.598 550.076 334.903L549.396 329.951C549.274 329.584 549.04 329.265 548.726 329.039C548.412 328.812 548.035 328.69 547.648 328.689Z" fill="white"/>
<path d="M506.634 349C505.121 349.008 503.649 348.498 502.456 347.554C501.004 346.428 500.048 344.766 499.798 342.928L499.038 338.013C498.902 337.08 499.135 336.131 499.687 335.372C500.238 334.614 501.063 334.108 501.981 333.965L515.274 332.038C515.724 331.97 516.182 331.994 516.622 332.108C517.063 332.222 517.476 332.424 517.839 332.702C518.201 332.98 518.505 333.329 518.733 333.728C518.962 334.127 519.109 334.568 519.167 335.025L519.927 339.941C520.06 340.866 520.011 341.809 519.781 342.714C519.552 343.62 519.147 344.47 518.59 345.214C518.033 345.959 517.335 346.584 516.538 347.052C515.74 347.52 514.859 347.822 513.945 347.94L507.678 348.904L506.634 349ZM516.129 333.773L502.931 335.7C502.697 335.723 502.47 335.795 502.264 335.911C502.058 336.027 501.879 336.185 501.736 336.375C501.593 336.565 501.491 336.783 501.435 337.015C501.379 337.247 501.371 337.489 501.412 337.724L502.076 342.639C502.169 343.338 502.399 344.012 502.751 344.62C503.104 345.228 503.572 345.758 504.129 346.18C504.686 346.602 505.321 346.907 505.995 347.077C506.67 347.246 507.371 347.278 508.058 347.169L514.42 346.301C515.789 346.064 517.016 345.301 517.847 344.171C518.678 343.041 519.048 341.63 518.882 340.23L518.218 335.315C518.223 335.013 518.155 334.715 518.019 334.447C517.884 334.178 517.685 333.948 517.441 333.776C517.197 333.605 516.914 333.497 516.619 333.463C516.324 333.428 516.025 333.469 515.749 333.58L516.129 333.773Z" fill="white"/>
<path d="M517.847 335L517 333.625C518.169 332.759 519.505 332.22 520.897 332.055C522.289 331.889 523.696 332.101 525 332.673L524.435 334.471C523.386 333.93 522.232 333.695 521.081 333.787C519.929 333.88 518.817 334.297 517.847 335Z" fill="white"/>
<path d="M549.898 331.667C549.717 331.651 549.542 331.582 549.391 331.465C549.24 331.349 549.117 331.189 549.035 331.001C548.971 330.736 548.995 330.453 549.101 330.207C549.208 329.961 549.389 329.769 549.611 329.669C555.859 327.444 562.541 327.444 568.79 329.669C568.925 329.834 569 330.053 569 330.28C569 330.507 568.925 330.725 568.79 330.89C568.759 331.012 568.705 331.125 568.633 331.221C568.561 331.317 568.472 331.393 568.372 331.446C568.272 331.499 568.163 331.526 568.053 331.526C567.944 331.525 567.835 331.498 567.735 331.445C561.963 329.648 555.864 329.841 550.186 332L549.898 331.667Z" fill="white"/>
<path d="M458.824 559.168C458.824 559.168 433.579 547.818 422 553.682L426.556 572.598L441.171 579.407C445.632 581.488 446.012 589.905 463 590L458.824 559.168Z" fill="#FFA48F"/>
<path d="M632 450.339C632 444.304 631.433 438.364 630.866 432.329C630.866 429.312 630.109 426.295 629.637 422.9C629.164 419.506 629.637 419.789 628.88 418.28C628.124 416.772 628.88 416.677 628.88 415.829V414.603V413.943V413L585.205 423.843V424.975V426.578L585.772 429.878C585.772 432.141 586.434 434.498 586.718 436.855C587.285 441.57 587.568 446.284 587.757 451.093C588.133 460.546 587.659 470.013 586.339 479.38C586.339 481.738 585.678 484.001 585.205 486.358C584.732 488.715 584.354 490.884 583.787 493.147C583.22 495.41 582.653 497.673 581.991 499.936C581.329 502.199 580.667 504.367 579.911 506.536C579.155 508.705 578.304 510.873 577.453 512.948C576.602 515.022 575.657 517.191 574.711 519.265L571.592 525.394L569.89 528.317L568.283 529.543C566.644 530.538 564.938 531.42 563.178 532.183C558.966 534.162 554.642 535.894 550.227 537.369C540.773 540.575 531.32 543.309 520.826 545.855C510.333 548.401 500.501 550.569 490.102 552.644L474.504 555.661L466.657 557.075L462.781 557.735L459 558.395L463.254 593L467.414 592.529H471.573L479.798 591.586C485.281 591.02 490.764 590.266 496.247 589.511C507.213 588.003 518.179 586.305 529.24 584.137C540.495 582.081 551.634 579.437 562.611 576.216C568.45 574.548 574.193 572.565 579.816 570.276L581.707 569.427C584.279 568.34 586.775 567.08 589.175 565.656C590.939 564.689 592.644 563.619 594.28 562.45C596.27 561.001 598.165 559.426 599.952 557.735C601.03 556.668 602.041 555.534 602.978 554.341L604.585 552.267V551.701V551.135C605.436 549.815 606.286 548.589 607.043 547.175C607.799 545.761 609.879 542.46 611.202 540.009V539.066C612.715 536.332 614.038 533.597 615.362 530.768C616.685 527.94 617.82 525.111 618.954 522.188C623.313 510.724 626.481 498.844 628.408 486.735C630.659 474.73 631.861 462.552 632 450.339Z" fill="#FFA48F"/>
<path d="M612 540.195C610.654 542.595 609.212 544.904 607.769 547.212C606.327 549.52 606.135 549.797 605.269 551.089V551.643V552.197L603.635 554.228C602.682 555.396 601.654 556.506 600.558 557.552C598.739 559.207 596.812 560.749 594.788 562.168C593.124 563.313 591.39 564.361 589.596 565.307C587.154 566.702 584.616 567.936 582 569C582.385 541.211 601.712 539.179 612 540.195Z" fill="#FF9E00"/>
<path d="M582.427 540.873C582.604 540.957 582.798 541 582.994 541C583.189 541 583.383 540.957 583.56 540.873C583.697 540.768 583.808 540.633 583.884 540.479C583.96 540.325 584 540.155 584 539.983C584 539.811 583.96 539.642 583.884 539.487C583.808 539.333 583.697 539.198 583.56 539.093C578.778 534.451 573.636 530.189 568.182 526.348C567.938 526.124 567.618 526 567.286 526C566.953 526 566.633 526.124 566.389 526.348C566.266 526.462 566.168 526.6 566.101 526.753C566.035 526.906 566 527.072 566 527.239C566 527.405 566.035 527.571 566.101 527.724C566.168 527.877 566.266 528.015 566.389 528.129C571.794 532.034 576.931 536.292 581.767 540.873H582.427Z" fill="#FF9E00"/>
<path d="M579.525 531.977C579.832 532.04 580.148 531.972 580.413 531.788C580.677 531.604 580.871 531.317 580.955 530.982C581.04 530.639 581.004 530.273 580.855 529.959C580.705 529.644 580.453 529.405 580.15 529.291C580.15 529.291 573.539 527.102 568.446 526.008C568.13 525.972 567.813 526.062 567.551 526.263C567.289 526.463 567.1 526.761 567.017 527.102C566.964 527.457 567.037 527.822 567.22 528.119C567.403 528.415 567.683 528.622 568 528.694C572.914 529.788 579.346 531.878 579.436 531.878L579.525 531.977Z" fill="#FF9E00"/>
<path d="M485.102 555H485.856C513.88 548.649 541.212 539.563 567.46 527.875C568.591 525.238 594.316 461.38 590.641 435.668C590.695 435.472 590.703 435.267 590.664 435.067C590.625 434.868 590.541 434.681 590.418 434.519C590.295 434.358 590.136 434.227 589.954 434.137C589.772 434.047 589.572 434 589.369 434C589.166 434 588.965 434.047 588.784 434.137C588.602 434.227 588.443 434.358 588.32 434.519C588.197 434.681 588.112 434.868 588.074 435.067C588.035 435.267 588.043 435.472 588.097 435.668C591.583 459.685 567.366 520.434 565.199 526.179C539.322 537.378 512.482 546.205 485.008 552.551C484.835 552.582 484.67 552.651 484.525 552.752C484.38 552.852 484.259 552.983 484.169 553.135C484.08 553.288 484.024 553.457 484.006 553.633C483.988 553.808 484.009 553.985 484.066 554.152C484.138 554.379 484.274 554.58 484.458 554.73C484.642 554.881 484.866 554.975 485.102 555Z" fill="#020113"/>
<path d="M588.7 447.918C589.009 448.008 589.338 448.008 589.648 447.918C589.874 447.672 590 447.349 590 447.014C590 446.679 589.874 446.356 589.648 446.11L585.192 439.354C584.947 439.126 584.626 439 584.292 439C583.958 439 583.636 439.126 583.391 439.354C583.268 439.469 583.169 439.609 583.102 439.765C583.035 439.92 583 440.088 583 440.258C583 440.427 583.035 440.595 583.102 440.751C583.169 440.906 583.268 441.046 583.391 441.162L587.752 447.918C588.058 448.027 588.393 448.027 588.7 447.918Z" fill="#FF9E00"/>
<path d="M462.475 586.981L481.895 583.894C482.072 583.869 482.242 583.804 482.394 583.702C482.546 583.601 482.677 583.465 482.778 583.304C482.879 583.143 482.947 582.961 482.979 582.769C483.011 582.577 483.006 582.38 482.964 582.19C482.94 582.007 482.883 581.832 482.797 581.673C482.71 581.515 482.596 581.377 482.46 581.268C482.324 581.159 482.17 581.081 482.007 581.038C481.843 580.995 481.673 580.988 481.507 581.019L462.086 584.106C461.742 584.184 461.438 584.405 461.239 584.722C461.04 585.04 460.961 585.43 461.018 585.81C461.042 585.993 461.099 586.168 461.185 586.327C461.271 586.485 461.386 586.623 461.522 586.732C461.657 586.841 461.811 586.919 461.975 586.962C462.139 587.005 462.309 587.012 462.475 586.981Z" fill="#FF9E00"/>
<path d="M468.16 573.561C467.908 574.203 467.955 574.902 468.291 575.516C468.627 576.13 469.226 576.612 469.967 576.865C470.725 577.078 471.55 577.038 472.274 576.754C472.999 576.469 473.568 575.961 473.866 575.334C474.095 574.703 474.029 574.022 473.682 573.431C473.336 572.841 472.735 572.385 472.004 572.158C471.273 571.931 470.467 571.949 469.752 572.211C469.037 572.472 468.467 572.955 468.16 573.561Z" fill="#FF9E00"/>
<path d="M588.034 210.901H576.064C575.923 210.915 575.781 210.899 575.647 210.852C575.513 210.805 575.392 210.73 575.292 210.63C575.192 210.531 575.115 210.411 575.068 210.279C575.021 210.147 575.004 210.006 575.019 209.866V201.965C570.221 201.205 565.533 199.879 561.054 198.015C558.669 197.147 556.377 196.044 554.214 194.723C554.075 194.531 554 194.301 554 194.064C554 193.828 554.075 193.598 554.214 193.406L561.054 179.015C561.009 178.862 561.009 178.699 561.054 178.545C561.187 178.479 561.333 178.444 561.481 178.444C561.63 178.444 561.776 178.479 561.909 178.545C565.559 180.743 569.534 182.361 573.689 183.342C576.021 183.919 578.411 184.235 580.814 184.282C582.701 184.458 584.606 184.266 586.419 183.718C587.464 183.718 587.559 182.778 587.559 182.307C587.559 181.837 583.949 179.58 579.864 178.639H578.439C573.508 177.556 568.769 175.749 564.379 173.278C561.401 171.728 558.955 169.338 557.349 166.412C556.009 163.761 555.387 160.812 555.544 157.852C555.951 152.488 558.388 147.473 562.369 143.81C566.35 140.148 571.58 138.109 577.014 138.1V129.729C576.941 129.516 576.941 129.284 577.014 129.071C577.258 128.976 577.53 128.976 577.774 129.071H589.744C590.029 129.094 590.295 129.224 590.489 129.433C590.683 129.642 590.79 129.916 590.789 130.2V138.288C592.744 138.488 594.681 138.834 596.584 139.323C600.364 140.213 603.985 141.673 607.319 143.65C607.509 143.598 607.71 143.601 607.899 143.657C608.087 143.714 608.256 143.822 608.385 143.97C608.514 144.117 608.599 144.298 608.629 144.491C608.658 144.684 608.632 144.882 608.554 145.061L602.094 159.263C602.031 159.399 601.939 159.52 601.824 159.618C601.709 159.715 601.574 159.787 601.429 159.828C601.296 159.894 601.15 159.928 601.001 159.928C600.853 159.928 600.706 159.894 600.574 159.828L599.054 159.357C594.497 156.877 589.428 155.462 584.234 155.219H583.284C580.624 155.219 577.489 155.219 577.489 157.664C577.489 157.664 577.489 158.417 578.249 158.887C580.822 160.15 583.578 161.007 586.419 161.427C588.699 161.991 591.359 162.555 593.924 163.402C596.925 163.94 599.779 165.098 602.299 166.799C604.82 168.501 606.951 170.708 608.554 173.278C609.624 175.771 610.111 178.472 609.979 181.179C609.726 186.47 607.496 191.48 603.722 195.235C599.947 198.99 594.897 201.221 589.554 201.495V209.96C589.569 210.1 589.552 210.241 589.505 210.373C589.458 210.505 589.381 210.625 589.281 210.725C589.181 210.824 589.059 210.899 588.926 210.946C588.792 210.993 588.65 211.01 588.509 210.995L588.034 210.901ZM577.109 208.549H586.609V200.178C586.608 199.944 586.695 199.718 586.853 199.544C587.011 199.37 587.229 199.261 587.464 199.238C599.434 197.45 606.464 190.866 606.939 181.461C607.042 179.11 606.621 176.765 605.704 174.595C604.353 172.168 602.477 170.066 600.211 168.44C597.945 166.814 595.344 165.704 592.594 165.189C590.124 164.436 587.559 163.872 585.279 163.308C582.183 162.862 579.191 161.874 576.444 160.392C575.905 160.121 575.457 159.701 575.154 159.184C574.851 158.667 574.705 158.074 574.734 157.476C574.734 155.407 576.159 152.961 582.524 152.961H583.664C589.151 153.22 594.508 154.699 599.339 157.288L605.799 145.061C602.823 143.421 599.623 142.217 596.299 141.486C594.078 140.985 591.824 140.639 589.554 140.452C589.421 140.452 589.289 140.425 589.167 140.372C589.045 140.319 588.936 140.241 588.846 140.144C588.756 140.046 588.689 139.931 588.647 139.806C588.605 139.681 588.59 139.548 588.604 139.417V131.422H579.104V139.605C579.104 139.855 579.004 140.094 578.826 140.27C578.647 140.447 578.406 140.546 578.154 140.546C565.614 141.957 557.919 148.635 557.634 158.417C557.463 161.192 558.108 163.957 559.49 166.378C560.872 168.798 562.933 170.77 565.424 172.055C569.744 174.217 574.349 175.768 579.104 176.664H580.624C584.994 177.698 590.124 178.827 590.124 182.401C590.118 183.114 589.886 183.807 589.459 184.381C589.033 184.955 588.434 185.382 587.749 185.599C585.673 186.303 583.478 186.591 581.289 186.446C578.73 186.32 576.187 185.974 573.689 185.411C569.654 184.475 565.78 182.954 562.194 180.896L556.304 193.312C558.045 194.375 559.891 195.257 561.814 195.946C566.618 197.669 571.635 198.744 576.729 199.144C576.989 199.204 577.223 199.347 577.394 199.551C577.565 199.754 577.665 200.008 577.679 200.272L577.109 208.549Z" fill="#E5A892"/>
<path d="M242.045 467.824C241.937 466.842 242.023 465.846 242.299 464.903C242.574 463.96 243.031 463.09 243.641 462.351C244.251 461.611 244.999 461.02 245.837 460.615C246.674 460.209 247.582 460 248.5 460C249.418 460 250.326 460.209 251.163 460.615C252.001 461.02 252.749 461.611 253.359 462.351C253.969 463.09 254.426 463.96 254.701 464.903C254.977 465.846 255.063 466.842 254.955 467.824C254.768 469.526 254.007 471.094 252.817 472.233C251.628 473.371 250.091 474 248.5 474C246.909 474 245.372 473.371 244.183 472.233C242.993 471.094 242.232 469.526 242.045 467.824ZM244.122 467.824C244.122 468.766 244.381 469.687 244.867 470.47C245.353 471.254 246.044 471.864 246.852 472.225C247.661 472.585 248.55 472.68 249.408 472.496C250.266 472.312 251.054 471.858 251.673 471.192C252.292 470.526 252.713 469.677 252.884 468.753C253.054 467.829 252.967 466.871 252.632 466C252.297 465.13 251.73 464.386 251.003 463.862C250.275 463.339 249.42 463.06 248.545 463.06C247.372 463.06 246.247 463.562 245.417 464.455C244.588 465.348 244.122 466.56 244.122 467.824Z" fill="#E5A892"/>
<path d="M224.045 467.824C223.937 466.842 224.023 465.846 224.299 464.903C224.574 463.96 225.031 463.09 225.641 462.351C226.251 461.611 226.999 461.02 227.837 460.615C228.674 460.209 229.582 460 230.5 460C231.418 460 232.326 460.209 233.163 460.615C234.001 461.02 234.749 461.611 235.359 462.351C235.969 463.09 236.426 463.96 236.701 464.903C236.976 465.846 237.063 466.842 236.955 467.824C236.768 469.526 236.007 471.094 234.817 472.233C233.628 473.371 232.091 474 230.5 474C228.909 474 227.372 473.371 226.183 472.233C224.993 471.094 224.232 469.526 224.045 467.824ZM226.031 467.824C226.055 469.096 226.541 470.307 227.385 471.198C228.229 472.089 229.363 472.588 230.545 472.587C231.742 472.587 232.89 472.075 233.737 471.164C234.583 470.252 235.059 469.016 235.059 467.726C235.059 466.437 234.583 465.201 233.737 464.289C232.89 463.377 231.742 462.865 230.545 462.865C229.945 462.865 229.35 462.994 228.797 463.244C228.243 463.495 227.741 463.861 227.321 464.323C226.901 464.785 226.57 465.332 226.349 465.933C226.127 466.534 226.019 467.177 226.031 467.824Z" fill="#E5A892"/>
<path d="M257.597 583C255.319 582.982 253.086 583.611 251.182 584.809C249.278 586.006 247.789 587.718 246.904 589.726C246.018 591.734 245.777 593.949 246.209 596.089C246.642 598.229 247.729 600.197 249.334 601.745C250.938 603.293 252.987 604.35 255.22 604.782C257.454 605.214 259.771 605.001 261.878 604.172C263.985 603.342 265.787 601.932 267.055 600.121C268.323 598.31 269 596.18 269 594C269.012 592.56 268.727 591.132 268.16 589.798C267.593 588.464 266.755 587.25 265.695 586.228C264.634 585.205 263.373 584.393 261.983 583.839C260.594 583.286 259.103 583 257.597 583ZM257.597 602.856C255.65 602.854 253.747 602.293 252.136 601.247C250.524 600.201 249.277 598.716 248.556 596.986C247.835 595.255 247.673 593.357 248.09 591.537C248.507 589.718 249.485 588.059 250.897 586.776C252.309 585.493 254.091 584.644 256.012 584.338C257.934 584.033 259.907 584.285 261.677 585.063C263.447 585.841 264.933 587.108 265.943 588.701C266.952 590.294 267.44 592.14 267.343 594C267.218 596.391 266.136 598.644 264.322 600.293C262.507 601.941 260.1 602.859 257.597 602.856Z" fill="#E5A892"/>
<path d="M138.726 579.998H129.458C129.182 580.011 128.907 579.966 128.649 579.867C128.391 579.768 128.155 579.616 127.956 579.421C127.756 579.226 127.598 578.991 127.49 578.732C127.381 578.472 127.326 578.193 127.326 577.91V567.473H117.132C116.574 567.45 116.045 567.212 115.65 566.808C115.255 566.404 115.023 565.862 115 565.291V555.802C115 555.223 115.225 554.668 115.624 554.259C116.024 553.85 116.566 553.62 117.132 553.62H127.233V543.182C127.233 542.604 127.458 542.048 127.858 541.639C128.258 541.23 128.8 541 129.365 541H138.633C139.191 541.023 139.72 541.261 140.115 541.665C140.51 542.069 140.742 542.611 140.764 543.182V553.62H150.959C151.235 553.619 151.508 553.676 151.761 553.787C152.015 553.898 152.244 554.06 152.434 554.264C152.625 554.468 152.773 554.71 152.87 554.974C152.967 555.238 153.01 555.52 152.998 555.802V565.291C152.998 565.853 152.787 566.395 152.407 566.801C152.027 567.208 151.508 567.449 150.959 567.473H140.764V577.91C140.742 578.457 140.52 578.974 140.142 579.361C139.764 579.747 139.259 579.975 138.726 579.998ZM116.946 555.423V564.911H129.087V577.341H138.355V565.48H150.496V555.992H138.911V542.993H129.643V555.423H116.946Z" fill="#E5A892"/>
<path d="M490.796 158H475.204C475.15 158 475.098 157.842 475.06 157.561C475.022 157.279 475 156.898 475 156.5C475 156.102 475.022 155.721 475.06 155.439C475.098 155.158 475.15 155 475.204 155H490.796C490.85 155 490.902 155.158 490.94 155.439C490.978 155.721 491 156.102 491 156.5C491 156.898 490.978 157.279 490.94 157.561C490.902 157.842 490.85 158 490.796 158Z" fill="#D4E9FF"/>
<path d="M490.796 162H475.204C475.15 162 475.098 161.842 475.06 161.561C475.022 161.279 475 160.898 475 160.5C475 160.102 475.022 159.721 475.06 159.439C475.098 159.158 475.15 159 475.204 159H490.796C490.85 159 490.902 159.158 490.94 159.439C490.978 159.721 491 160.102 491 160.5C491 160.898 490.978 161.279 490.94 161.561C490.902 161.842 490.85 162 490.796 162Z" fill="#D4E9FF"/>
<path d="M490.796 165H475.204C475.15 165 475.098 164.895 475.06 164.707C475.022 164.52 475 164.265 475 164C475 163.735 475.022 163.48 475.06 163.293C475.098 163.105 475.15 163 475.204 163H490.796C490.85 163 490.902 163.105 490.94 163.293C490.978 163.48 491 163.735 491 164C491 164.265 490.978 164.52 490.94 164.707C490.902 164.895 490.85 165 490.796 165Z" fill="#D4E9FF"/>
</svg>
