<svg width="975" height="661" viewBox="0 0 975 661" fill="none" xmlns="http://www.w3.org/2000/svg">
<path d="M156.588 197.402H852.511" stroke="#F1EFA5" stroke-width="0.96" stroke-miterlimit="10"/>
<path d="M843.416 151.773H165.684C160.661 151.773 156.588 155.846 156.588 160.871V573.358C156.588 578.382 160.661 582.456 165.684 582.456H843.416C848.439 582.456 852.511 578.382 852.511 573.358V160.871C852.511 155.846 848.439 151.773 843.416 151.773Z" stroke="#F1EFA5" stroke-width="0.96" stroke-miterlimit="10"/>
<path d="M202.369 175.077C202.369 176.338 201.995 177.57 201.295 178.618C200.594 179.666 199.598 180.482 198.433 180.963C197.269 181.445 195.987 181.569 194.752 181.322C193.516 181.074 192.382 180.465 191.492 179.572C190.603 178.679 189.998 177.542 189.755 176.305C189.512 175.069 189.641 173.787 190.127 172.624C190.612 171.461 191.432 170.468 192.482 169.771C193.532 169.074 194.765 168.704 196.026 168.709C197.71 168.715 199.324 169.389 200.513 170.582C201.702 171.776 202.369 173.392 202.369 175.077Z" fill="#FDFFF8"/>
<path d="M227.183 175.077C227.183 176.337 226.81 177.568 226.11 178.615C225.411 179.663 224.416 180.479 223.253 180.961C222.09 181.443 220.81 181.569 219.574 181.324C218.339 181.078 217.205 180.471 216.314 179.581C215.424 178.69 214.818 177.555 214.572 176.32C214.326 175.084 214.452 173.804 214.934 172.64C215.416 171.476 216.232 170.482 217.279 169.782C218.326 169.082 219.557 168.709 220.817 168.709C221.653 168.709 222.481 168.873 223.253 169.194C224.025 169.514 224.727 169.983 225.319 170.574C225.91 171.165 226.379 171.867 226.699 172.64C227.019 173.413 227.183 174.241 227.183 175.077Z" fill="#FDFFF8"/>
<path d="M251.928 175.077C251.928 176.337 251.554 177.568 250.855 178.615C250.155 179.663 249.161 180.479 247.997 180.961C246.834 181.443 245.554 181.569 244.319 181.324C243.084 181.078 241.949 180.471 241.059 179.581C240.168 178.69 239.562 177.555 239.316 176.32C239.071 175.084 239.197 173.804 239.679 172.64C240.161 171.476 240.977 170.482 242.024 169.782C243.071 169.082 244.302 168.709 245.561 168.709C247.25 168.709 248.869 169.38 250.063 170.574C251.257 171.768 251.928 173.388 251.928 175.077Z" fill="#FDFFF8"/>
<path d="M969.097 330.582H883.156C882.461 330.63 881.764 330.533 881.108 330.3C880.451 330.066 879.85 329.7 879.341 329.224C878.832 328.748 878.426 328.173 878.149 327.534C877.871 326.895 877.728 326.205 877.728 325.509C877.728 324.812 877.871 324.122 878.149 323.483C878.426 322.844 878.832 322.269 879.341 321.793C879.85 321.317 880.451 320.951 881.108 320.717C881.764 320.484 882.461 320.387 883.156 320.435H969.097C975.651 320.341 975.697 330.676 969.097 330.582Z" fill="#F1EFA5"/>
<path d="M134.736 490.24H4.73998C3.45411 490.153 2.24939 489.58 1.36943 488.638C0.489476 487.696 0 486.455 0 485.166C0 483.877 0.489476 482.636 1.36943 481.694C2.24939 480.752 3.45411 480.179 4.73998 480.092H134.736C141.336 479.975 141.359 490.333 134.736 490.24Z" fill="#F1EFA5"/>
<path d="M110.434 197.916H63.9774C63.2823 197.963 62.585 197.866 61.9287 197.633C61.2724 197.399 60.671 197.033 60.162 196.557C59.653 196.082 59.2472 195.506 58.9697 194.867C58.6922 194.228 58.5491 193.538 58.5491 192.842C58.5491 192.145 58.6922 191.455 58.9697 190.816C59.2472 190.177 59.653 189.602 60.162 189.126C60.671 188.65 61.2724 188.284 61.9287 188.05C62.585 187.817 63.2823 187.721 63.9774 187.768H110.434C117.011 187.604 117.035 197.916 110.434 197.916Z" fill="#6473F9"/>
<path d="M928.89 423.125C925.485 422.682 916.366 424.968 916.53 419.136C916.903 415.753 914.804 407.145 920.518 407.262C923.899 407.705 933.018 405.419 932.878 411.251C932.505 414.633 934.674 423.265 928.89 423.125Z" fill="#6473F9"/>
<path d="M207.033 99.0512C203.652 98.6079 194.51 100.917 194.673 95.0621C195.046 91.7028 192.947 83.0715 198.661 83.2114C202.043 83.6313 211.185 81.3452 211.022 87.2005C210.648 90.6064 212.747 99.1911 207.033 99.0512Z" fill="#FFA026"/>
<path d="M72.7462 560.201C69.3645 559.757 60.2223 562.067 60.3856 556.212C60.7587 552.852 58.6598 544.221 64.3736 544.361C67.7553 544.781 76.8975 542.495 76.7342 548.35C76.431 551.709 78.4601 560.341 72.7462 560.201Z" fill="#FFC444"/>
<path d="M724.801 58.6469H596.881C594.395 58.6469 592.38 60.6626 592.38 63.1492V99.7043C592.38 102.191 594.395 104.207 596.881 104.207H724.801C727.287 104.207 729.302 102.191 729.302 99.7043V63.1492C729.302 60.6626 727.287 58.6469 724.801 58.6469Z" fill="#FFA026"/>
<path d="M614 74.8832H705.887" stroke="white" stroke-width="0.76" stroke-miterlimit="10"/>
<path d="M614 85.824H654.976" stroke="white" stroke-width="0.76" stroke-miterlimit="10"/>
<path d="M609.685 99.0743V116.827L632.004 99.0743H609.685Z" fill="#6473F9"/>
<path d="M865.912 232.216C898.161 224.686 918.2 192.432 910.672 160.175C903.144 127.918 870.899 107.873 838.651 115.403C806.402 122.934 786.363 155.187 793.891 187.444C801.419 219.701 833.664 239.746 865.912 232.216Z" fill="white"/>
<path d="M858.855 172.091L848.966 168.312C848.118 167.991 847.388 167.42 846.871 166.674C846.355 165.928 846.077 165.043 846.075 164.136C846.073 162.977 846.525 161.863 847.334 161.034C847.752 160.616 848.251 160.289 848.801 160.072C849.35 159.855 849.939 159.754 850.529 159.774H854.4C855.356 159.758 856.29 160.058 857.057 160.627C857.825 161.197 858.383 162.004 858.645 162.923C858.79 163.428 859.033 163.898 859.36 164.309C859.687 164.719 860.092 165.061 860.551 165.314C861.01 165.568 861.515 165.728 862.036 165.786C862.558 165.844 863.085 165.799 863.589 165.653C864.099 165.516 864.575 165.278 864.99 164.953C865.406 164.628 865.751 164.222 866.006 163.761C866.26 163.299 866.419 162.79 866.473 162.266C866.527 161.741 866.474 161.211 866.318 160.707C865.679 158.449 864.409 156.42 862.657 154.858C860.906 153.296 858.745 152.266 856.429 151.889V148.6C856.471 148.052 856.4 147.501 856.219 146.982C856.038 146.463 855.752 145.987 855.379 145.584C855.005 145.181 854.553 144.859 854.049 144.639C853.546 144.419 853.002 144.306 852.453 144.306C851.904 144.306 851.36 144.419 850.857 144.639C850.353 144.859 849.901 145.181 849.527 145.584C849.154 145.987 848.868 146.463 848.687 146.982C848.506 147.501 848.435 148.052 848.477 148.6V151.982C845.966 152.419 843.643 153.597 841.807 155.365C840.354 156.823 839.289 158.622 838.708 160.598C838.128 162.573 838.051 164.662 838.485 166.675C838.918 168.688 839.848 170.56 841.19 172.121C842.532 173.683 844.243 174.883 846.168 175.614L856.033 179.393C857.011 179.757 857.83 180.453 858.347 181.359C858.864 182.265 859.047 183.324 858.864 184.351C858.681 185.378 858.143 186.309 857.345 186.98C856.546 187.651 855.537 188.021 854.494 188.024H850.716C849.752 188.035 848.812 187.727 848.04 187.15C847.269 186.572 846.709 185.756 846.448 184.828C846.138 183.814 845.439 182.963 844.503 182.465C843.567 181.966 842.471 181.86 841.457 182.169C840.442 182.478 839.592 183.178 839.094 184.114C838.595 185.05 838.489 186.146 838.798 187.161C839.431 189.402 840.684 191.419 842.413 192.979C844.142 194.539 846.276 195.579 848.57 195.979V199.268C848.647 200.271 849.099 201.207 849.836 201.89C850.574 202.573 851.541 202.953 852.546 202.953C853.551 202.953 854.519 202.573 855.256 201.89C855.994 201.207 856.446 200.271 856.523 199.268V195.979C859.197 195.508 861.643 194.175 863.488 192.182C865.333 190.189 866.475 187.647 866.739 184.944C867.004 182.241 866.376 179.526 864.952 177.213C863.529 174.901 861.387 173.118 858.855 172.138V172.091Z" fill="#020113"/>
<path d="M407.788 109.105H319.678C315.571 109.105 311.632 107.473 308.728 104.569C305.824 101.664 304.192 97.7238 304.192 93.6156V11.664C304.192 8.57055 305.421 5.60374 307.608 3.41631C309.794 1.22888 312.76 0 315.853 0H407.718C410.81 0 413.776 1.22888 415.963 3.41631C418.15 5.60374 419.379 8.57055 419.379 11.664V97.3481C419.391 98.8818 419.101 100.403 418.524 101.824C417.948 103.246 417.098 104.539 416.021 105.631C414.944 106.724 413.663 107.593 412.25 108.189C410.837 108.785 409.321 109.096 407.788 109.105Z" fill="#FFA026"/>
<path d="M353.495 74.44C362.1 74.5799 370.799 74.6966 378.706 74.1367C381.201 73.9734 383.37 69.9843 380.315 68.7479C381.671 68.2689 382.796 67.2937 383.463 66.0185C383.599 65.6865 383.668 65.3306 383.665 64.9717C383.663 64.6128 383.589 64.2581 383.448 63.9281C383.306 63.5981 383.101 63.2995 382.844 63.0496C382.586 62.7997 382.281 62.6036 381.947 62.4726C384.909 63.1958 386.099 58.4836 383.766 56.9439C385.051 55.9341 385.942 54.5063 386.285 52.9081C386.431 52.1101 386.336 51.2866 386.012 50.5429C385.688 49.7992 385.15 49.1689 384.466 48.7324C383.486 48.3202 382.426 48.1367 381.364 48.1958H370.636C371.616 42.5971 371.896 36.5318 369.074 31.5862C368.211 30.1166 365.902 28.3437 364.083 29.4634C362.264 30.5831 362.847 33.1959 362.94 34.8755C363.064 38.3718 362.216 41.8341 360.491 44.8774C358.766 47.9208 356.231 50.4261 353.168 52.115C353.168 52.115 353.588 66.8583 353.495 74.44Z" fill="#F9F9F9"/>
<path d="M350.393 52.0449H337.403V74.4166H350.393V52.0449Z" fill="#F9F9F9"/>
<path d="M288.356 265.427H107.542C102.017 265.427 97.5374 269.908 97.5374 275.435V416.896C97.5374 422.423 102.017 426.904 107.542 426.904H288.356C293.882 426.904 298.362 422.423 298.362 416.896V275.435C298.362 269.908 293.882 265.427 288.356 265.427Z" fill="#020113"/>
<path d="M228.863 304.245H209.832C209.832 307.741 208.444 311.093 205.973 313.565C203.501 316.037 200.15 317.425 196.655 317.425C193.16 317.425 189.809 316.037 187.338 313.565C184.867 311.093 183.478 307.741 183.478 304.245H164.448L138.794 338.654L166.593 354.377V392.822H226.624V354.377L254.423 338.654L228.863 304.245Z" fill="#FDFFF8"/>
<path d="M166.663 354.377V338.654" stroke="black" stroke-width="0.68" stroke-linecap="round" stroke-linejoin="round"/>
<path d="M226.601 354.377V338.654" stroke="black" stroke-width="0.68" stroke-linecap="round" stroke-linejoin="round"/>
<path d="M200.783 459.54L218.111 507.129L225.994 495.092L242.995 513.521L254.82 502.394L236.325 484.314L248.733 475.426L200.783 459.54Z" fill="#FBFBF1"/>
<path d="M600.123 437.588C600.123 437.588 660.41 460.403 711.228 486.974C727.717 495.582 731.425 517.814 720.953 533.163C716.704 539.383 710.435 543.942 703.209 546.068C695.984 548.194 688.246 547.756 681.306 544.827L565.42 495.699L600.123 437.588Z" fill="#B96B4A"/>
<path d="M538.203 429.75C538.203 429.75 547.206 383.654 649.752 445.473L613.999 533.327C613.999 533.327 512.293 490.286 538.203 429.75Z" fill="#FDFFF8"/>
<path d="M722.189 531.041L791.432 395.738L760.297 376.399C760.297 376.399 715.682 442.627 676.898 486.181L722.189 531.041Z" fill="#B96B4A"/>
<path d="M762.233 366.368L734.41 282.13C734.005 280.88 734.111 279.521 734.705 278.349C735.3 277.177 736.334 276.289 737.582 275.878L782.616 261.228C783.872 260.823 785.237 260.932 786.412 261.531C787.588 262.13 788.478 263.17 788.89 264.424L816.712 348.638C817.117 349.894 817.008 351.26 816.41 352.435C815.811 353.611 814.771 354.502 813.517 354.914L768.483 369.564C767.23 369.968 765.869 369.858 764.697 369.259C763.525 368.66 762.639 367.62 762.233 366.368Z" fill="#060606"/>
<path d="M795.396 327.386L776.832 271.702L779.491 270.839L798.032 326.523L795.396 327.386Z" fill="#FDFFF8"/>
<path d="M763.002 299.229L755.609 277.814L758.245 276.951L765.638 298.366L763.002 299.229Z" fill="#FDFFF8"/>
<path d="M773.622 317.411L768.026 300.258L765.368 301.125L770.964 318.278L773.622 317.411Z" fill="#FDFFF8"/>
<path d="M785.208 358.322L773.167 321.297L770.506 322.163L782.547 359.188L785.208 358.322Z" fill="#FDFFF8"/>
<path d="M759.877 314.999L748.146 280.24L750.782 279.377L762.536 314.136L759.877 314.999Z" fill="#FDFFF8"/>
<path d="M766.519 326.181L763.46 316.775L760.799 317.641L763.858 327.047L766.519 326.181Z" fill="#FDFFF8"/>
<path d="M753.068 386.873L738.212 352.721C736.952 348.452 736.673 343.955 737.395 339.564L741.92 312.34C742.06 311.6 742.376 310.904 742.843 310.314C743.31 309.723 743.913 309.253 744.601 308.946C745.288 308.639 746.04 308.503 746.791 308.55C747.543 308.596 748.272 308.824 748.916 309.214C752.858 311.827 756.682 318.218 753.72 333.685L762.373 351.974L778.535 345.699L776.809 339.4C776.307 337.505 776.54 335.49 777.461 333.759C778.383 332.028 779.924 330.71 781.777 330.069L806.731 321.554L800.971 305.225C800.313 303.352 800.168 301.337 800.549 299.389C800.93 297.441 801.825 295.631 803.139 294.144L804.072 293.071C804.604 292.478 805.284 292.037 806.042 291.793C806.8 291.549 807.609 291.511 808.386 291.681C809.164 291.852 809.883 292.226 810.468 292.765C811.054 293.304 811.487 293.989 811.722 294.75L823.033 332.075C824.501 336.964 824.817 342.126 823.955 347.157C823.093 352.188 821.077 356.951 818.065 361.072L789.52 400.193L753.068 386.873Z" fill="#B96B4A"/>
<path d="M778.651 345.769L783.129 357.223C783.764 358.864 784.971 360.219 786.527 361.038C788.084 361.857 789.884 362.085 791.595 361.679L804.049 358.716" stroke="black" stroke-width="0.77" stroke-linecap="round" stroke-linejoin="round"/>
<path d="M806.731 321.554C809.752 320.645 812.932 320.391 816.06 320.808" stroke="black" stroke-width="0.77" stroke-linecap="round" stroke-linejoin="round"/>
<path d="M483.024 377.075L377.61 420.979C369.54 424.221 367.278 440.621 369.703 448.972L410.283 656.336H561.525L597.441 441.134C599.773 432.596 598.234 420.582 589.885 417.596L483.024 377.075Z" fill="#FDFFF8"/>
<path d="M432.206 398.094C432.206 398.094 463.947 415.263 514.881 447.526L536.431 397.394L481.485 376.562L432.206 398.094Z" fill="#B96B4A"/>
<path d="M580.625 452.961C592.403 472.767 584.357 520.1 584.357 520.1" stroke="black" stroke-width="0.68" stroke-linecap="round" stroke-linejoin="round"/>
<path d="M330.639 488.28C330.639 488.28 302.886 570.955 298.245 628.109C296.753 646.655 313.545 661.655 332.132 660.978C339.681 660.708 346.902 657.829 352.566 652.831C358.231 647.833 361.988 641.025 363.197 633.567L398.273 489.82L330.639 488.28Z" fill="#B96B4A"/>
<path d="M390.599 418.599C390.599 418.599 328.75 419.392 306.991 525.768L405.269 539.019C405.269 539.019 453.545 437.775 390.599 418.599Z" fill="#FDFFF8"/>
<path d="M387.474 537.129L402.074 538.272C402.074 538.272 409.98 521.103 417.14 501.577" stroke="black" stroke-width="0.68" stroke-linecap="round" stroke-linejoin="round"/>
<path d="M510.334 626.639L562.015 602.075C564.714 601.018 567.625 600.62 570.509 600.912C573.392 601.204 576.164 602.178 578.597 603.754L635.665 640.729C636.389 641.208 636.981 641.86 637.388 642.626C637.796 643.392 638.005 644.247 637.997 645.115C638 645.8 637.868 646.479 637.608 647.113C637.348 647.747 636.966 648.323 636.482 648.809C635.999 649.294 635.425 649.679 634.792 649.942C634.16 650.205 633.482 650.34 632.797 650.34H582.841C577.676 650.344 572.567 649.263 567.845 647.168L550.354 649.501C550.354 649.501 539.509 665.597 496.317 658.342L510.334 626.639Z" fill="#B96B4A"/>
<path d="M332.039 660.978L503.011 659.345L516.654 626.359C516.654 626.359 407.181 614.089 350.603 600.022L332.039 660.978Z" fill="#B96B4A"/>
<path d="M370.216 604.477L347.244 600.022" stroke="black" stroke-width="0.68" stroke-linecap="round" stroke-linejoin="round"/>
<path d="M595.575 219.867C599.586 186.951 579.926 168.032 561.782 165.209C543.637 162.387 542.658 136.843 524.467 136.983C522.556 136.928 520.652 137.252 518.867 137.937C517.082 138.621 515.45 139.653 514.065 140.972C509.585 138.232 504.384 136.907 499.139 137.169C473.275 137.356 470.92 151.003 445.033 154.175C419.145 157.348 389.06 182.682 392.838 215.901C397.689 258.755 326.255 262.441 352.538 311.127C368.864 341.453 404.546 313.459 422.62 330.442C431.198 338.569 441.892 344.111 453.475 346.435C465.058 348.758 477.062 347.767 488.108 343.576L493.332 347.472C493.332 347.472 539.696 358.179 560.592 329.393C573.046 312.27 597.907 337.884 615.422 313.716C639.047 281.337 591.564 252.783 595.575 219.867Z" fill="#060606"/>
<path d="M526.846 278.957C526.846 291.928 537.341 300.373 550.284 300.349C563.228 300.326 573.606 286.959 573.606 273.988C573.606 261.018 563.181 255.326 550.284 255.326C547.186 255.31 544.116 255.912 541.253 257.096C538.39 258.281 535.791 260.024 533.609 262.224C531.427 264.424 529.705 267.037 528.544 269.91C527.383 272.783 526.805 275.859 526.846 278.957Z" fill="#A95739"/>
<path d="M563.857 319.735C563.997 338.071 553.316 350.784 539.999 350.901C526.682 351.018 515.814 338.421 515.674 320.085C515.534 301.749 526.216 286.796 539.532 286.702C552.849 286.609 563.857 301.376 563.857 319.735Z" stroke="#F8F0BB" stroke-width="0.81" stroke-miterlimit="10"/>
<path d="M402.797 218.584C401.211 259.315 450.373 304.898 489.088 300.536C529.621 296.01 564.184 270.396 565.77 229.642C566.218 214.661 562.483 199.852 554.986 186.877C547.488 173.901 536.524 163.272 523.324 156.181C514.504 151.565 504.771 148.96 494.825 148.553C454.058 146.967 404.616 172.255 402.797 218.584Z" fill="#060606"/>
<path d="M477.24 292.441L456.484 399.004L512.129 415.357L513.459 310.077L477.24 292.441Z" fill="#B96B4A"/>
<path d="M512.876 361.212C512.876 361.212 481.345 349.548 462.734 305.598L513.296 323.211L512.876 361.212Z" fill="#A95739"/>
<path d="M520.152 168.499C520.152 168.499 571.46 172.138 565.07 238.25C558.68 304.361 549.981 321.648 522.391 334.525C497.6 346.189 466.932 333.708 450.373 304.851C443.538 292.147 439.558 278.103 438.713 263.701L435.354 246.251C435.354 246.251 417.583 159.354 520.152 168.499Z" fill="#B96B4A"/>
<path d="M528.082 275.131L531.837 285.722L525.283 289.012" stroke="black" stroke-width="0.8" stroke-linecap="round" stroke-linejoin="round"/>
<path d="M493.402 251.897C493.402 251.897 510.007 251.034 510.963 258.429C511.92 265.824 492.306 265.217 492.306 265.217C492.306 265.217 475.234 266.36 474.651 259.408C474.068 252.457 493.402 251.897 493.402 251.897Z" fill="white"/>
<path d="M485.356 258.895C485.636 263.397 490.417 266.85 496.061 266.593C501.705 266.337 506.043 262.511 505.786 257.985C505.53 253.46 500.702 250.03 495.081 250.287C489.461 250.544 485.076 254.369 485.356 258.895Z" fill="#060606"/>
<path d="M547.042 255.419C547.042 255.419 535.171 254.276 534.192 260.785C533.212 267.293 547.252 267.55 547.252 267.55C547.252 267.55 559.496 268.576 560.196 262.464C560.895 256.352 547.042 255.419 547.042 255.419Z" fill="white"/>
<path d="M554.948 261.881C554.675 263.858 553.638 265.649 552.06 266.871C550.482 268.092 548.488 268.645 546.506 268.413C544.538 268.293 542.698 267.399 541.387 265.926C540.076 264.453 539.401 262.521 539.509 260.551C539.777 258.573 540.813 256.781 542.394 255.562C543.974 254.344 545.971 253.798 547.952 254.043C548.926 254.097 549.881 254.342 550.76 254.765C551.639 255.188 552.427 255.781 553.077 256.509C553.727 257.238 554.227 258.087 554.548 259.009C554.869 259.93 555.005 260.907 554.948 261.881Z" fill="#060606"/>
<path d="M479.013 236.15L504.667 233.817C505.439 233.818 506.204 233.663 506.915 233.362C507.626 233.061 508.27 232.619 508.807 232.064C509.345 231.509 509.765 230.852 510.043 230.131C510.321 229.41 510.452 228.641 510.427 227.869C510.084 226.33 509.173 224.977 507.876 224.081C506.578 223.186 504.991 222.814 503.43 223.04L477.776 225.373C477.005 225.369 476.241 225.521 475.53 225.82C474.819 226.118 474.175 226.557 473.637 227.111C473.099 227.664 472.679 228.32 472.4 229.039C472.121 229.759 471.991 230.527 472.016 231.298C472.348 232.844 473.256 234.206 474.556 235.107C475.855 236.008 477.448 236.381 479.013 236.15Z" fill="#060606"/>
<path d="M558.726 238.086L541.631 235.754C540.867 235.709 540.12 235.507 539.438 235.16C538.755 234.813 538.152 234.329 537.666 233.737C537.179 233.145 536.821 232.46 536.612 231.723C536.404 230.986 536.35 230.214 536.454 229.455C536.94 227.929 537.975 226.638 539.358 225.832C540.741 225.027 542.374 224.763 543.94 225.093L561.059 227.426C561.821 227.47 562.565 227.672 563.246 228.017C563.927 228.363 564.529 228.845 565.015 229.434C565.501 230.023 565.86 230.706 566.07 231.44C566.28 232.174 566.337 232.944 566.236 233.701C565.75 235.233 564.713 236.529 563.325 237.34C561.938 238.15 560.299 238.416 558.726 238.086Z" fill="#060606"/>
<path d="M538.973 298.226C538.973 298.226 536.128 308.887 522.391 308.841C504.853 308.841 503.5 298.016 503.5 298.016C515.212 300.263 527.236 300.334 538.973 298.226Z" fill="#C10006"/>
<path d="M524.21 297.923C524.21 297.923 521.319 294.121 514.392 296.383C510.832 297.354 507.166 297.887 503.477 297.97C503.477 297.97 510.474 301.189 524.024 301.562C536.454 301.912 538.95 298.18 538.95 298.18C536.973 297.798 535.019 297.307 533.096 296.71C531.663 296.001 530.051 295.738 528.467 295.954C526.884 296.17 525.401 296.856 524.21 297.923Z" fill="#AF0D16"/>
<path d="M528.315 168.662C430.783 144.658 415.414 211.866 421.035 232.045C426.655 252.223 445.429 278.701 445.429 278.701C445.429 278.701 454.501 249.727 452.542 225.536C461.335 217.348 473.905 207.527 487.688 203.934C508.048 198.639 518.59 191.5 523.837 184.595C527.982 191.07 534.235 195.915 541.538 198.312C566.189 207.643 565.77 229.665 565.77 229.665C565.77 229.665 572.416 172.605 528.315 168.662Z" fill="#060606"/>
<path d="M451.913 283.04C448.648 295.567 442.328 300.139 425.839 296.127C413.245 293.071 406.435 277.278 409.84 264.774C412.755 253.996 423.577 249.657 436.567 254.346C445.639 257.589 455.201 270.489 451.913 283.04Z" fill="#B96B4A"/>
<path d="M463.574 322.674C462.944 340.217 451.913 351.881 438.479 352.091C424.486 352.091 413.129 339.61 412.989 321.274C412.849 302.938 424.043 287.985 438.013 287.892" stroke="#F8F0BB" stroke-width="0.83" stroke-linecap="round" stroke-linejoin="round"/>
<path d="M424.579 267.62C424.579 267.62 434.934 268.296 440.368 282.083" stroke="black" stroke-width="0.8" stroke-linecap="round" stroke-linejoin="round"/>
<path d="M567.845 659.415L626.57 478.086C628.152 473.936 630.957 470.364 634.614 467.844C638.27 465.324 642.606 463.974 647.046 463.972H889.733C891.335 463.971 892.913 464.361 894.331 465.106C895.748 465.852 896.963 466.932 897.87 468.253C898.777 469.573 899.349 471.095 899.536 472.686C899.724 474.278 899.521 475.891 898.945 477.386L844.652 647.191C843.274 650.788 840.838 653.882 837.665 656.064C834.492 658.247 830.732 659.415 826.881 659.415H567.845Z" fill="#020113"/>
<path d="M458.676 642.432H581.745V659.415H441.814C441.808 654.929 443.579 650.624 446.739 647.441C449.899 644.258 454.191 642.457 458.676 642.432Z" fill="#020113"/>
<path d="M740.217 557.168C735.553 567.572 738.118 578.98 746.164 582.642C754.21 586.305 764.565 580.846 769.299 570.442C774.034 560.037 771.398 548.63 763.376 544.944C755.353 541.258 744.975 546.764 740.217 557.168Z" fill="#027BFE"/>
<path d="M61.5754 660.278H938.732" stroke="black" stroke-width="0.77" stroke-linecap="round" stroke-linejoin="round"/>
</svg>
