<svg width="1018" height="843" viewBox="0 0 1018 843" fill="none" xmlns="http://www.w3.org/2000/svg">
<circle cx="620.5" cy="339.5" r="336.5" fill="#D4E9FF"/>
<circle cx="681.5" cy="336.5" r="336.5" fill="#027BFE"/>
<path d="M434 843C673.692 843 868 833.822 868 822.5C868 811.178 673.692 802 434 802C194.308 802 0 811.178 0 822.5C0 833.822 194.308 843 434 843Z" fill="#939393"/>
<path d="M435 688H262V819H435V688Z" fill="#027BFE"/>
<path d="M440 682H257V703H440V682Z" fill="#D4E9FF"/>
<path d="M435 703H262V715H435V703Z" fill="#0869D1"/>
<path d="M356 682H341V819H356V682Z" fill="white"/>
<path d="M356 715H341V819H356V715Z" fill="#E9E2E8"/>
<path d="M356 703H341V715H356V703Z" fill="#D4CAD4"/>
<path d="M238.953 711C239.055 711.749 238.991 712.51 238.764 713.233C238.537 713.956 238.152 714.624 237.636 715.192C237.12 715.76 236.484 716.215 235.771 716.527C235.057 716.839 234.283 717 233.5 717C232.717 717 231.943 716.839 231.229 716.527C230.516 716.215 229.88 715.76 229.364 715.192C228.848 714.624 228.463 713.956 228.236 713.233C228.009 712.51 227.945 711.749 228.047 711C227.945 710.251 228.009 709.49 228.236 708.767C228.463 708.044 228.848 707.376 229.364 706.808C229.88 706.24 230.516 705.785 231.229 705.473C231.943 705.161 232.717 705 233.5 705C234.283 705 235.057 705.161 235.771 705.473C236.484 705.785 237.12 706.24 237.636 706.808C238.152 707.376 238.537 708.044 238.764 708.767C238.991 709.49 239.055 710.251 238.953 711Z" fill="#0033A8"/>
<path d="M620.229 147H496.771C481.434 147 469 159.42 469 174.741V445.259C469 460.58 481.434 473 496.771 473H620.229C635.566 473 648 460.58 648 445.259V174.741C648 159.42 635.566 147 620.229 147Z" fill="#939393"/>
<path d="M623.302 390H493.698C493.248 390 492.816 389.842 492.497 389.561C492.179 389.279 492 388.898 492 388.5C492 388.102 492.179 387.721 492.497 387.439C492.816 387.158 493.248 387 493.698 387H623.302C623.752 387 624.184 387.158 624.503 387.439C624.821 387.721 625 388.102 625 388.5C625 388.898 624.821 389.279 624.503 389.561C624.184 389.842 623.752 390 623.302 390Z" fill="#D4E9FF"/>
<path d="M623.302 405H493.698C493.248 405 492.816 404.789 492.497 404.414C492.179 404.039 492 403.53 492 403C492 402.47 492.179 401.961 492.497 401.586C492.816 401.211 493.248 401 493.698 401H623.302C623.525 401 623.746 401.052 623.952 401.152C624.158 401.253 624.345 401.4 624.503 401.586C624.66 401.772 624.785 401.992 624.871 402.235C624.956 402.477 625 402.737 625 403C625 403.263 624.956 403.523 624.871 403.765C624.785 404.008 624.66 404.228 624.503 404.414C624.345 404.6 624.158 404.747 623.952 404.848C623.746 404.948 623.525 405 623.302 405Z" fill="#D4E9FF"/>
<path d="M623.302 419H493.698C493.248 419 492.816 418.842 492.497 418.561C492.179 418.279 492 417.898 492 417.5C492 417.102 492.179 416.721 492.497 416.439C492.816 416.158 493.248 416 493.698 416H623.302C623.752 416 624.184 416.158 624.503 416.439C624.821 416.721 625 417.102 625 417.5C625 417.898 624.821 418.279 624.503 418.561C624.184 418.842 623.752 419 623.302 419Z" fill="#D4E9FF"/>
<path d="M623.302 434H493.698C493.248 434 492.816 433.842 492.497 433.561C492.179 433.279 492 432.898 492 432.5C492 432.102 492.179 431.721 492.497 431.439C492.816 431.158 493.248 431 493.698 431H623.302C623.752 431 624.184 431.158 624.503 431.439C624.821 431.721 625 432.102 625 432.5C625 432.898 624.821 433.279 624.503 433.561C624.184 433.842 623.752 434 623.302 434Z" fill="#D4E9FF"/>
<path d="M623.302 449H493.698C493.248 449 492.816 448.789 492.497 448.414C492.179 448.039 492 447.53 492 447C492 446.47 492.179 445.961 492.497 445.586C492.816 445.211 493.248 445 493.698 445H623.302C623.752 445 624.184 445.211 624.503 445.586C624.821 445.961 625 446.47 625 447C625 447.53 624.821 448.039 624.503 448.414C624.184 448.789 623.752 449 623.302 449Z" fill="#D4E9FF"/>
<path d="M617 347.216L616.056 348.35C615.113 349.296 613.509 350.903 611.244 352.793C607.347 356.069 603.071 358.863 598.506 361.113C597.091 361.869 595.581 362.531 593.977 363.193C590.905 364.495 587.754 365.6 584.542 366.502L580.296 367.636C573.14 369.226 565.83 370.019 558.5 369.999C551.334 370.025 544.196 369.103 537.27 367.258L531.892 365.651C522.825 362.637 514.338 358.097 506.794 352.226C504.932 350.801 503.167 349.253 501.51 347.594C500.976 347.121 500.472 346.616 500 346.081L505.284 338.329C506.135 337.208 506.922 336.04 507.643 334.831C510.285 330.955 513.304 326.323 516.418 321.407L519.248 316.774C524.258 308.968 528.523 300.707 531.986 292.1C531.986 292.1 531.986 291.343 531.986 290.965C532.293 289.971 532.545 288.961 532.741 287.94C533.123 284.99 533.123 282.003 532.741 279.053C532.741 277.163 532.741 275.366 531.986 273.476C530.069 264.079 526.895 254.984 522.551 246.437L521.513 244.358C531.515 230.839 528.684 208.906 527.08 200.208L530.948 197.277C531.581 196.781 532.323 196.442 533.112 196.287C533.901 196.133 534.715 196.168 535.488 196.389C536.261 196.61 536.971 197.012 537.559 197.561C538.148 198.109 538.598 198.79 538.874 199.546C540.573 205.114 543.658 210.156 547.838 214.2C551.099 217.204 555.392 218.83 559.821 218.738H562.18C564.5 218.394 566.72 217.556 568.69 216.28C572.96 213.269 576.243 209.058 578.126 204.179C578.598 202.855 579.069 201.437 579.447 200.114V199.357C580.029 198.052 581.081 197.016 582.393 196.455C583.705 195.894 585.18 195.85 586.523 196.332L588.505 196.994C588.149 208.603 589.679 220.193 593.034 231.311C593.034 232.54 593.789 233.769 594.166 234.809C595.005 237.241 596.079 239.584 597.374 241.805C597.374 241.805 597.374 242.467 596.714 243.318C596.053 244.169 595.298 246.816 594.26 249.557C592.562 254.095 590.392 260.429 588.316 267.803C586.496 275.513 586.112 283.494 587.184 291.343C588.62 300.384 591.588 309.113 595.959 317.152L599.073 322.919C603.643 330.876 608.783 338.491 614.452 345.703L617 347.216Z" fill="#D4E9FF"/>
<path d="M538.999 202.501C538.999 203.429 538.63 204.319 537.974 204.975C537.317 205.631 536.427 206 535.499 206C534.579 205.976 533.703 205.6 533.051 204.949C532.4 204.297 532.024 203.421 532 202.501C532 201.573 532.369 200.683 533.025 200.026C533.681 199.37 534.571 199.001 535.499 199.001C535.962 198.988 536.423 199.07 536.854 199.241C537.284 199.412 537.675 199.67 538.003 199.997C538.33 200.325 538.588 200.716 538.759 201.146C538.93 201.577 539.012 202.038 538.999 202.501Z" fill="#939393"/>
<path d="M585 202.364C585 203.328 584.661 204.253 584.058 204.935C583.454 205.617 582.636 206 581.783 206C581.203 205.995 580.636 205.809 580.145 205.462C579.654 205.115 579.257 204.621 579 204.034C579.435 202.659 579.87 201.184 580.217 199.809V199.022H581.522C581.947 198.968 582.377 199.013 582.786 199.154C583.196 199.295 583.575 199.529 583.901 199.842C584.227 200.155 584.492 200.541 584.681 200.974C584.871 201.408 584.979 201.881 585 202.364Z" fill="#939393"/>
<path d="M538.999 217.501C538.999 218.429 538.63 219.319 537.974 219.975C537.317 220.631 536.427 221 535.499 221C534.579 220.976 533.703 220.6 533.051 219.949C532.4 219.297 532.024 218.421 532 217.501C532 216.573 532.369 215.683 533.025 215.026C533.681 214.37 534.571 214.001 535.499 214.001C535.962 213.988 536.423 214.07 536.854 214.241C537.284 214.412 537.675 214.67 538.003 214.997C538.33 215.325 538.588 215.716 538.759 216.146C538.93 216.577 539.012 217.038 538.999 217.501Z" fill="#939393"/>
<path d="M554 217.706C553.907 218.616 553.507 219.456 552.878 220.064C552.249 220.672 551.436 221.006 550.595 221C549.657 221 548.757 220.602 548.086 219.891C547.414 219.179 547.025 218.211 547 217.191C547.014 216.569 547.158 215.959 547.42 215.407C547.682 214.854 548.056 214.373 548.514 214C550.151 215.543 552.003 216.793 554 217.706Z" fill="#939393"/>
<path d="M569.989 217.136C569.999 218.02 569.716 218.879 569.189 219.569C568.662 220.258 567.924 220.735 567.1 220.917C566.276 221.1 565.417 220.978 564.67 220.571C563.922 220.164 563.332 219.497 563 218.685C565.421 218.31 567.737 217.394 569.793 216C569.96 216.351 570.028 216.745 569.989 217.136Z" fill="#939393"/>
<path d="M584.999 217.501C584.999 218.429 584.63 219.319 583.974 219.975C583.317 220.631 582.427 221 581.499 221C580.579 220.976 579.703 220.6 579.051 219.949C578.4 219.297 578.024 218.421 578 217.501C578 216.573 578.369 215.683 579.025 215.026C579.681 214.37 580.571 214.001 581.499 214.001C581.962 213.988 582.423 214.07 582.854 214.241C583.284 214.412 583.675 214.67 584.003 214.997C584.33 215.325 584.588 215.716 584.759 216.146C584.93 216.577 585.012 217.038 584.999 217.501Z" fill="#939393"/>
<path d="M538.999 231.499C539.012 231.962 538.93 232.423 538.759 232.854C538.588 233.284 538.33 233.675 538.003 234.003C537.675 234.33 537.284 234.588 536.854 234.759C536.423 234.93 535.962 235.012 535.499 234.999C534.571 234.999 533.681 234.63 533.025 233.974C532.369 233.317 532 232.427 532 231.499C532.024 230.579 532.4 229.703 533.051 229.051C533.703 228.4 534.579 228.024 535.499 228C536.427 228 537.317 228.369 537.974 229.025C538.63 229.681 538.999 230.571 538.999 231.499Z" fill="#939393"/>
<path d="M551.5 235C553.433 235 555 233.433 555 231.5C555 229.567 553.433 228 551.5 228C549.567 228 548 229.567 548 231.5C548 233.433 549.567 235 551.5 235Z" fill="#939393"/>
<path d="M566.5 235C568.433 235 570 233.433 570 231.5C570 229.567 568.433 228 566.5 228C564.567 228 563 229.567 563 231.5C563 233.433 564.567 235 566.5 235Z" fill="#939393"/>
<path d="M584.999 231.499C585.012 231.962 584.93 232.423 584.759 232.854C584.588 233.284 584.33 233.675 584.003 234.003C583.675 234.33 583.284 234.588 582.854 234.759C582.423 234.93 581.962 235.012 581.499 234.999C580.571 234.999 579.681 234.63 579.025 233.974C578.369 233.317 578 232.427 578 231.499C578.024 230.579 578.4 229.703 579.051 229.051C579.703 228.4 580.579 228.024 581.499 228C582.427 228 583.317 228.369 583.974 229.025C584.63 229.681 584.999 230.571 584.999 231.499Z" fill="#939393"/>
<path d="M524 247L522 244C523.081 244.812 523.782 245.864 524 247Z" fill="#CE101D"/>
<path d="M538.999 246.499C539.012 246.962 538.93 247.423 538.759 247.854C538.588 248.284 538.33 248.675 538.003 249.003C537.675 249.33 537.284 249.588 536.854 249.759C536.423 249.93 535.962 250.012 535.499 249.999C534.571 249.999 533.681 249.63 533.025 248.974C532.369 248.317 532 247.427 532 246.499C532.024 245.579 532.4 244.703 533.051 244.051C533.703 243.4 534.579 243.024 535.499 243C536.427 243 537.317 243.369 537.974 244.025C538.63 244.681 538.999 245.571 538.999 246.499Z" fill="#939393"/>
<path d="M551.5 250C553.433 250 555 248.433 555 246.5C555 244.567 553.433 243 551.5 243C549.567 243 548 244.567 548 246.5C548 248.433 549.567 250 551.5 250Z" fill="#939393"/>
<path d="M566.5 250C568.433 250 570 248.433 570 246.5C570 244.567 568.433 243 566.5 243C564.567 243 563 244.567 563 246.5C563 248.433 564.567 250 566.5 250Z" fill="#939393"/>
<path d="M584.999 246.499C585.012 246.962 584.93 247.423 584.759 247.854C584.588 248.284 584.33 248.675 584.003 249.003C583.675 249.33 583.284 249.588 582.854 249.759C582.423 249.93 581.962 250.012 581.499 249.999C580.571 249.999 579.681 249.63 579.025 248.974C578.369 248.317 578 247.427 578 246.499C578.024 245.579 578.4 244.703 579.051 244.051C579.703 243.4 580.579 243.024 581.499 243C582.427 243 583.317 243.369 583.974 244.025C584.63 244.681 584.999 245.571 584.999 246.499Z" fill="#939393"/>
<path d="M598 243C597.4 244.273 596.501 246.364 595.402 249C594.948 248.7 594.582 248.302 594.338 247.842C594.094 247.382 593.979 246.874 594.003 246.364C594.003 245.472 594.393 244.616 595.086 243.985C595.779 243.354 596.72 243 597.7 243H598Z" fill="#939393"/>
<path d="M538.999 261.453C539.01 261.915 538.936 262.374 538.779 262.804C538.622 263.233 538.387 263.625 538.086 263.956C537.786 264.286 537.426 264.549 537.029 264.729C536.632 264.908 536.206 265 535.775 265C535 264.864 534.296 264.437 533.788 263.796C533.279 263.155 533 262.341 533 261.5C533 260.659 533.279 259.845 533.788 259.204C534.296 258.563 535 258.136 535.775 258C536.63 258 537.45 258.364 538.055 259.011C538.659 259.659 538.999 260.537 538.999 261.453Z" fill="#939393"/>
<path d="M554.999 261.409C555.019 262.109 554.8 262.798 554.369 263.387C553.937 263.977 553.314 264.44 552.579 264.716C551.844 264.992 551.031 265.069 550.245 264.937C549.46 264.805 548.737 264.47 548.172 263.975C547.606 263.48 547.223 262.848 547.072 262.161C546.921 261.473 547.009 260.762 547.325 260.119C547.64 259.476 548.169 258.93 548.843 258.553C549.517 258.175 550.304 257.983 551.104 258.001C552.128 258.024 553.104 258.391 553.828 259.025C554.553 259.659 554.972 260.513 554.999 261.409Z" fill="#939393"/>
<path d="M570 261.356C570 262.306 569.643 263.219 569.005 263.899C568.366 264.58 567.497 264.975 566.582 265C565.848 264.791 565.199 264.34 564.734 263.715C564.268 263.091 564.011 262.326 564 261.536C563.99 260.746 564.227 259.974 564.676 259.337C565.125 258.699 565.761 258.23 566.489 258C567.374 257.997 568.228 258.341 568.879 258.964C569.53 259.586 569.93 260.44 570 261.356Z" fill="#939393"/>
<path d="M584.999 261.453C585.01 261.915 584.936 262.374 584.779 262.804C584.622 263.233 584.387 263.625 584.086 263.956C583.786 264.286 583.426 264.549 583.029 264.729C582.632 264.908 582.206 265 581.775 265C581 264.864 580.296 264.437 579.788 263.796C579.279 263.155 579 262.341 579 261.5C579 260.659 579.279 259.845 579.788 259.204C580.296 258.563 581 258.136 581.775 258C582.63 258 583.45 258.364 584.055 259.011C584.659 259.659 584.999 260.537 584.999 261.453Z" fill="#939393"/>
<path d="M538.999 276.501C538.999 277.429 538.627 278.319 537.967 278.975C537.306 279.631 536.41 280 535.476 280C534.873 279.991 534.283 279.828 533.762 279.527C533.762 277.636 533.762 275.839 533 273.947C533.684 273.347 534.563 273.012 535.476 273.001C535.942 272.988 536.406 273.07 536.839 273.241C537.273 273.412 537.666 273.67 537.996 273.997C538.326 274.325 538.585 274.716 538.757 275.146C538.93 275.577 539.012 276.038 538.999 276.501Z" fill="#939393"/>
<path d="M554.947 276.066C554.794 276.885 554.313 277.63 553.59 278.167C552.867 278.705 551.949 279 551 279C550.051 279 549.133 278.705 548.41 278.167C547.687 277.63 547.206 276.885 547.053 276.066C546.959 275.565 546.991 275.052 547.146 274.563C547.301 274.074 547.576 273.621 547.951 273.234C548.327 272.847 548.794 272.537 549.321 272.323C549.847 272.11 550.42 272 551 272C551.58 272 552.153 272.11 552.679 272.323C553.206 272.537 553.673 272.847 554.049 273.234C554.424 273.621 554.699 274.074 554.854 274.563C555.009 275.052 555.041 275.565 554.947 276.066Z" fill="#939393"/>
<path d="M570 276.053C569.978 277.092 569.631 278.08 569.031 278.814C568.431 279.549 567.624 279.973 566.776 280C566.001 279.845 565.296 279.357 564.788 278.624C564.279 277.891 564 276.961 564 276C564 275.039 564.279 274.108 564.788 273.376C565.296 272.643 566.001 272.155 566.776 272C567.639 272.028 568.459 272.467 569.061 273.224C569.663 273.981 570 274.997 570 276.053Z" fill="#939393"/>
<path d="M584.999 276.053C584.999 277.1 584.659 278.104 584.055 278.844C583.45 279.584 582.63 280 581.775 280C581 279.845 580.296 279.357 579.788 278.624C579.279 277.891 579 276.961 579 276C579 275.039 579.279 274.108 579.788 273.376C580.296 272.643 581 272.155 581.775 272C582.206 272 582.632 272.105 583.029 272.31C583.426 272.515 583.786 272.816 584.086 273.193C584.387 273.571 584.622 274.019 584.779 274.51C584.936 275.001 585.01 275.526 584.999 276.053Z" fill="#939393"/>
<path d="M538.997 290.517C538.997 291.44 538.613 292.326 537.929 292.98C537.246 293.633 536.318 294 535.351 294C534.631 293.995 533.929 293.787 533.332 293.402C532.736 293.017 532.272 292.471 532 291.835C532 291.835 532 291.081 532 290.705C532.32 289.715 532.584 288.709 532.788 287.692C533.409 287.238 534.176 287.005 534.957 287.033C535.471 286.964 535.994 287.003 536.49 287.148C536.987 287.294 537.444 287.541 537.829 287.873C538.214 288.205 538.519 288.614 538.721 289.071C538.922 289.528 539.017 290.021 538.997 290.517Z" fill="#939393"/>
<path d="M551.5 294C553.433 294 555 292.433 555 290.5C555 288.567 553.433 287 551.5 287C549.567 287 548 288.567 548 290.5C548 292.433 549.567 294 551.5 294Z" fill="#939393"/>
<path d="M566.5 294C568.433 294 570 292.433 570 290.5C570 288.567 568.433 287 566.5 287C564.567 287 563 288.567 563 290.5C563 292.433 564.567 294 566.5 294Z" fill="#939393"/>
<path d="M584.999 290.501C584.999 291.429 584.63 292.319 583.974 292.975C583.317 293.631 582.427 294 581.499 294C580.579 293.976 579.703 293.6 579.051 292.949C578.4 292.297 578.024 291.421 578 290.501C578 289.573 578.369 288.683 579.025 288.026C579.681 287.37 580.571 287.001 581.499 287.001C581.962 286.988 582.423 287.07 582.854 287.241C583.284 287.412 583.675 287.67 584.003 287.997C584.33 288.325 584.588 288.716 584.759 289.146C584.93 289.577 585.012 290.038 584.999 290.501Z" fill="#939393"/>
<path d="M538.999 305.5C539.012 305.963 538.93 306.424 538.759 306.854C538.588 307.285 538.33 307.675 538.003 308.003C537.675 308.33 537.284 308.588 536.854 308.759C536.423 308.93 535.962 309.012 535.499 308.999C534.571 308.999 533.681 308.63 533.025 307.974C532.369 307.318 532 306.428 532 305.5C532 304.572 532.369 303.682 533.025 303.026C533.681 302.37 534.571 302.001 535.499 302.001C535.962 301.988 536.423 302.07 536.854 302.241C537.284 302.412 537.675 302.67 538.003 302.997C538.33 303.325 538.588 303.715 538.759 304.146C538.93 304.576 539.012 305.037 538.999 305.5Z" fill="#939393"/>
<path d="M551.5 309C553.433 309 555 307.433 555 305.5C555 303.567 553.433 302 551.5 302C549.567 302 548 303.567 548 305.5C548 307.433 549.567 309 551.5 309Z" fill="#939393"/>
<path d="M566.5 309C568.433 309 570 307.433 570 305.5C570 303.567 568.433 302 566.5 302C564.567 302 563 303.567 563 305.5C563 307.433 564.567 309 566.5 309Z" fill="#939393"/>
<path d="M584.999 305.5C585.012 305.963 584.93 306.424 584.759 306.854C584.588 307.285 584.33 307.675 584.003 308.003C583.675 308.33 583.284 308.588 582.854 308.759C582.423 308.93 581.962 309.012 581.499 308.999C580.571 308.999 579.681 308.63 579.025 307.974C578.369 307.318 578 306.428 578 305.5C578 304.572 578.369 303.682 579.025 303.026C579.681 302.37 580.571 302.001 581.499 302.001C581.962 301.988 582.423 302.07 582.854 302.241C583.284 302.412 583.675 302.67 584.003 302.997C584.33 303.325 584.588 303.715 584.759 304.146C584.93 304.576 585.012 305.037 584.999 305.5Z" fill="#939393"/>
<path d="M524 320.51C524 321.435 523.621 322.323 522.946 322.977C522.272 323.632 521.357 323.999 520.403 323.999C519.65 324.014 518.912 323.792 518.298 323.368C517.685 322.943 517.23 322.337 517 321.641L519.917 317.02C520.425 316.968 520.94 317.018 521.427 317.169C521.915 317.32 522.365 317.567 522.748 317.895C523.132 318.223 523.442 318.625 523.657 319.075C523.873 319.525 523.989 320.013 524 320.51Z" fill="#939393"/>
<path d="M538.999 320.499C539.012 320.962 538.93 321.423 538.759 321.854C538.588 322.284 538.33 322.675 538.003 323.003C537.675 323.33 537.284 323.588 536.854 323.759C536.423 323.93 535.962 324.012 535.499 323.999C534.571 323.999 533.681 323.63 533.025 322.974C532.369 322.317 532 321.427 532 320.499C532.024 319.579 532.4 318.703 533.051 318.051C533.703 317.4 534.579 317.024 535.499 317C536.427 317 537.317 317.369 537.974 318.025C538.63 318.681 538.999 319.571 538.999 320.499Z" fill="#939393"/>
<path d="M555 320C554.845 320.838 554.357 321.599 553.624 322.149C552.891 322.698 551.961 323 551 323C550.039 323 549.108 322.698 548.376 322.149C547.643 321.599 547.155 320.838 547 320C547.155 319.162 547.643 318.401 548.376 317.851C549.108 317.302 550.039 317 551 317C551.961 317 552.891 317.302 553.624 317.851C554.357 318.401 554.845 319.162 555 320Z" fill="#939393"/>
<path d="M569.989 320.216C570.028 320.706 569.965 321.2 569.804 321.665C569.642 322.129 569.386 322.554 569.052 322.911C568.718 323.268 568.313 323.549 567.865 323.737C567.416 323.924 566.933 324.013 566.448 323.998C565.992 324.011 565.538 323.93 565.114 323.759C564.69 323.587 564.305 323.33 563.982 323.003C563.66 322.675 563.406 322.284 563.238 321.854C563.069 321.423 562.988 320.962 563.001 320.499C563.001 319.571 563.364 318.681 564.011 318.025C564.657 317.369 565.534 317 566.448 317C567.326 316.995 568.174 317.321 568.829 317.916C569.483 318.51 569.896 319.329 569.989 320.216Z" fill="#939393"/>
<path d="M584.999 320.499C585.012 320.962 584.93 321.423 584.759 321.854C584.588 322.284 584.33 322.675 584.003 323.003C583.675 323.33 583.284 323.588 582.854 323.759C582.423 323.93 581.962 324.012 581.499 323.999C580.571 323.999 579.681 323.63 579.025 322.974C578.369 322.317 578 321.427 578 320.499C578.024 319.579 578.4 318.703 579.051 318.051C579.703 317.4 580.579 317.024 581.499 317C582.427 317 583.317 317.369 583.974 318.025C584.63 318.681 584.999 319.571 584.999 320.499Z" fill="#939393"/>
<path d="M600 322.769C599.681 323.153 599.285 323.461 598.839 323.673C598.393 323.885 597.908 323.996 597.416 323.999C596.964 324.012 596.514 323.93 596.094 323.759C595.674 323.588 595.293 323.33 594.973 323.003C594.653 322.675 594.402 322.284 594.235 321.854C594.068 321.423 593.989 320.962 594.001 320.499C594.013 319.653 594.315 318.838 594.855 318.198C595.396 317.558 596.139 317.134 596.955 317L600 322.769Z" fill="#939393"/>
<path d="M508 335.162C508.007 335.801 507.815 336.424 507.454 336.937C507.093 337.449 506.582 337.823 506 338C506.693 337.039 507.335 336.037 507.923 335L508 335.162Z" fill="#939393"/>
<path d="M520.5 338C522.433 338 524 336.433 524 334.5C524 332.567 522.433 331 520.5 331C518.567 331 517 332.567 517 334.5C517 336.433 518.567 338 520.5 338Z" fill="#939393"/>
<path d="M538.999 334.499C539.012 334.962 538.93 335.423 538.759 335.854C538.588 336.284 538.33 336.675 538.003 337.003C537.675 337.33 537.284 337.588 536.854 337.759C536.423 337.93 535.962 338.012 535.499 337.999C534.571 337.999 533.681 337.63 533.025 336.974C532.369 336.317 532 335.427 532 334.499C532.024 333.579 532.4 332.703 533.051 332.051C533.703 331.4 534.579 331.024 535.499 331C536.427 331 537.317 331.369 537.974 332.025C538.63 332.681 538.999 333.571 538.999 334.499Z" fill="#939393"/>
<path d="M551.5 338C553.433 338 555 336.433 555 334.5C555 332.567 553.433 331 551.5 331C549.567 331 548 332.567 548 334.5C548 336.433 549.567 338 551.5 338Z" fill="#939393"/>
<path d="M566.5 338C568.433 338 570 336.433 570 334.5C570 332.567 568.433 331 566.5 331C564.567 331 563 332.567 563 334.5C563 336.433 564.567 338 566.5 338Z" fill="#939393"/>
<path d="M584.999 334.499C585.012 334.962 584.93 335.423 584.759 335.854C584.588 336.284 584.33 336.675 584.003 337.003C583.675 337.33 583.284 337.588 582.854 337.759C582.423 337.93 581.962 338.012 581.499 337.999C580.571 337.999 579.681 337.63 579.025 336.974C578.369 336.317 578 335.427 578 334.499C578.024 333.579 578.4 332.703 579.051 332.051C579.703 331.4 580.579 331.024 581.499 331C582.427 331 583.317 331.369 583.974 332.025C584.63 332.681 584.999 333.571 584.999 334.499Z" fill="#939393"/>
<path d="M597.5 338C599.433 338 601 336.433 601 334.5C601 332.567 599.433 331 597.5 331C595.567 331 594 332.567 594 334.5C594 336.433 595.567 338 597.5 338Z" fill="#939393"/>
<path d="M508 349.619C507.976 350.501 507.654 351.345 507.091 352C505.298 350.564 503.597 349.005 502 347.333C502.305 346.93 502.692 346.601 503.131 346.371C503.571 346.14 504.054 346.014 504.545 346C505.462 346 506.34 346.381 506.988 347.06C507.636 347.739 508 348.659 508 349.619Z" fill="#939393"/>
<path d="M520.5 353C522.433 353 524 351.433 524 349.5C524 347.567 522.433 346 520.5 346C518.567 346 517 347.567 517 349.5C517 351.433 518.567 353 520.5 353Z" fill="#939393"/>
<path d="M538.999 349.547C538.999 350.463 538.659 351.341 538.055 351.989C537.45 352.636 536.63 353 535.775 353C535 352.864 534.296 352.437 533.788 351.796C533.279 351.155 533 350.341 533 349.5C533 348.659 533.279 347.845 533.788 347.204C534.296 346.563 535 346.136 535.775 346C536.206 346 536.632 346.092 537.029 346.271C537.426 346.451 537.786 346.714 538.086 347.044C538.387 347.375 538.622 347.767 538.779 348.196C538.936 348.626 539.01 349.085 538.999 349.547Z" fill="#939393"/>
<path d="M551.5 353C553.433 353 555 351.433 555 349.5C555 347.567 553.433 346 551.5 346C549.567 346 548 347.567 548 349.5C548 351.433 549.567 353 551.5 353Z" fill="#939393"/>
<path d="M566.5 353C568.433 353 570 351.433 570 349.5C570 347.567 568.433 346 566.5 346C564.567 346 563 347.567 563 349.5C563 351.433 564.567 353 566.5 353Z" fill="#939393"/>
<path d="M584.999 349.547C584.999 350.463 584.659 351.341 584.055 351.989C583.45 352.636 582.63 353 581.775 353C581 352.864 580.296 352.437 579.788 351.796C579.279 351.155 579 350.341 579 349.5C579 348.659 579.279 347.845 579.788 347.204C580.296 346.563 581 346.136 581.775 346C582.206 346 582.632 346.092 583.029 346.271C583.426 346.451 583.786 346.714 584.086 347.044C584.387 347.375 584.622 347.767 584.779 348.196C584.936 348.626 585.01 349.085 584.999 349.547Z" fill="#939393"/>
<path d="M597.5 353C599.433 353 601 351.433 601 349.5C601 347.567 599.433 346 597.5 346C595.567 346 594 347.567 594 349.5C594 351.433 595.567 353 597.5 353Z" fill="#939393"/>
<path d="M616 348.299C615.158 349.299 613.726 351 611.705 353C611.257 352.73 610.87 352.334 610.578 351.848C610.287 351.362 610.098 350.799 610.029 350.207C609.961 349.616 610.013 349.013 610.183 348.451C610.353 347.889 610.635 347.384 611.004 346.979C611.374 346.575 611.821 346.282 612.306 346.127C612.792 345.972 613.302 345.959 613.793 346.088C614.284 346.218 614.741 346.487 615.125 346.872C615.509 347.257 615.81 347.747 616 348.299Z" fill="#939393"/>
<path d="M538.999 364.313C538.995 364.834 538.862 365.347 538.611 365.813C538.359 366.279 537.996 366.685 537.548 367L532.035 365.478C531.988 365.091 531.988 364.7 532.035 364.313C532.035 363.878 532.127 363.447 532.307 363.045C532.487 362.643 532.751 362.278 533.083 361.97C533.415 361.663 533.81 361.419 534.244 361.252C534.678 361.086 535.143 361 535.613 361C536.071 361.012 536.521 361.107 536.939 361.279C537.356 361.452 537.733 361.7 538.048 362.007C538.362 362.315 538.608 362.677 538.771 363.073C538.934 363.468 539.011 363.89 538.999 364.313Z" fill="#939393"/>
<path d="M555 364C554.845 364.838 554.357 365.599 553.624 366.149C552.891 366.698 551.961 367 551 367C550.039 367 549.108 366.698 548.376 366.149C547.643 365.599 547.155 364.838 547 364C547.155 363.162 547.643 362.401 548.376 361.851C549.108 361.302 550.039 361 551 361C551.961 361 552.891 361.302 553.624 361.851C554.357 362.401 554.845 363.162 555 364Z" fill="#939393"/>
<path d="M570 364.501C569.976 365.421 569.6 366.297 568.949 366.949C568.297 367.6 567.421 367.976 566.501 368C565.573 368 564.683 367.631 564.026 366.975C563.37 366.319 563.001 365.429 563.001 364.501C562.988 364.038 563.07 363.577 563.241 363.146C563.412 362.716 563.67 362.325 563.997 361.997C564.325 361.67 564.716 361.412 565.146 361.241C565.577 361.07 566.038 360.988 566.501 361.001C566.96 361.001 567.415 361.092 567.84 361.268C568.264 361.444 568.65 361.701 568.975 362.026C569.3 362.351 569.558 362.737 569.734 363.162C569.909 363.586 570 364.041 570 364.501Z" fill="#939393"/>
<path d="M584.998 364.649C585.026 365.43 584.792 366.197 584.336 366.817L580.08 368C579.466 367.703 578.944 367.23 578.576 366.637C578.208 366.044 578.008 365.355 578 364.649C578 364.17 578.091 363.695 578.266 363.253C578.442 362.81 578.7 362.408 579.025 362.07C579.35 361.731 579.735 361.462 580.16 361.279C580.584 361.096 581.039 361.001 581.499 361.001C581.962 360.988 582.423 361.073 582.853 361.251C583.283 361.43 583.674 361.698 584.002 362.039C584.329 362.381 584.587 362.788 584.758 363.237C584.929 363.686 585.011 364.166 584.998 364.649Z" fill="#939393"/>
<path d="M599 361.172C597.437 361.837 595.771 362.418 594 363C594.278 362.409 594.777 361.901 595.429 361.545C596.081 361.188 596.855 361 597.646 361.006C598.107 360.981 598.57 361.037 599 361.172Z" fill="#939393"/>
<path d="M648 154.425V172H469V154.425C469 152.456 469.786 150.567 471.186 149.175C472.585 147.782 474.483 147 476.462 147H640.632C642.595 147.025 644.469 147.818 645.848 149.208C647.227 150.597 648 152.472 648 154.425Z" fill="#1F141D"/>
<path d="M838.568 822.928C838.97 823.024 839.388 823.024 839.79 822.928C840.213 822.771 840.6 822.531 840.929 822.221C841.258 821.912 841.522 821.54 841.706 821.126C841.89 820.713 841.989 820.267 841.999 819.815C842.009 819.362 841.929 818.912 841.763 818.491L773.542 644.135C773.205 643.296 772.551 642.626 771.723 642.272C770.895 641.918 769.96 641.909 769.125 642.247C768.29 642.585 767.623 643.242 767.271 644.075C766.919 644.907 766.91 645.845 767.246 646.684L835.373 820.757C835.643 821.388 836.087 821.928 836.654 822.313C837.22 822.698 837.885 822.911 838.568 822.928Z" fill="#020113"/>
<path d="M657.428 823C658.111 822.983 658.774 822.77 659.34 822.385C659.906 822 660.35 821.46 660.619 820.828L728.763 646.719C728.929 646.298 729.009 645.848 728.999 645.395C728.989 644.942 728.89 644.496 728.706 644.083C728.522 643.67 728.259 643.297 727.93 642.988C727.601 642.678 727.215 642.438 726.792 642.281C726.381 642.099 725.937 642.003 725.488 642C725.038 641.997 724.593 642.087 724.18 642.264C723.766 642.441 723.393 642.701 723.084 643.029C722.774 643.357 722.535 643.745 722.381 644.17L654.236 818.279C654.071 818.7 653.991 819.15 654.001 819.603C654.011 820.056 654.11 820.502 654.294 820.915C654.478 821.328 654.741 821.701 655.07 822.01C655.399 822.32 655.785 822.56 656.208 822.717C656.589 822.899 657.005 822.996 657.428 823Z" fill="#020113"/>
<path d="M689.385 741.936C689.756 742.021 690.141 742.021 690.511 741.936L793.741 705.611C794.161 705.463 794.547 705.233 794.878 704.935C795.209 704.636 795.478 704.275 795.669 703.872C795.861 703.469 795.972 703.032 795.995 702.585C796.019 702.139 795.954 701.692 795.806 701.271C795.658 700.849 795.43 700.461 795.133 700.128C794.836 699.796 794.477 699.525 794.076 699.332C793.675 699.14 793.24 699.028 792.796 699.005C792.352 698.981 791.908 699.046 791.489 699.195L688.259 735.52C687.839 735.669 687.453 735.898 687.122 736.197C686.791 736.495 686.522 736.857 686.331 737.26C686.139 737.663 686.028 738.1 686.005 738.547C685.981 738.993 686.046 739.439 686.194 739.861C686.458 740.488 686.903 741.022 687.472 741.392C688.041 741.762 688.707 741.952 689.385 741.936Z" fill="#020113"/>
<path d="M806.557 742C807.274 741.974 807.967 741.738 808.551 741.32C809.135 740.903 809.583 740.323 809.84 739.653C810.11 738.794 810.036 737.863 809.634 737.058C809.231 736.252 808.532 735.634 807.683 735.335L704.507 699.193C704.089 699.045 703.645 698.981 703.201 699.005C702.758 699.029 702.323 699.139 701.923 699.331C701.522 699.523 701.163 699.792 700.866 700.123C700.569 700.453 700.341 700.839 700.193 701.258C700.045 701.677 699.981 702.122 700.005 702.565C700.029 703.009 700.139 703.444 700.331 703.845C700.523 704.246 700.791 704.605 701.122 704.902C701.452 705.199 701.838 705.429 702.256 705.576L805.432 741.718C805.78 741.898 806.165 741.995 806.557 742Z" fill="#020113"/>
<path d="M710.614 822.935C711.017 823.022 711.434 823.022 711.838 822.935C712.261 822.779 712.648 822.538 712.974 822.226C713.301 821.914 713.561 821.538 713.737 821.121C713.913 820.705 714.003 820.256 714 819.803C713.997 819.35 713.902 818.902 713.72 818.488L645.489 643.736C645.069 643.012 644.405 642.465 643.618 642.191C642.83 641.918 641.971 641.938 641.197 642.247C640.423 642.556 639.784 643.134 639.398 643.876C639.011 644.618 638.902 645.474 639.09 646.29L707.414 820.759C707.664 821.406 708.104 821.961 708.675 822.35C709.247 822.739 709.924 822.943 710.614 822.935Z" fill="#020113"/>
<path d="M529.025 823C529.719 823.008 530.398 822.804 530.973 822.415C531.548 822.026 531.99 821.47 532.241 820.823L600.91 646.292C601.099 645.476 600.989 644.619 600.6 643.877C600.212 643.134 599.57 642.556 598.792 642.247C598.014 641.938 597.15 641.918 596.359 642.191C595.567 642.465 594.9 643.013 594.478 643.736L526.282 818.267C526.099 818.682 526.003 819.13 526 819.583C525.997 820.036 526.087 820.485 526.264 820.902C526.442 821.319 526.703 821.695 527.031 822.007C527.359 822.319 527.748 822.56 528.173 822.716C528.441 822.854 528.728 822.949 529.025 823Z" fill="#020113"/>
<path d="M560.416 741.936C560.79 742.021 561.178 742.021 561.552 741.936L665.721 705.635C666.144 705.487 666.533 705.257 666.867 704.959C667.201 704.661 667.473 704.3 667.666 703.897C667.86 703.494 667.972 703.057 667.995 702.611C668.019 702.165 667.954 701.719 667.804 701.298C667.666 700.868 667.442 700.472 667.145 700.132C666.848 699.793 666.484 699.517 666.076 699.323C665.668 699.129 665.224 699.02 664.772 699.002C664.32 698.985 663.87 699.06 663.448 699.223L559.279 735.525C558.856 735.673 558.466 735.902 558.133 736.201C557.799 736.499 557.527 736.86 557.334 737.263C557.14 737.666 557.028 738.103 557.005 738.549C556.981 738.995 557.046 739.441 557.196 739.862C557.462 740.489 557.911 741.023 558.485 741.393C559.059 741.763 559.732 741.952 560.416 741.936Z" fill="#020113"/>
<path d="M678.596 741.982C679.311 741.976 680.006 741.746 680.582 741.326C681.158 740.905 681.586 740.314 681.805 739.637C681.954 739.219 682.019 738.775 681.995 738.331C681.972 737.888 681.86 737.453 681.667 737.052C681.475 736.652 681.204 736.293 680.871 735.996C680.538 735.699 680.15 735.471 679.728 735.324L575.537 699.222C575.116 699.06 574.667 698.985 574.217 699.002C573.766 699.019 573.324 699.128 572.917 699.321C572.511 699.514 572.148 699.788 571.852 700.126C571.556 700.464 571.332 700.858 571.195 701.285C571.046 701.704 570.981 702.147 571.005 702.591C571.028 703.035 571.14 703.469 571.333 703.87C571.525 704.271 571.796 704.63 572.129 704.926C572.461 705.223 572.85 705.451 573.272 705.598L677.086 741.7C677.548 741.946 678.075 742.044 678.596 741.982Z" fill="#020113"/>
<path d="M539 649.068C539 649.068 683.342 731.738 774.853 664.922C778.589 662.187 782.179 659.258 785.608 656.146L789.099 652.843C867.213 576.495 767.589 454 767.589 454L759.853 457.303L757.117 458.53C614.567 522.892 539 649.068 539 649.068Z" fill="#939393"/>
<path d="M784.985 503.54C796.938 527.345 810.124 563.005 804.811 597.631C801.812 622.549 791.373 646.009 774.834 665C778.591 662.273 782.201 659.352 785.649 656.25C797.401 638.797 804.963 618.905 807.752 598.101C810.132 581.132 809.101 563.864 804.717 547.292C800.7 531.726 794.974 516.644 787.641 502.317C779.833 486.673 770.491 471.829 759.751 458L757 459.223V459.788C767.792 473.399 777.168 488.057 784.985 503.54Z" fill="#020113"/>
<path d="M740.045 528C740.045 528 768.294 603.437 741.364 638.044C714.433 672.651 653.7 688.492 565 636.724L740.045 528Z" fill="#020113"/>
<path d="M648.192 408V409.227V410.831L647.628 414.321C647.628 416.586 646.782 418.945 646.312 421.303C645.278 425.927 644.149 430.738 642.833 435.362C640.213 444.775 637.075 454.036 633.432 463.101C631.646 467.63 629.766 472.536 627.792 476.593C625.818 480.65 623.75 485.367 621.493 489.708L619.801 492.916L618.109 496.123C616.887 498.199 615.759 500.369 614.443 502.445L612.563 505.559L610.682 508.578V509.333V508.861C609.537 509.657 608.344 510.381 607.11 511.031C605.343 511.958 603.522 512.777 601.658 513.484C597.615 515.182 593.197 516.598 588.59 518.013C583.984 519.428 579.189 520.655 574.301 521.881L559.636 525.183C549.671 527.165 539.612 529.052 529.459 530.75L514.229 533.109L506.521 534.241L502.76 534.807L499 535.279L502.008 570H506.145L509.999 569.811L518.084 569.151L534.065 567.736C544.782 566.603 555.499 565.282 566.216 563.584C577.224 562.011 588.143 559.87 598.931 557.168C604.658 555.812 610.307 554.142 615.853 552.168C618.799 551.161 621.932 549.935 625.254 548.488C628.775 546.845 632.141 544.887 635.313 542.638C637.42 541.175 639.373 539.5 641.141 537.638C641.705 537.166 642.175 536.506 642.739 535.939C643.303 535.373 643.773 534.713 644.244 533.958L644.902 533.109L645.466 532.26L647.91 528.769L650.26 525.183C651.858 522.73 653.268 520.372 654.773 517.918C656.277 515.465 656.277 515.465 656.935 514.239C657.593 513.012 658.439 511.786 659.097 510.559L661.165 506.785L663.139 503.011C664.549 500.558 665.772 498.01 667.088 495.463C669.532 490.368 671.882 485.179 674.044 479.895C678.41 469.212 682.145 458.279 685.231 447.156C686.829 441.683 688.24 436.116 689.462 430.55C690.12 427.719 690.684 424.889 691.248 422.058C691.812 419.228 691.248 419.133 692 417.624V415.359V414.133V412.623L648.192 408Z" fill="#FFA48F"/>
<path d="M623.468 521.905C623.847 522.032 624.258 522.032 624.638 521.905C624.871 521.651 625 521.318 625 520.973C625 520.627 624.871 520.294 624.638 520.04C620.771 515.878 616.634 511.977 612.255 508.365C612.003 508.13 611.672 508 611.329 508C610.985 508 610.654 508.13 610.402 508.365C610.275 508.484 610.174 508.628 610.105 508.789C610.036 508.949 610 509.122 610 509.297C610 509.472 610.036 509.645 610.105 509.805C610.174 509.965 610.275 510.11 610.402 510.229C614.708 513.644 618.72 517.418 622.395 521.512C622.535 521.652 622.703 521.759 622.889 521.827C623.074 521.894 623.271 521.921 623.468 521.905Z" fill="#FF9E00"/>
<path d="M620.457 511.977C620.783 512.04 621.119 511.972 621.4 511.788C621.681 511.605 621.886 511.317 621.976 510.983C622.039 510.629 621.978 510.263 621.803 509.952C621.629 509.642 621.353 509.408 621.027 509.294C621.027 509.294 616.092 507.902 611.536 507.008C611.201 506.972 610.863 507.062 610.585 507.262C610.307 507.463 610.106 507.76 610.018 508.101C609.962 508.456 610.039 508.82 610.234 509.116C610.428 509.413 610.725 509.619 611.062 509.691C615.143 510.486 619.983 511.878 620.552 511.878L620.457 511.977Z" fill="#FF9E00"/>
<path d="M521.884 571.996C522.041 571.984 522.195 571.938 522.336 571.861C522.478 571.784 522.604 571.677 522.707 571.546C522.811 571.416 522.889 571.264 522.939 571.1C522.989 570.936 523.008 570.763 522.997 570.591L519.401 530.139C519.391 529.97 519.349 529.805 519.277 529.655C519.205 529.505 519.106 529.373 518.985 529.267C518.864 529.161 518.725 529.084 518.575 529.041C518.425 528.997 518.269 528.989 518.116 529.015C517.959 529.027 517.805 529.073 517.664 529.15C517.522 529.227 517.396 529.334 517.293 529.464C517.189 529.595 517.111 529.746 517.061 529.91C517.011 530.074 516.992 530.247 517.003 530.419L520.599 570.872C520.642 571.203 520.799 571.504 521.038 571.713C521.276 571.922 521.579 572.023 521.884 571.996Z" fill="#FF9E00"/>
<path d="M501.487 563L520.824 560.707C520.999 560.696 521.169 560.647 521.324 560.563C521.479 560.48 521.615 560.364 521.725 560.224C521.834 560.083 521.913 559.92 521.958 559.746C522.003 559.572 522.012 559.39 521.985 559.212C521.973 559.032 521.926 558.857 521.845 558.697C521.764 558.537 521.652 558.397 521.516 558.284C521.379 558.171 521.221 558.089 521.052 558.043C520.883 557.997 520.707 557.988 520.534 558.016L501.197 560.309C501.017 560.303 500.838 560.34 500.674 560.418C500.511 560.496 500.367 560.612 500.254 560.757C500.142 560.902 500.063 561.072 500.026 561.254C499.988 561.436 499.992 561.624 500.037 561.804C500.037 562.402 500.907 562.801 501.487 563Z" fill="#FF9E00"/>
<path d="M507.239 549.861C507.084 550.224 507.002 550.614 507 551.008C506.998 551.403 507.074 551.794 507.226 552.159C507.377 552.523 507.599 552.854 507.88 553.131C508.161 553.408 508.494 553.626 508.861 553.772C509.595 554.076 510.419 554.076 511.153 553.772C511.886 553.468 512.469 552.884 512.772 552.151C513.076 551.417 513.076 550.592 512.772 549.859C512.468 549.125 511.884 548.543 511.151 548.239C510.788 548.084 510.398 548.002 510.003 548C509.609 547.998 509.217 548.074 508.853 548.226C508.488 548.377 508.158 548.599 507.881 548.88C507.604 549.161 507.385 549.494 507.239 549.861Z" fill="#FF9E00"/>
<path d="M509 770.894L501.866 790L475 786.235L480.559 766L509 770.894Z" fill="#FFA48F"/>
<path d="M403.705 820.158L502.762 834C503.788 832.337 504.491 830.49 504.832 828.559C506.074 818.234 506.326 807.811 505.585 797.437V794.86C505.519 793.683 505.519 792.504 505.585 791.328C505.811 790.522 505.844 789.673 505.681 788.852C505.519 788.031 505.165 787.261 504.649 786.607C504.134 785.953 503.471 785.434 502.718 785.092C501.964 784.751 501.141 784.598 500.317 784.645C488.934 793.237 479.621 776.626 472.095 780.636C472.095 780.636 468.991 782.259 460.148 788.368C449.211 794.16 437.477 798.247 425.341 800.492C409.819 804.693 404.739 810.039 403.328 814.525C402.785 816.388 402.919 818.387 403.705 820.158Z" fill="#1F141D"/>
<path d="M403.48 820.225L502.922 834C503.952 832.345 504.657 830.507 505 828.585L403.386 815C402.841 816.704 402.874 818.542 403.48 820.225Z" fill="#4F3F4B"/>
<path d="M470 784.626C470 784.626 468.857 780.288 464.667 781.102C460.476 781.915 460 788.15 460 788.15C460 788.15 461.524 794.114 470 784.626Z" fill="white"/>
<path d="M468.824 804.973C469.045 805.014 469.273 805.008 469.493 804.957C469.712 804.905 469.917 804.809 470.094 804.674C470.272 804.54 470.417 804.37 470.52 804.176C470.622 803.983 470.681 803.77 470.691 803.553C471.205 800.618 471.077 797.611 470.315 794.726C469.554 791.841 468.175 789.141 466.268 786.799C466.13 786.587 465.945 786.406 465.726 786.271C465.508 786.135 465.261 786.048 465.003 786.015C464.746 785.982 464.483 786.004 464.236 786.079C463.988 786.155 463.76 786.282 463.569 786.452C463.378 786.622 463.228 786.83 463.13 787.062C463.032 787.294 462.989 787.544 463.002 787.794C463.016 788.044 463.087 788.288 463.21 788.508C463.332 788.729 463.504 788.921 463.713 789.07C465.249 790.985 466.364 793.181 466.989 795.525C467.615 797.868 467.737 800.31 467.349 802.701C467.236 802.943 467.186 803.207 467.204 803.472C467.223 803.736 467.309 803.992 467.455 804.217C467.601 804.442 467.802 804.629 468.041 804.76C468.279 804.892 468.548 804.965 468.824 804.973Z" fill="white"/>
<path d="M450.25 788.899C450.61 789.034 451.008 789.034 451.368 788.899C455.167 787.767 459.215 787.767 463.014 788.899C463.228 788.953 463.452 788.962 463.671 788.924C463.889 788.887 464.097 788.805 464.282 788.682C464.466 788.56 464.623 788.4 464.741 788.214C464.86 788.027 464.938 787.818 464.97 787.6C465.053 787.17 464.962 786.725 464.718 786.36C464.474 785.996 464.096 785.742 463.666 785.652C458.959 784.535 454.024 784.859 449.505 786.58C449.346 786.719 449.219 786.89 449.132 787.082C449.045 787.274 449 787.482 449 787.693C449 787.903 449.045 788.111 449.132 788.303C449.219 788.495 449.346 788.666 449.505 788.806C449.739 788.909 449.998 788.941 450.25 788.899Z" fill="white"/>
<path d="M465.598 786.01L464.846 784.991L464 783.137L465.034 782.395L467.289 780.912H467.853C470.54 779.274 473.452 778.025 476.499 777.204C478.053 776.932 479.643 776.932 481.198 777.204C482.158 777.317 483.083 777.632 483.91 778.128C484.737 778.624 485.446 779.289 485.99 780.078C486.533 780.803 486.87 781.656 486.97 782.552C487.069 783.448 486.925 784.353 486.554 785.176C486.264 785.728 485.883 786.23 485.427 786.659C482.663 788.982 479.088 790.146 475.465 789.904C473.055 790.032 470.639 790.032 468.229 789.904H467.477L464.376 789.255L465.598 786.01Z" fill="white"/>
<path d="M461.982 788L464.073 784.998C462.463 784.049 461.128 782.738 460.19 781.182C459.251 779.626 458.738 777.875 458.697 776.085C458.697 775.523 458.697 774.866 460.887 774.584C461.233 774.485 461.601 774.476 461.952 774.559C462.303 774.641 462.623 774.812 462.878 775.053C464.375 777.701 464.765 780.78 463.974 783.684L467.757 784.247C467.757 783.403 469.051 775.898 465.666 772.614C464.989 771.969 464.152 771.494 463.23 771.232C462.309 770.97 461.332 770.929 460.389 771.113C459.122 771.149 457.903 771.585 456.929 772.35C455.954 773.115 455.28 774.166 455.013 775.335C454.902 777.835 455.487 780.319 456.71 782.541C457.932 784.763 459.75 786.645 461.982 788Z" fill="white"/>
<path d="M492.03 832H494.944C491.787 827.145 490.673 821.256 491.842 815.597C492.595 811.749 494.156 808.101 496.423 804.89C498.689 801.679 501.612 798.976 505 796.957V795C501.073 797.101 497.652 800.022 494.975 803.562C492.298 807.102 490.427 811.177 489.493 815.504C488.334 821.127 489.234 826.975 492.03 832Z" fill="#4F3F4B"/>
<path d="M461.173 794.992C461.532 795.028 461.893 794.942 462.205 794.747C462.518 794.553 462.766 794.258 462.917 793.905C463.046 793.471 463.024 793 462.855 792.582C462.687 792.163 462.382 791.826 461.999 791.631L456.217 789.16C456.025 789.063 455.817 789.009 455.605 789.001C455.393 788.993 455.181 789.032 454.984 789.116C454.786 789.199 454.607 789.325 454.456 789.485C454.305 789.646 454.186 789.838 454.106 790.05C453.955 790.483 453.966 790.963 454.137 791.387C454.308 791.811 454.627 792.147 455.024 792.323L460.806 794.893L461.173 794.992Z" fill="white"/>
<path d="M454.179 796.993C454.537 797.023 454.896 796.952 455.208 796.789C455.519 796.627 455.767 796.382 455.917 796.087C456.046 795.725 456.024 795.333 455.856 794.985C455.688 794.636 455.384 794.355 455.002 794.193L449.239 792.133C449.048 792.052 448.84 792.007 448.628 792.001C448.417 791.994 448.207 792.027 448.01 792.096C447.813 792.166 447.633 792.271 447.483 792.404C447.333 792.538 447.214 792.698 447.135 792.875C447.047 793.052 447.001 793.244 447 793.439C446.999 793.633 447.043 793.825 447.129 794.003C447.215 794.182 447.341 794.342 447.5 794.474C447.658 794.606 447.846 794.706 448.05 794.769L453.813 796.911L454.179 796.993Z" fill="white"/>
<path d="M447.926 799.985C448.325 800.036 448.731 799.957 449.079 799.758C449.428 799.559 449.7 799.253 449.853 798.886C449.949 798.678 450 798.452 450 798.223C450 797.994 449.951 797.767 449.855 797.559C449.758 797.351 449.618 797.165 449.443 797.015C449.267 796.865 449.061 796.753 448.839 796.688L442.45 794.091C442.004 793.95 441.522 793.974 441.093 794.157C440.663 794.341 440.317 794.673 440.117 795.09C439.95 795.528 439.962 796.012 440.151 796.441C440.341 796.87 440.692 797.21 441.132 797.387L447.52 799.885L447.926 799.985Z" fill="white"/>
<path d="M440.271 801.977C440.609 802.041 440.956 801.969 441.248 801.772C441.541 801.576 441.758 801.27 441.86 800.91C441.946 800.715 441.993 800.501 441.999 800.284C442.005 800.067 441.97 799.851 441.895 799.649C441.82 799.448 441.707 799.267 441.565 799.116C441.422 798.966 441.252 798.85 441.066 798.777L435.416 796.255C435.218 796.123 434.996 796.039 434.766 796.011C434.536 795.983 434.303 796.01 434.083 796.091C433.863 796.172 433.662 796.305 433.495 796.48C433.327 796.655 433.195 796.869 433.111 797.106C433.026 797.343 432.989 797.597 433.003 797.851C433.017 798.105 433.081 798.353 433.192 798.577C433.302 798.801 433.455 798.995 433.641 799.147C433.827 799.299 434.041 799.404 434.268 799.456L439.918 801.88L440.271 801.977Z" fill="white"/>
<path d="M432.959 803.992C433.356 804.027 433.754 803.942 434.098 803.749C434.443 803.556 434.717 803.264 434.883 802.914C435.05 802.484 435.038 802.008 434.849 801.587C434.66 801.166 434.309 800.833 433.87 800.658L427.391 798.109C427.179 798.031 426.952 797.994 426.725 798.001C426.497 798.008 426.274 798.058 426.066 798.149C425.859 798.241 425.673 798.371 425.518 798.532C425.363 798.693 425.243 798.883 425.164 799.09C425.064 799.295 425.009 799.517 425.001 799.744C424.993 799.97 425.033 800.196 425.118 800.407C425.204 800.618 425.332 800.81 425.497 800.972C425.661 801.133 425.858 801.26 426.075 801.345L432.554 803.796L432.959 803.992Z" fill="white"/>
<path d="M406 759.152L395.517 772L372 757.755L382.483 745L406 759.152Z" fill="#FFA48F"/>
<path d="M293 760.653L377.457 813C379.049 811.922 380.419 810.545 381.492 808.944C386.712 799.957 391.049 790.481 394.442 780.649C394.818 779.705 395.193 778.857 395.568 778.102C396.131 776.782 396.694 775.744 397.07 774.989C397.487 774.397 397.773 773.722 397.909 773.009C398.045 772.297 398.028 771.563 397.86 770.857C397.691 770.152 397.374 769.491 396.93 768.918C396.486 768.346 395.926 767.875 395.287 767.538C381.492 770.745 379.428 751.976 371.264 752.636C371.264 752.636 367.698 752.636 357.187 754.9C344.875 755.795 332.499 754.776 320.495 751.881C304.636 749.429 297.88 752.542 294.971 755.748C293.781 757.112 293.086 758.841 293 760.653Z" fill="#1F141D"/>
<path d="M293.008 760.229L377.942 813C379.543 811.913 380.921 810.525 382 808.911L294.613 755C293.49 756.502 292.923 758.351 293.008 760.229Z" fill="#4F3F4B"/>
<path d="M367.95 755.574C367.95 755.574 368.652 750.937 364.793 750.086C360.934 749.234 358.04 755.006 358.04 755.006C358.04 755.006 356.812 761.346 367.95 755.574Z" fill="white"/>
<path d="M358.78 772.777C359.138 772.994 359.559 773.056 359.957 772.948C360.355 772.841 360.7 772.573 360.921 772.199C362.387 769.688 363.357 766.878 363.772 763.944C364.186 761.009 364.035 758.014 363.33 755.146C363.265 754.937 363.163 754.744 363.03 754.578C362.896 754.412 362.734 754.275 362.552 754.177C362.369 754.079 362.171 754.02 361.968 754.004C361.765 753.989 361.56 754.016 361.367 754.086C361.174 754.156 360.995 754.266 360.841 754.41C360.687 754.554 360.561 754.73 360.47 754.926C360.379 755.123 360.325 755.337 360.31 755.557C360.296 755.776 360.322 755.997 360.386 756.206C360.941 758.599 361.038 761.09 360.67 763.526C360.301 765.961 359.476 768.29 358.245 770.368C358.132 770.564 358.056 770.782 358.021 771.009C357.987 771.237 357.994 771.47 358.044 771.694C358.094 771.919 358.185 772.13 358.311 772.316C358.438 772.502 358.597 772.659 358.78 772.777Z" fill="white"/>
<path d="M347.446 750.954C347.825 751.106 348.248 751.106 348.627 750.954C352.828 751.375 356.822 752.969 360.148 755.552C360.473 755.84 360.894 756 361.33 756C361.766 756 362.187 755.84 362.512 755.552C362.824 755.24 363 754.818 363 754.378C363 753.938 362.824 753.515 362.512 753.204C361.625 752.617 353.649 747.138 348.43 748.117C348.203 748.138 347.982 748.208 347.784 748.322C347.586 748.436 347.416 748.591 347.285 748.778C347.154 748.964 347.065 749.176 347.025 749.4C346.984 749.624 346.994 749.853 347.052 750.073C347.107 750.395 347.243 750.697 347.446 750.954Z" fill="white"/>
<path d="M363.306 753.679V754.891L361 757.407C361.795 758.089 362.662 758.683 363.583 759.177H364.137C366.222 760.396 368.379 761.485 370.595 762.439C372.155 763.273 373.864 763.786 375.622 763.946C377.381 764.106 379.153 763.91 380.836 763.371C381.4 763.137 381.928 762.824 382.404 762.439C383.045 761.81 383.517 761.027 383.776 760.162C384.034 759.298 384.07 758.382 383.88 757.5C383.678 756.557 383.288 755.665 382.732 754.88C382.177 754.095 381.469 753.433 380.651 752.934C379.298 752.105 377.791 751.565 376.223 751.35C373.165 750.883 370.055 750.883 366.997 751.35H366.351L363.676 751.816H362.476L363.306 753.679ZM365.797 756.382L364.783 755.729H368.196C370.191 755.539 372.198 755.539 374.193 755.729C375.206 755.632 376.225 755.632 377.238 755.729C377.984 755.895 378.7 756.178 379.359 756.568C380.192 757.097 380.787 757.933 381.02 758.898C381.114 759.118 381.162 759.356 381.162 759.597C381.162 759.837 381.114 760.075 381.02 760.295C379.765 761.028 378.284 761.261 376.868 760.948C375.453 760.798 374.077 760.388 372.809 759.736C370.392 758.798 368.048 757.676 365.797 756.382Z" fill="white"/>
<path d="M358.594 755L361.815 752.958C360.758 751.428 360.104 749.671 359.911 747.841C359.718 746.011 359.991 744.163 360.708 742.459C360.708 742.459 361.714 741.486 363.325 741.875C363.698 741.928 364.051 742.072 364.35 742.293C364.65 742.514 364.886 742.805 365.036 743.139C365.222 746.214 364.258 749.25 362.318 751.694L365.539 753.736C366.043 752.958 370.371 746.347 368.559 741.875C368.229 740.988 367.665 740.2 366.924 739.586C366.183 738.972 365.29 738.555 364.331 738.375C363.143 737.93 361.836 737.879 360.614 738.232C359.393 738.584 358.328 739.318 357.587 740.32C356.392 742.633 355.856 745.212 356.033 747.791C356.21 750.371 357.094 752.859 358.594 755Z" fill="white"/>
<path d="M369.117 807.436L371.664 809C371.154 806.206 371.225 803.34 371.874 800.574C372.522 797.807 373.734 795.196 375.437 792.896C377.694 789.789 380.586 787.172 383.93 785.208C387.274 783.244 390.998 781.976 394.868 781.485C395.245 780.564 395.623 779.736 396 779C391.533 779.352 387.2 780.655 383.305 782.817C379.41 784.979 376.048 787.948 373.456 791.515C370.085 796.136 368.544 801.792 369.117 807.436Z" fill="#4F3F4B"/>
<path d="M355.451 760.633C355.755 760.871 356.129 761 356.513 761C356.898 761 357.272 760.871 357.576 760.633C357.85 760.286 358 759.855 358 759.411C358 758.966 357.85 758.535 357.576 758.188L352.939 753.494C352.614 753.177 352.182 753 351.731 753C351.28 753 350.848 753.177 350.523 753.494C350.359 753.641 350.227 753.821 350.137 754.023C350.047 754.226 350 754.445 350 754.667C350 754.889 350.047 755.109 350.137 755.311C350.227 755.513 350.359 755.694 350.523 755.841L355.161 760.633H355.451Z" fill="white"/>
<path d="M348.334 760.672C348.655 760.886 349.032 761 349.418 761C349.803 761 350.18 760.886 350.502 760.672C350.822 760.338 351 759.892 351 759.428C351 758.964 350.822 758.518 350.502 758.184L345.77 753.309C345.429 753.075 345.017 752.969 344.607 753.008C344.196 753.047 343.812 753.23 343.52 753.525C343.228 753.819 343.047 754.207 343.008 754.622C342.969 755.036 343.074 755.452 343.306 755.796L348.038 760.573L348.334 760.672Z" fill="white"/>
<path d="M341.334 759.713C341.655 759.9 342.032 760 342.418 760C342.803 760 343.18 759.9 343.502 759.713C343.822 759.421 344 759.031 344 758.625C344 758.219 343.822 757.828 343.502 757.536L338.77 753.27C338.429 753.066 338.017 752.973 337.607 753.007C337.196 753.042 336.811 753.201 336.52 753.459C336.228 753.717 336.047 754.056 336.008 754.419C335.969 754.782 336.074 755.145 336.306 755.447L341.038 759.626L341.334 759.713Z" fill="white"/>
<path d="M333.8 759.646C334.053 759.875 334.365 760 334.687 760C335.008 760 335.321 759.875 335.574 759.646C335.847 759.318 336 758.881 336 758.425C336 757.97 335.847 757.533 335.574 757.205L331.519 752.52C331.386 752.36 331.227 752.231 331.051 752.142C330.875 752.053 330.686 752.005 330.493 752C330.301 751.996 330.11 752.035 329.931 752.116C329.752 752.197 329.589 752.317 329.45 752.471C329.311 752.625 329.2 752.809 329.123 753.012C329.046 753.216 329.004 753.435 329 753.657C328.996 753.879 329.03 754.1 329.1 754.307C329.17 754.514 329.275 754.702 329.408 754.863L333.462 759.646H333.8Z" fill="white"/>
<path d="M326.407 757.679C326.709 757.887 327.08 758 327.462 758C327.843 758 328.214 757.887 328.516 757.679C328.827 757.392 329 757.008 329 756.609C329 756.21 328.827 755.827 328.516 755.54L323.915 751.432C323.594 751.155 323.164 751 322.717 751C322.27 751 321.841 751.155 321.519 751.432C321.356 751.56 321.225 751.719 321.136 751.896C321.046 752.073 321 752.265 321 752.459C321 752.653 321.046 752.845 321.136 753.022C321.225 753.199 321.356 753.357 321.519 753.486L326.12 757.679H326.407Z" fill="white"/>
<path d="M492.157 563.377C502.628 556.478 649.31 548.351 692.89 570.182C696.192 581.334 624.124 610.725 603.089 631.328C569.26 629.453 535.363 633.482 502.911 643.236C488.57 664.65 472.814 685.078 455.746 704.381C437.896 724.028 421.082 744.596 405.374 766L375 743.602C375 743.602 463.67 582.279 492.157 563.377Z" fill="#020113"/>
<path d="M417.541 747.993C417.827 748.022 418.115 747.958 418.361 747.811C418.607 747.664 418.798 747.442 418.905 747.177C419.012 746.913 419.029 746.622 418.953 746.348C418.878 746.073 418.714 745.831 418.486 745.657L387.187 724.347C386.942 724.124 386.621 724 386.288 724C385.955 724 385.635 724.124 385.39 724.347C385.267 724.461 385.169 724.599 385.102 724.751C385.035 724.904 385 725.069 385 725.235C385 725.402 385.035 725.567 385.102 725.719C385.169 725.872 385.267 726.009 385.39 726.123L416.879 747.432L417.541 747.993Z" fill="#9E001B"/>
<path d="M408.923 742.847C409.13 742.948 409.358 743 409.588 743C409.819 743 410.046 742.948 410.253 742.847C410.253 742.847 414.244 737.26 440.372 708.754C462.015 683.783 482.131 657.534 500.608 630.151C500.732 630.036 500.83 629.897 500.898 629.742C500.965 629.587 501 629.42 501 629.252C501 629.083 500.965 628.916 500.898 628.761C500.83 628.606 500.732 628.467 500.608 628.352C500.362 628.126 500.04 628 499.705 628C499.371 628 499.049 628.126 498.803 628.352C480.392 655.462 460.339 681.427 438.756 706.103C412.249 734.513 408.543 740.29 408.353 740.48C408.126 740.725 408 741.046 408 741.379C408 741.713 408.126 742.034 408.353 742.279L408.923 742.847Z" fill="#9E001B"/>
<path d="M743.703 568C743.703 568 770.821 682.769 638.712 664.587C579.107 656.538 552.742 641.766 552.742 641.766C552.742 641.766 541.16 693.942 533.91 715.532C526.659 737.123 511.122 775 511.122 775L476 767.993C476 767.993 493.138 603.51 525.058 591.389C556.979 579.269 608.957 575.765 680.614 582.677C680.614 582.772 732.309 571.03 743.703 568Z" fill="#020113"/>
<path d="M509.841 754.436C510.14 754.489 510.449 754.444 510.721 754.309C510.993 754.173 511.214 753.954 511.351 753.684C521.317 727.436 529.516 700.556 535.894 673.223C541.086 652.543 546.089 632.992 549.204 631.206C552.319 629.42 560.532 632.898 571.67 637.034C601.787 649.635 634.155 656.03 666.822 655.833C676.277 656.069 685.683 654.4 694.475 650.927C703.266 647.455 711.263 642.249 717.985 635.624C731.087 619.741 738.17 599.779 737.997 579.226C737.997 579.057 737.963 578.89 737.895 578.735C737.828 578.58 737.729 578.441 737.605 578.327C737.481 578.212 737.334 578.124 737.174 578.068C737.014 578.013 736.844 577.991 736.675 578.004C736.325 578.004 735.989 578.142 735.741 578.389C735.493 578.636 735.354 578.971 735.354 579.32C735.69 599.165 729.007 618.497 716.475 633.932C710.031 640.554 702.292 645.79 693.735 649.315C685.178 652.839 675.986 654.578 666.728 654.423C634.311 654.563 602.201 648.168 572.331 635.624C559.21 630.736 551.281 627.822 547.694 629.89C544.107 631.958 540.048 646.433 533.157 673.505C527.004 700.63 518.961 727.296 509.086 753.308C508.962 753.632 508.973 753.992 509.114 754.309C509.255 754.625 509.517 754.874 509.841 755V754.436Z" fill="#CE101D"/>
<path d="M478.135 748.772L517.753 756C518.065 755.959 518.356 755.81 518.578 755.577C518.801 755.344 518.943 755.04 518.982 754.713C519.038 754.359 518.961 753.997 518.767 753.701C518.573 753.406 518.277 753.201 517.942 753.129L478.229 746C477.903 746 477.591 746.136 477.36 746.377C477.129 746.618 477 746.946 477 747.287C477 747.628 477.129 747.956 477.36 748.197C477.591 748.439 477.903 748.574 478.229 748.574L478.135 748.772Z" fill="#CE101D"/>
<path d="M643.52 569.299L518.816 564.308C513.659 564.101 509.31 568.117 509.104 573.278C508.898 578.438 512.911 582.788 518.069 582.995L642.773 587.986C647.93 588.192 652.279 584.176 652.485 579.016C652.691 573.856 648.678 569.505 643.52 569.299Z" fill="#1F141D"/>
<path d="M492.849 581.814C490.224 581.704 487.712 580.722 485.708 579.025C483.703 577.329 482.322 575.013 481.783 572.444L459.275 471.623C458.927 470.22 458.909 468.755 459.222 467.344C459.535 465.933 460.17 464.613 461.078 463.488C461.986 462.363 463.143 461.463 464.457 460.858C465.771 460.254 467.207 459.962 468.653 460.004L532.425 462.628C534.512 462.681 536.522 463.429 538.136 464.753C539.75 466.077 540.876 467.901 541.334 469.936L569 585L492.849 581.814Z" fill="#1F141D"/>
<path d="M499.306 522.092C500.027 525.32 501.68 528.262 504.059 530.55C506.437 532.839 509.435 534.371 512.677 534.956C518.662 535.52 522.028 530.543 520.719 523.97C520.026 520.72 518.384 517.751 516.002 515.442C513.62 513.134 510.607 511.592 507.347 511.012C501.456 510.73 497.903 515.613 499.306 522.092Z" fill="#027BFE"/>
<path d="M511.214 521.454C511.214 522.825 512.069 524 512.582 524C513.096 524 513.181 523.021 512.582 521.65C511.984 520.279 511.727 519.104 511.299 519.006C510.872 518.908 510.957 520.083 511.214 521.454Z" fill="#1F141D"/>
<path d="M506.161 520.454C506.161 521.825 507.028 523 507.462 523C507.896 523 508.156 522.021 507.896 520.552C507.636 519.083 506.942 518.104 506.508 518.006C506.074 517.908 505.814 519.083 506.161 520.454Z" fill="#1F141D"/>
<path d="M511.447 529C516.018 529 515.925 524.582 515.925 524.582C515.974 524.486 516 524.38 516 524.273C516 524.166 515.974 524.06 515.925 523.963H515.458C515.458 523.963 515.458 528.028 511.634 527.763C507.809 527.498 506.037 523.345 505.943 523.257C505.85 523.168 505.943 522.726 505.29 523.257C504.637 523.787 505.29 523.257 505.29 523.787C505.825 525.045 506.659 526.17 507.726 527.074C508.794 527.978 510.067 528.637 511.447 529Z" fill="#1F141D"/>
<path d="M541.442 470.034L568.635 584H576L548.807 470.409C548.346 468.277 547.151 466.372 545.428 465.02C543.705 463.669 541.561 462.956 539.365 463.005H532C534.144 462.937 536.248 463.597 537.964 464.874C539.68 466.152 540.907 467.972 541.442 470.034Z" fill="#1F141D"/>
<path d="M566.963 577C566.725 576.987 566.497 576.898 566.312 576.746C566.127 576.593 565.996 576.385 565.936 576.151L541 469.728C541.065 469.517 541.196 469.333 541.372 469.202C541.548 469.071 541.762 469 541.981 469C542.2 469 542.413 469.071 542.589 469.202C542.766 469.333 542.896 469.517 542.961 469.728L567.991 575.679C568.026 575.964 567.961 576.252 567.807 576.493C567.654 576.735 567.421 576.914 567.15 577H566.963Z" fill="#4F3F4B"/>
<path d="M624.505 487.235C624.891 488.589 625.363 489.917 625.917 491.211C628.671 497.377 632.425 503.04 637.023 507.97L637.965 509.011C637.965 509.011 637.965 509.768 637.965 510.242C637.821 512.216 637.538 514.178 637.118 516.112C631.564 541.391 630.246 545.652 627.705 556.35C660.649 604.258 738.963 574.15 743.104 568.185C746.681 542.527 746.681 542.527 750.54 517.721C753.721 501.575 758.287 485.735 764.189 470.382C764.189 469.719 764.189 469.057 764.942 468.299C766.918 463.092 768.989 457.79 771.154 452.772C780.567 430.806 778.496 410.924 765.789 401.93C758.319 398.08 750.375 395.246 742.163 393.503L737.457 392.556C729.173 390.947 722.679 390 722.679 390H682.675C678.722 390.473 675.145 390.947 671.944 391.515C669.376 391.952 666.831 392.521 664.32 393.219C643.989 398.805 643.142 409.598 639.377 429.008C638.265 434.479 636.851 439.884 635.141 445.198L633.447 450.121C627.987 465.648 622.246 479.093 624.505 487.235Z" fill="#D4E9FF"/>
<path d="M683.516 389L682.084 402.847C681.795 405.392 682.252 407.965 683.402 410.271C684.552 412.577 686.349 414.525 688.588 415.891C690.828 417.258 693.419 417.989 696.067 418C698.715 418.011 701.313 417.303 703.565 415.955C715.308 409.124 725.905 399.708 726 390.754L683.516 389Z" fill="#FFA48F"/>
<path d="M638 509.25C638 509.25 638 510.045 638 510.542C647.332 512.605 656.968 512.605 666.3 510.542C679.914 508.072 693.921 510.339 706.202 517H706.768C706.959 516.985 707.143 516.923 707.307 516.82C707.471 516.716 707.609 516.574 707.712 516.404C707.897 516.185 708 515.902 708 515.609C708 515.316 707.897 515.033 707.712 514.814C695.004 507.779 680.433 505.402 666.3 508.058C656.981 510.247 647.319 510.247 638 508.058V509.25Z" fill="#FF9E00"/>
<path d="M674.45 455C687.858 455 715.531 435.824 716.672 434.865C716.776 434.766 716.858 434.647 716.915 434.516C716.971 434.384 717 434.242 717 434.098C717 433.954 716.971 433.812 716.915 433.68C716.858 433.548 716.776 433.429 716.672 433.331C716.574 433.226 716.456 433.143 716.325 433.086C716.195 433.029 716.054 433 715.911 433C715.769 433 715.628 433.029 715.497 433.086C715.366 433.143 715.248 433.226 715.15 433.331C715.15 433.331 686.622 453.082 674.165 452.507C661.707 451.932 659.235 438.988 659.235 438.892C659.285 438.72 659.296 438.539 659.265 438.362C659.234 438.186 659.162 438.019 659.056 437.876C658.95 437.732 658.812 437.615 658.653 437.535C658.494 437.455 658.319 437.413 658.141 437.413C657.963 437.413 657.788 437.455 657.629 437.535C657.47 437.615 657.332 437.732 657.226 437.876C657.12 438.019 657.049 438.186 657.018 438.362C656.986 438.539 656.997 438.72 657.048 438.892C657.722 443.162 659.809 447.076 662.968 450C666.127 452.925 670.173 454.686 674.45 455Z" fill="#FF9E00"/>
<path d="M630.618 537.985C630.923 538.031 631.234 537.972 631.503 537.818C631.772 537.664 631.983 537.424 632.103 537.135C635.165 527.127 638.878 509.471 638.971 508.81C639.026 508.559 639.002 508.295 638.902 508.058C638.802 507.821 638.631 507.621 638.414 507.489C631.835 502.052 627.282 494.489 625.513 486.056C625.446 485.721 625.253 485.426 624.976 485.233C624.7 485.039 624.36 484.962 624.028 485.018C623.71 485.106 623.432 485.306 623.245 485.582C623.058 485.859 622.974 486.194 623.007 486.528C624.757 495.35 629.444 503.286 636.279 508.999C635.537 512.587 632.381 527.222 629.69 535.813C629.597 536.152 629.631 536.513 629.786 536.827C629.94 537.141 630.203 537.385 630.525 537.513L630.618 537.985Z" fill="#FF9E00"/>
<path d="M677.053 283.504C673.441 282.221 669.585 281.75 665.765 282.125C661.945 282.501 658.258 283.715 654.973 285.677C650.774 287.921 647.407 291.43 645.362 295.693C643.316 299.957 642.699 304.753 643.598 309.387C644.459 317.039 638.246 314.111 637.099 326.202C635.952 338.293 645.223 334.515 643.407 345.095C641.591 355.675 637.768 367.483 645.893 373.434C654.017 379.386 649.525 388.832 651.341 398.467C651.341 401.207 661.951 392.516 683.744 391.949C692.156 391.949 689.193 383.731 683.744 374.379C678.296 365.027 676.48 313.071 681.068 304.192C685.656 295.312 677.053 283.504 677.053 283.504Z" fill="#1F141D"/>
<path d="M661.586 343.355C661.586 343.355 653.84 337.076 651.526 345.024C649.212 352.971 654.745 367.395 664 363.274L661.586 343.355Z" fill="#FF737F"/>
<path d="M682 377.815L684.584 397.059C684.584 397.059 698.609 416.303 725 390.706C719.454 381.825 716.57 371.507 716.695 361C714.821 362.169 713.06 363.514 711.436 365.017L709.221 366.418C701.1 372.223 691.799 376.117 682 377.815Z" fill="#FFA48F"/>
<path d="M682 377.638L683.293 387C694.507 382.668 704.165 374.999 711 365L708.783 366.404C700.775 372.092 691.632 375.927 682 377.638Z" fill="#1F141D"/>
<path d="M663.337 373.686C680.565 390.491 715.491 362.168 716.998 361.035C716.998 359.524 716.998 357.919 716.998 356.409C717.073 344.326 715.36 332.299 711.914 320.721C711.196 314.944 708.666 309.544 704.69 305.302C700.714 301.06 695.497 298.194 689.791 297.118C680.064 296.379 670.391 299.122 662.49 304.86C653.735 309.392 649.969 322.421 653.076 339.603C656.371 360.563 658.536 369.06 663.337 373.686Z" fill="#FFA48F"/>
<path d="M669 301.094C669 301.094 661.721 327.265 644.001 325.952C644.001 325.952 643.426 299.218 669 301.094Z" fill="#1F141D"/>
<path d="M665.097 293.271C665.097 293.271 662.924 311.241 679.173 313.029C695.422 314.816 700.901 318.391 701.751 327.236C702.602 336.08 711.671 333.257 716.678 333.822C721.685 334.386 713.277 345.676 715.639 356.873C718 368.069 710.537 373.243 711.576 382.464C712.616 391.684 739.918 391.872 753.71 397.329C767.503 402.786 743.13 373.432 748.703 363.741C757.017 349.44 733.683 344.924 739.256 332.598C741.904 327.775 742.535 322.108 741.014 316.824C739.494 311.54 735.943 307.066 731.132 304.373C722.913 298.257 724.235 288.66 713.56 281.228C706.286 276.241 698.539 276.429 684.18 277.935C679.76 278.086 675.509 279.664 672.067 282.429C668.626 285.195 666.179 289 665.097 293.271Z" fill="#1F141D"/>
<path d="M685.857 440C684.024 440.015 682.214 439.593 680.575 438.77C678.936 437.947 677.514 436.745 676.427 435.264C667.845 423.235 678.03 392.358 678.501 391.126C678.639 390.712 678.935 390.369 679.324 390.174C679.713 389.979 680.163 389.946 680.576 390.085C680.989 390.223 681.33 390.52 681.524 390.911C681.719 391.301 681.751 391.754 681.613 392.168C681.613 392.168 671.523 422.667 679.067 433.275C679.882 434.43 680.976 435.358 682.246 435.971C683.517 436.585 684.922 436.863 686.329 436.779C713.583 436.779 729.615 391.6 729.804 391.221C729.941 390.807 730.237 390.464 730.626 390.269C731.015 390.073 731.466 390.041 731.878 390.179C732.291 390.317 732.632 390.615 732.827 391.005C733.021 391.396 733.053 391.849 732.916 392.263C731.69 394.252 715.469 440 685.857 440Z" fill="white"/>
<path d="M694.899 295.565C694.899 295.565 676.06 269.62 700.645 259.525C704.671 257.577 709.14 256.732 713.598 257.074C718.057 257.417 722.345 258.934 726.028 261.474C729.711 264.013 732.658 267.483 734.569 271.532C736.48 275.581 737.287 280.064 736.909 284.527C734.46 298.018 716.846 305 716.846 305L694.899 295.565Z" fill="#1F141D"/>
<path d="M677.031 364.829C675.75 365.057 674.439 365.057 673.159 364.829C673.056 364.707 673 364.554 673 364.396C673 364.238 673.056 364.085 673.159 363.964C673.213 363.902 673.28 363.853 673.355 363.82C673.43 363.786 673.512 363.769 673.594 363.769C673.677 363.769 673.758 363.786 673.833 363.82C673.908 363.853 673.975 363.902 674.03 363.964C675.042 364.28 676.111 364.375 677.164 364.242C678.217 364.109 679.228 363.752 680.129 363.195C680.183 363.134 680.25 363.085 680.325 363.051C680.4 363.017 680.482 363 680.564 363C680.647 363 680.728 363.017 680.803 363.051C680.878 363.085 680.945 363.134 681 363.195C681 363.195 681 363.964 681 364.156C679.752 364.699 678.389 364.93 677.031 364.829Z" fill="#FF737F"/>
<path d="M664 353.657C664 353.657 673.821 352.31 686 350C685.845 352.629 684.792 355.131 683.011 357.103C681.23 359.076 678.823 360.404 676.179 360.874C673.607 361.261 670.979 360.75 668.753 359.43C666.527 358.111 664.845 356.068 664 353.657Z" fill="white"/>
<path d="M672.956 347.993C673.015 347.841 673.015 347.673 672.956 347.521C672.956 347.049 672.956 346.671 672.388 346.482L666.985 344.971L670.397 341.666C670.477 341.453 670.477 341.218 670.397 341.005L668.975 332.129C669.02 332.001 669.033 331.864 669.014 331.73C668.995 331.596 668.944 331.468 668.865 331.357C668.786 331.247 668.682 331.157 668.561 331.095C668.44 331.032 668.306 331 668.169 331C668.033 331 667.899 331.032 667.778 331.095C667.657 331.157 667.553 331.247 667.474 331.357C667.395 331.468 667.344 331.596 667.325 331.73C667.306 331.864 667.319 332.001 667.364 332.129L668.691 340.533L665.089 344.593C665.03 344.711 665 344.84 665 344.971C665 345.102 665.03 345.232 665.089 345.349C665.089 345.349 665.089 345.915 665.658 345.915L672.388 347.804C672.461 347.878 672.55 347.933 672.649 347.966C672.748 347.999 672.853 348.008 672.956 347.993Z" fill="black"/>
<path d="M676.2 319.064C676.2 319.064 672.685 320.001 674.541 322.907C676.396 325.813 682.742 321.22 688.893 326C689.284 326 689.284 318.22 676.2 319.064Z" fill="#1F141D"/>
<path d="M660.912 322C660.912 322 664.612 322 663.912 324.807C663.212 327.614 655.412 325.86 651.312 332C651.512 332 647.912 325.333 660.912 322Z" fill="#1F141D"/>
<path d="M682.018 342.943C682.018 344.719 685.621 345.45 689.495 344.719C693.37 343.987 696.253 341.793 695.982 340.017C695.712 338.241 692.379 337.509 688.504 338.345C684.63 339.181 681.747 341.271 682.018 342.943Z" fill="#FF737F"/>
<g opacity="0.8">
<path opacity="0.8" d="M652.579 351.089H654.371C658.427 350.428 661.446 348.54 661.163 346.936C660.88 345.332 657.39 344.671 653.333 345.332H651.824L652.579 351.089Z" fill="#FF737F"/>
</g>
<path d="M708 353C710.097 356.552 713.245 359.35 717 361C717 359.42 717 357.741 717 356.16C713.768 355.967 710.653 354.873 708 353Z" fill="#1F141D"/>
<path d="M710 336.881C710 336.881 716.508 323.489 724.412 331.62C730.92 338.411 724.412 360.316 713.161 355.246L710 336.881Z" fill="#FFA48F"/>
<path d="M713.464 351.684C713.674 351.636 713.858 351.509 713.981 351.327C714.104 351.146 714.156 350.923 714.128 350.703C713.947 347.955 714.464 345.206 715.628 342.728C716.792 340.251 718.562 338.132 720.762 336.581C720.916 336.388 721 336.145 721 335.895C721 335.644 720.916 335.402 720.762 335.208C720.583 335.073 720.367 335 720.146 335C719.924 335 719.708 335.073 719.53 335.208C717.042 336.942 715.041 339.323 713.726 342.112C712.412 344.901 711.831 348 712.043 351.095C712.039 351.23 712.066 351.363 712.12 351.485C712.174 351.608 712.255 351.715 712.355 351.8C712.456 351.886 712.574 351.946 712.7 351.977C712.827 352.007 712.958 352.008 713.085 351.978L713.464 351.684Z" fill="#1F141D"/>
<path d="M721.06 345C721.347 344.93 721.596 344.761 721.76 344.527C721.915 344.355 722 344.137 722 343.912C722 343.686 721.915 343.468 721.76 343.296C720.726 342.689 719.573 342.283 718.371 342.104C717.168 341.926 715.94 341.977 714.758 342.255C714.617 342.289 714.484 342.351 714.371 342.438C714.257 342.525 714.165 342.634 714.101 342.758C714.037 342.883 714.003 343.018 714 343.157C713.998 343.295 714.027 343.432 714.086 343.558C714.145 343.684 714.233 343.797 714.343 343.887C714.454 343.978 714.583 344.045 714.724 344.083C714.864 344.121 715.011 344.13 715.156 344.109C715.3 344.087 715.437 344.036 715.559 343.959C717.059 343.296 719.859 344.432 720.86 344.905L721.06 345Z" fill="#1F141D"/>
<path d="M679.133 335.379C679.133 337.562 680.528 339.175 681.595 338.985C682.662 338.795 683.236 336.803 682.908 334.62C682.58 332.438 681.431 330.825 680.364 331.015C679.297 331.205 678.723 333.197 679.133 335.379Z" fill="#1F141D"/>
<path d="M657.114 338.43C657.114 340.629 658.942 342.254 660.261 341.967C661.581 341.68 662.292 339.768 661.886 337.57C661.48 335.371 660.058 333.746 658.739 334.033C657.419 334.32 656.708 336.232 657.114 338.43Z" fill="#1F141D"/>
<path d="M678.811 345C677.104 344.993 675.456 344.37 674.171 343.246C672.886 342.123 672.05 340.574 671.816 338.884L671.039 333.932C670.899 332.993 671.138 332.036 671.703 331.272C672.267 330.508 673.111 329.998 674.051 329.854L694.162 327.039C695.102 326.9 696.059 327.138 696.824 327.702C697.589 328.266 698.099 329.11 698.242 330.049L698.922 335C699.062 335.92 699.013 336.859 698.779 337.76C698.545 338.661 698.132 339.506 697.562 340.243C696.438 341.756 694.763 342.768 692.899 343.058L679.491 344.903L678.811 345ZM694.648 328.689L674.536 331.602C674.063 331.674 673.637 331.927 673.347 332.308C673.057 332.688 672.926 333.166 672.982 333.641L673.662 338.592C673.758 339.304 673.997 339.989 674.365 340.606C674.732 341.223 675.22 341.76 675.8 342.184C676.898 342.875 678.207 343.151 679.491 342.961L692.51 341.019C693.222 340.923 693.908 340.684 694.525 340.317C695.143 339.95 695.68 339.463 696.105 338.884C696.526 338.319 696.829 337.676 696.996 336.992C697.163 336.308 697.19 335.598 697.076 334.903L696.396 329.951C696.274 329.584 696.04 329.265 695.726 329.039C695.412 328.812 695.035 328.69 694.648 328.689Z" fill="white"/>
<path d="M653.634 349C652.121 349.008 650.649 348.498 649.456 347.554C648.004 346.428 647.048 344.766 646.798 342.928L646.038 338.013C645.902 337.08 646.135 336.131 646.687 335.372C647.238 334.614 648.063 334.108 648.981 333.965L662.274 332.038C662.724 331.97 663.182 331.994 663.622 332.108C664.063 332.222 664.476 332.424 664.839 332.702C665.201 332.98 665.505 333.329 665.733 333.728C665.962 334.127 666.109 334.568 666.167 335.025L666.927 339.941C667.06 340.866 667.011 341.809 666.781 342.714C666.552 343.62 666.147 344.47 665.59 345.214C665.033 345.959 664.335 346.584 663.538 347.052C662.74 347.52 661.859 347.822 660.945 347.94L654.678 348.904L653.634 349ZM663.129 333.773L649.931 335.7C649.697 335.723 649.47 335.795 649.264 335.911C649.058 336.027 648.879 336.185 648.736 336.375C648.593 336.565 648.491 336.783 648.435 337.015C648.379 337.247 648.371 337.489 648.412 337.724L649.076 342.639C649.169 343.338 649.399 344.012 649.751 344.62C650.104 345.228 650.572 345.758 651.129 346.18C651.686 346.602 652.321 346.907 652.995 347.077C653.67 347.246 654.371 347.278 655.058 347.169L661.42 346.301C662.789 346.064 664.016 345.301 664.847 344.171C665.678 343.041 666.048 341.63 665.882 340.23L665.218 335.315C665.223 335.013 665.155 334.715 665.019 334.447C664.884 334.178 664.685 333.948 664.441 333.776C664.197 333.605 663.914 333.497 663.619 333.463C663.324 333.428 663.025 333.469 662.749 333.58L663.129 333.773Z" fill="white"/>
<path d="M664.847 335L664 333.625C665.169 332.759 666.505 332.22 667.897 332.055C669.289 331.889 670.696 332.101 672 332.673L671.435 334.471C670.386 333.93 669.232 333.695 668.081 333.787C666.929 333.88 665.817 334.297 664.847 335Z" fill="white"/>
<path d="M696.898 331.667C696.717 331.651 696.542 331.582 696.391 331.465C696.24 331.349 696.117 331.189 696.035 331.001C695.971 330.736 695.995 330.453 696.101 330.207C696.208 329.961 696.389 329.769 696.611 329.669C702.859 327.444 709.541 327.444 715.79 329.669C715.925 329.834 716 330.053 716 330.28C716 330.507 715.925 330.725 715.79 330.89C715.759 331.012 715.705 331.125 715.633 331.221C715.561 331.317 715.472 331.393 715.372 331.446C715.272 331.499 715.163 331.526 715.053 331.526C714.944 331.525 714.835 331.498 714.735 331.445C708.963 329.648 702.864 329.841 697.186 332L696.898 331.667Z" fill="white"/>
<path d="M605.824 559.168C605.824 559.168 580.579 547.818 569 553.682L573.556 572.598L588.171 579.407C592.632 581.488 593.012 589.905 610 590L605.824 559.168Z" fill="#FFA48F"/>
<path d="M779 450.339C779 444.304 778.433 438.364 777.866 432.329C777.866 429.312 777.109 426.295 776.637 422.9C776.164 419.506 776.637 419.789 775.88 418.28C775.124 416.772 775.88 416.677 775.88 415.829V414.603V413.943V413L732.205 423.843V424.975V426.578L732.772 429.878C732.772 432.141 733.434 434.498 733.718 436.855C734.285 441.57 734.568 446.284 734.757 451.093C735.133 460.546 734.659 470.013 733.339 479.38C733.339 481.738 732.678 484.001 732.205 486.358C731.732 488.715 731.354 490.884 730.787 493.147C730.22 495.41 729.653 497.673 728.991 499.936C728.329 502.199 727.667 504.367 726.911 506.536C726.155 508.705 725.304 510.873 724.453 512.948C723.602 515.022 722.657 517.191 721.711 519.265L718.592 525.394L716.89 528.317L715.283 529.543C713.644 530.538 711.938 531.42 710.178 532.183C705.966 534.162 701.642 535.894 697.227 537.369C687.773 540.575 678.32 543.309 667.826 545.855C657.333 548.401 647.501 550.569 637.102 552.644L621.504 555.661L613.657 557.075L609.781 557.735L606 558.395L610.254 593L614.414 592.529H618.573L626.798 591.586C632.281 591.02 637.764 590.266 643.247 589.511C654.213 588.003 665.179 586.305 676.24 584.137C687.495 582.081 698.634 579.437 709.611 576.216C715.45 574.548 721.193 572.565 726.816 570.276L728.707 569.427C731.279 568.34 733.775 567.08 736.175 565.656C737.939 564.689 739.644 563.619 741.28 562.45C743.27 561.001 745.165 559.426 746.952 557.735C748.03 556.668 749.041 555.534 749.978 554.341L751.585 552.267V551.701V551.135C752.436 549.815 753.286 548.589 754.043 547.175C754.799 545.761 756.879 542.46 758.202 540.009V539.066C759.715 536.332 761.038 533.597 762.362 530.768C763.685 527.94 764.82 525.111 765.954 522.188C770.313 510.724 773.481 498.844 775.408 486.735C777.659 474.73 778.861 462.552 779 450.339Z" fill="#FFA48F"/>
<path d="M759 540.195C757.654 542.595 756.212 544.904 754.769 547.212C753.327 549.52 753.135 549.797 752.269 551.089V551.643V552.197L750.635 554.228C749.682 555.396 748.654 556.506 747.558 557.552C745.739 559.207 743.812 560.749 741.788 562.168C740.124 563.313 738.39 564.361 736.596 565.307C734.154 566.702 731.616 567.936 729 569C729.385 541.211 748.712 539.179 759 540.195Z" fill="#FF9E00"/>
<path d="M729.427 540.873C729.604 540.957 729.798 541 729.994 541C730.189 541 730.383 540.957 730.56 540.873C730.697 540.768 730.808 540.633 730.884 540.479C730.96 540.325 731 540.155 731 539.983C731 539.811 730.96 539.642 730.884 539.487C730.808 539.333 730.697 539.198 730.56 539.093C725.778 534.451 720.636 530.189 715.182 526.348C714.938 526.124 714.618 526 714.286 526C713.953 526 713.633 526.124 713.389 526.348C713.266 526.462 713.168 526.6 713.101 526.753C713.035 526.906 713 527.072 713 527.239C713 527.405 713.035 527.571 713.101 527.724C713.168 527.877 713.266 528.015 713.389 528.129C718.794 532.034 723.931 536.292 728.767 540.873H729.427Z" fill="#FF9E00"/>
<path d="M726.525 531.977C726.832 532.04 727.148 531.972 727.413 531.788C727.677 531.604 727.871 531.317 727.955 530.982C728.04 530.639 728.004 530.273 727.855 529.959C727.705 529.644 727.453 529.405 727.15 529.291C727.15 529.291 720.539 527.102 715.446 526.008C715.13 525.972 714.813 526.062 714.551 526.263C714.289 526.463 714.1 526.761 714.017 527.102C713.964 527.457 714.037 527.822 714.22 528.119C714.403 528.415 714.683 528.622 715 528.694C719.914 529.788 726.346 531.878 726.436 531.878L726.525 531.977Z" fill="#FF9E00"/>
<path d="M632.102 555H632.856C660.88 548.649 688.212 539.563 714.46 527.875C715.591 525.238 741.316 461.38 737.641 435.668C737.695 435.472 737.703 435.267 737.664 435.067C737.625 434.868 737.541 434.681 737.418 434.519C737.295 434.358 737.136 434.227 736.954 434.137C736.772 434.047 736.572 434 736.369 434C736.166 434 735.965 434.047 735.784 434.137C735.602 434.227 735.443 434.358 735.32 434.519C735.197 434.681 735.112 434.868 735.074 435.067C735.035 435.267 735.043 435.472 735.097 435.668C738.583 459.685 714.366 520.434 712.199 526.179C686.322 537.378 659.482 546.205 632.008 552.551C631.835 552.582 631.67 552.651 631.525 552.752C631.38 552.852 631.259 552.983 631.169 553.135C631.08 553.288 631.024 553.457 631.006 553.633C630.988 553.808 631.009 553.985 631.066 554.152C631.138 554.379 631.274 554.58 631.458 554.73C631.642 554.881 631.866 554.975 632.102 555Z" fill="#020113"/>
<path d="M735.7 447.918C736.009 448.008 736.338 448.008 736.648 447.918C736.874 447.672 737 447.349 737 447.014C737 446.679 736.874 446.356 736.648 446.11L732.192 439.354C731.947 439.126 731.626 439 731.292 439C730.958 439 730.636 439.126 730.391 439.354C730.268 439.469 730.169 439.609 730.102 439.765C730.035 439.92 730 440.088 730 440.258C730 440.427 730.035 440.595 730.102 440.751C730.169 440.906 730.268 441.046 730.391 441.162L734.752 447.918C735.058 448.027 735.393 448.027 735.7 447.918Z" fill="#FF9E00"/>
<path d="M609.475 586.981L628.895 583.894C629.072 583.869 629.242 583.804 629.394 583.702C629.546 583.601 629.677 583.465 629.778 583.304C629.879 583.143 629.947 582.961 629.979 582.769C630.011 582.577 630.006 582.38 629.964 582.19C629.94 582.007 629.883 581.832 629.797 581.673C629.71 581.515 629.596 581.377 629.46 581.268C629.324 581.159 629.17 581.081 629.007 581.038C628.843 580.995 628.673 580.988 628.507 581.019L609.086 584.106C608.742 584.184 608.438 584.405 608.239 584.722C608.04 585.04 607.961 585.43 608.018 585.81C608.042 585.993 608.099 586.168 608.185 586.327C608.271 586.485 608.386 586.623 608.522 586.732C608.657 586.841 608.811 586.919 608.975 586.962C609.139 587.005 609.309 587.012 609.475 586.981Z" fill="#FF9E00"/>
<path d="M615.16 573.561C614.908 574.203 614.955 574.902 615.291 575.516C615.627 576.13 616.226 576.612 616.967 576.865C617.725 577.078 618.55 577.038 619.274 576.754C619.999 576.469 620.568 575.961 620.866 575.334C621.095 574.703 621.029 574.022 620.682 573.431C620.336 572.841 619.735 572.385 619.004 572.158C618.273 571.931 617.467 571.949 616.752 572.211C616.037 572.472 615.467 572.955 615.16 573.561Z" fill="#FF9E00"/>
<path d="M735.034 210.901H723.064C722.923 210.915 722.781 210.899 722.647 210.852C722.513 210.805 722.392 210.73 722.292 210.63C722.192 210.531 722.115 210.411 722.068 210.279C722.021 210.147 722.004 210.006 722.019 209.866V201.965C717.221 201.205 712.533 199.879 708.054 198.015C705.669 197.147 703.377 196.044 701.214 194.723C701.075 194.531 701 194.301 701 194.064C701 193.828 701.075 193.598 701.214 193.406L708.054 179.015C708.009 178.862 708.009 178.699 708.054 178.545C708.187 178.479 708.333 178.444 708.481 178.444C708.63 178.444 708.776 178.479 708.909 178.545C712.559 180.743 716.534 182.361 720.689 183.342C723.021 183.919 725.411 184.235 727.814 184.282C729.701 184.458 731.606 184.266 733.419 183.718C734.464 183.718 734.559 182.778 734.559 182.307C734.559 181.837 730.949 179.58 726.864 178.639H725.439C720.508 177.556 715.769 175.749 711.379 173.278C708.401 171.728 705.955 169.338 704.349 166.412C703.009 163.761 702.387 160.812 702.544 157.852C702.951 152.488 705.388 147.473 709.369 143.81C713.35 140.148 718.58 138.109 724.014 138.1V129.729C723.941 129.516 723.941 129.284 724.014 129.071C724.258 128.976 724.53 128.976 724.774 129.071H736.744C737.029 129.094 737.295 129.224 737.489 129.433C737.683 129.642 737.79 129.916 737.789 130.2V138.288C739.744 138.488 741.681 138.834 743.584 139.323C747.364 140.213 750.985 141.673 754.319 143.65C754.509 143.598 754.71 143.601 754.899 143.657C755.087 143.714 755.256 143.822 755.385 143.97C755.514 144.117 755.599 144.298 755.629 144.491C755.658 144.684 755.632 144.882 755.554 145.061L749.094 159.263C749.031 159.399 748.939 159.52 748.824 159.618C748.709 159.715 748.574 159.787 748.429 159.828C748.296 159.894 748.15 159.928 748.001 159.928C747.853 159.928 747.706 159.894 747.574 159.828L746.054 159.357C741.497 156.877 736.428 155.462 731.234 155.219H730.284C727.624 155.219 724.489 155.219 724.489 157.664C724.489 157.664 724.489 158.417 725.249 158.887C727.822 160.15 730.578 161.007 733.419 161.427C735.699 161.991 738.359 162.555 740.924 163.402C743.925 163.94 746.779 165.098 749.299 166.799C751.82 168.501 753.951 170.708 755.554 173.278C756.624 175.771 757.111 178.472 756.979 181.179C756.726 186.47 754.496 191.48 750.722 195.235C746.947 198.99 741.897 201.221 736.554 201.495V209.96C736.569 210.1 736.552 210.241 736.505 210.373C736.458 210.505 736.381 210.625 736.281 210.725C736.181 210.824 736.059 210.899 735.926 210.946C735.792 210.993 735.65 211.01 735.509 210.995L735.034 210.901ZM724.109 208.549H733.609V200.178C733.608 199.944 733.695 199.718 733.853 199.544C734.011 199.37 734.229 199.261 734.464 199.238C746.434 197.45 753.464 190.866 753.939 181.461C754.042 179.11 753.621 176.765 752.704 174.595C751.353 172.168 749.477 170.066 747.211 168.44C744.945 166.814 742.344 165.704 739.594 165.189C737.124 164.436 734.559 163.872 732.279 163.308C729.183 162.862 726.191 161.874 723.444 160.392C722.905 160.121 722.457 159.701 722.154 159.184C721.851 158.667 721.705 158.074 721.734 157.476C721.734 155.407 723.159 152.961 729.524 152.961H730.664C736.151 153.22 741.508 154.699 746.339 157.288L752.799 145.061C749.823 143.421 746.623 142.217 743.299 141.486C741.078 140.985 738.824 140.639 736.554 140.452C736.421 140.452 736.289 140.425 736.167 140.372C736.045 140.319 735.936 140.241 735.846 140.144C735.756 140.046 735.689 139.931 735.647 139.806C735.605 139.681 735.59 139.548 735.604 139.417V131.422H726.104V139.605C726.104 139.855 726.004 140.094 725.826 140.27C725.647 140.447 725.406 140.546 725.154 140.546C712.614 141.957 704.919 148.635 704.634 158.417C704.463 161.192 705.108 163.957 706.49 166.378C707.872 168.798 709.933 170.77 712.424 172.055C716.744 174.217 721.349 175.768 726.104 176.664H727.624C731.994 177.698 737.124 178.827 737.124 182.401C737.118 183.114 736.886 183.807 736.459 184.381C736.033 184.955 735.434 185.382 734.749 185.599C732.673 186.303 730.478 186.591 728.289 186.446C725.73 186.32 723.187 185.974 720.689 185.411C716.654 184.475 712.78 182.954 709.194 180.896L703.304 193.312C705.045 194.375 706.891 195.257 708.814 195.946C713.618 197.669 718.635 198.744 723.729 199.144C723.989 199.204 724.223 199.347 724.394 199.551C724.565 199.754 724.665 200.008 724.679 200.272L724.109 208.549Z" fill="#E5A892"/>
<path d="M389.045 467.824C388.937 466.842 389.023 465.846 389.299 464.903C389.574 463.96 390.031 463.09 390.641 462.351C391.251 461.611 391.999 461.02 392.837 460.615C393.674 460.209 394.582 460 395.5 460C396.418 460 397.326 460.209 398.163 460.615C399.001 461.02 399.749 461.611 400.359 462.351C400.969 463.09 401.426 463.96 401.701 464.903C401.977 465.846 402.063 466.842 401.955 467.824C401.768 469.526 401.007 471.094 399.817 472.233C398.628 473.371 397.091 474 395.5 474C393.909 474 392.372 473.371 391.183 472.233C389.993 471.094 389.232 469.526 389.045 467.824ZM391.122 467.824C391.122 468.766 391.381 469.687 391.867 470.47C392.353 471.254 393.044 471.864 393.852 472.225C394.661 472.585 395.55 472.68 396.408 472.496C397.266 472.312 398.054 471.858 398.673 471.192C399.292 470.526 399.713 469.677 399.884 468.753C400.054 467.829 399.967 466.871 399.632 466C399.297 465.13 398.73 464.386 398.003 463.862C397.275 463.339 396.42 463.06 395.545 463.06C394.372 463.06 393.247 463.562 392.417 464.455C391.588 465.348 391.122 466.56 391.122 467.824Z" fill="#E5A892"/>
<path d="M371.045 467.824C370.937 466.842 371.023 465.846 371.299 464.903C371.574 463.96 372.031 463.09 372.641 462.351C373.251 461.611 373.999 461.02 374.837 460.615C375.674 460.209 376.582 460 377.5 460C378.418 460 379.326 460.209 380.163 460.615C381.001 461.02 381.749 461.611 382.359 462.351C382.969 463.09 383.426 463.96 383.701 464.903C383.976 465.846 384.063 466.842 383.955 467.824C383.768 469.526 383.007 471.094 381.817 472.233C380.628 473.371 379.091 474 377.5 474C375.909 474 374.372 473.371 373.183 472.233C371.993 471.094 371.232 469.526 371.045 467.824ZM373.031 467.824C373.055 469.096 373.541 470.307 374.385 471.198C375.229 472.089 376.363 472.588 377.545 472.587C378.742 472.587 379.89 472.075 380.737 471.164C381.583 470.252 382.059 469.016 382.059 467.726C382.059 466.437 381.583 465.201 380.737 464.289C379.89 463.377 378.742 462.865 377.545 462.865C376.945 462.865 376.35 462.994 375.797 463.244C375.243 463.495 374.741 463.861 374.321 464.323C373.901 464.785 373.57 465.332 373.349 465.933C373.127 466.534 373.019 467.177 373.031 467.824Z" fill="#E5A892"/>
<path d="M404.597 583C402.319 582.982 400.086 583.611 398.182 584.809C396.278 586.006 394.789 587.718 393.904 589.726C393.018 591.734 392.777 593.949 393.209 596.089C393.642 598.229 394.729 600.197 396.334 601.745C397.938 603.293 399.987 604.35 402.22 604.782C404.454 605.214 406.771 605.001 408.878 604.172C410.985 603.342 412.787 601.932 414.055 600.121C415.323 598.31 416 596.18 416 594C416.012 592.56 415.727 591.132 415.16 589.798C414.593 588.464 413.755 587.25 412.695 586.228C411.634 585.205 410.373 584.393 408.983 583.839C407.594 583.286 406.103 583 404.597 583ZM404.597 602.856C402.65 602.854 400.747 602.293 399.136 601.247C397.524 600.201 396.277 598.716 395.556 596.986C394.835 595.255 394.673 593.357 395.09 591.537C395.507 589.718 396.485 588.059 397.897 586.776C399.309 585.493 401.091 584.644 403.012 584.338C404.934 584.033 406.907 584.285 408.677 585.063C410.447 585.841 411.933 587.108 412.943 588.701C413.952 590.294 414.44 592.14 414.343 594C414.218 596.391 413.136 598.644 411.322 600.293C409.507 601.941 407.1 602.859 404.597 602.856Z" fill="#E5A892"/>
<path d="M285.726 579.998H276.458C276.182 580.011 275.907 579.966 275.649 579.867C275.391 579.768 275.155 579.616 274.956 579.421C274.756 579.226 274.598 578.991 274.49 578.732C274.381 578.472 274.326 578.193 274.326 577.91V567.473H264.132C263.574 567.45 263.045 567.212 262.65 566.808C262.255 566.404 262.023 565.862 262 565.291V555.802C262 555.223 262.225 554.668 262.624 554.259C263.024 553.85 263.566 553.62 264.132 553.62H274.233V543.182C274.233 542.604 274.458 542.048 274.858 541.639C275.258 541.23 275.8 541 276.365 541H285.633C286.191 541.023 286.72 541.261 287.115 541.665C287.51 542.069 287.742 542.611 287.764 543.182V553.62H297.959C298.235 553.619 298.508 553.676 298.761 553.787C299.015 553.898 299.244 554.06 299.434 554.264C299.625 554.468 299.773 554.71 299.87 554.974C299.967 555.238 300.01 555.52 299.998 555.802V565.291C299.998 565.853 299.787 566.395 299.407 566.801C299.027 567.208 298.508 567.449 297.959 567.473H287.764V577.91C287.742 578.457 287.52 578.974 287.142 579.361C286.764 579.747 286.259 579.975 285.726 579.998ZM263.946 555.423V564.911H276.087V577.341H285.355V565.48H297.496V555.992H285.911V542.993H276.643V555.423H263.946Z" fill="#E5A892"/>
<path d="M637.796 158H622.204C622.15 158 622.098 157.842 622.06 157.561C622.022 157.279 622 156.898 622 156.5C622 156.102 622.022 155.721 622.06 155.439C622.098 155.158 622.15 155 622.204 155H637.796C637.85 155 637.902 155.158 637.94 155.439C637.978 155.721 638 156.102 638 156.5C638 156.898 637.978 157.279 637.94 157.561C637.902 157.842 637.85 158 637.796 158Z" fill="#D4E9FF"/>
<path d="M637.796 162H622.204C622.15 162 622.098 161.842 622.06 161.561C622.022 161.279 622 160.898 622 160.5C622 160.102 622.022 159.721 622.06 159.439C622.098 159.158 622.15 159 622.204 159H637.796C637.85 159 637.902 159.158 637.94 159.439C637.978 159.721 638 160.102 638 160.5C638 160.898 637.978 161.279 637.94 161.561C637.902 161.842 637.85 162 637.796 162Z" fill="#D4E9FF"/>
<path d="M637.796 165H622.204C622.15 165 622.098 164.895 622.06 164.707C622.022 164.52 622 164.265 622 164C622 163.735 622.022 163.48 622.06 163.293C622.098 163.105 622.15 163 622.204 163H637.796C637.85 163 637.902 163.105 637.94 163.293C637.978 163.48 638 163.735 638 164C638 164.265 637.978 164.52 637.94 164.707C637.902 164.895 637.85 165 637.796 165Z" fill="#D4E9FF"/>
</svg>
