<svg width="1920" height="1478" viewBox="0 0 1920 1478" fill="none" xmlns="http://www.w3.org/2000/svg">
<path opacity="0.8" d="M607.968 420.686C603.99 398.76 588.495 382.4 569.979 382.4C566.577 382.4 563.281 382.958 560.139 383.99C551.001 359.231 531.161 342.076 508.16 342.076C502.21 342.076 496.475 343.219 491.08 345.348C478.694 319.373 456.2 302.008 430.491 302.008C399.909 302.008 373.865 326.594 363.992 361.004C357.007 356.069 348.965 353.254 340.395 353.254C313.59 353.254 291.858 380.773 291.858 414.727C291.858 416.738 291.939 418.73 292.092 420.695H607.968V420.686Z" fill="white"/>
<path opacity="0.8" d="M546.496 101.331C549.892 82.6036 563.121 68.6383 578.936 68.6383C581.837 68.6383 584.658 69.1135 587.339 70.0001C595.147 48.8602 612.085 34.2095 631.732 34.2095C636.812 34.2095 641.705 35.1874 646.317 37.0062C656.893 14.8244 676.104 0 698.056 0C724.173 0 746.413 20.9936 754.842 50.3774C760.805 46.164 767.677 43.7603 774.99 43.7603C797.878 43.7603 816.435 67.2582 816.435 96.249C816.435 97.9672 816.368 99.6672 816.234 101.34H546.496V101.331Z" fill="white"/>
<path opacity="0.8" d="M851.529 390.123C853.441 379.595 860.874 371.744 869.764 371.744C871.396 371.744 872.98 372.009 874.49 372.511C878.876 360.63 888.401 352.395 899.444 352.395C902.299 352.395 905.053 352.944 907.64 353.967C913.582 341.501 924.385 333.166 936.724 333.166C951.404 333.166 963.904 344.965 968.643 361.48C971.999 359.113 975.856 357.76 979.967 357.76C992.835 357.76 1003.26 370.967 1003.26 387.263C1003.26 388.232 1003.22 389.182 1003.15 390.123H851.529Z" fill="white"/>
<path opacity="0.8" d="M1279.22 464.839C1282.2 448.415 1293.8 436.159 1307.67 436.159C1310.22 436.159 1312.69 436.57 1315.05 437.347C1321.89 418.803 1336.75 405.953 1353.99 405.953C1358.44 405.953 1362.74 406.812 1366.77 408.402C1376.05 388.953 1392.9 375.938 1412.16 375.938C1435.06 375.938 1454.57 394.346 1461.96 420.128C1467.2 416.436 1473.22 414.325 1479.64 414.325C1499.71 414.325 1515.99 434.934 1515.99 460.361C1515.99 461.869 1515.93 463.359 1515.81 464.83H1279.22V464.839Z" fill="white"/>
<path opacity="0.3" d="M1965.09 1083.65H1906.28V931.706H1873.44V999.357H1826.62V977.578V843.466H1749.94V986.012L1727 986.926V843.2H1700.24V781.953H1684.18V740.819H1621.49V781.953H1605.44V843.2H1578.67V921.059L1566.33 921.974L1562.62 691.306H1480.05V814.022L1450.99 814.936V623.144H1441.06V582.668H1353.89V623.144H1343.96V848.094H1325.6V801.015H1310.31V761.601H1288.14V646.578H1256.03V761.601H1233.85V801.015H1218.56V878.928L1199.45 878.8V779.254L1016.56 786.535L973.134 916.861H954.019V870.239H906.415V556.115H862.822V589.025H842.937V844.481H774.104V891.103H715.738V781.962L623.519 779.382V937.35L615.108 937.478H604.397V801.134H589.099V761.729H566.921V646.697H534.802V761.729H512.617V801.134H497.326V881.727H478.966V623.272H469.024V582.796H381.837V623.272H371.895V815.064L342.831 814.15V691.435H296.261L295.521 922.102L282.401 921.187V688.288H217.4V627.04H201.34V585.906H138.624V627.04H122.557V843.329H95.7932V987.054L72.8464 986.14V843.594L-3.85137 937.899V977.706V999.485H-55V1477.39L966.93 1477.32L1965.09 1477.26V1083.65Z" fill="#C5DDF9"/>
</svg>
