<svg width="109" height="98" viewBox="0 0 109 98" fill="none" xmlns="http://www.w3.org/2000/svg">
<path d="M25.1035 41.7143C30.8972 48.0874 43.0639 72.4207 46.5401 70.1033C55.8099 52.7223 77.8258 16.2222 101 9.26984" stroke="#00BC00" stroke-width="15" stroke-linecap="round" stroke-linejoin="round"/>
<mask id="path-2-inside-1" fill="white">
<path fill-rule="evenodd" clip-rule="evenodd" d="M78.3827 9.53983C70.293 3.5453 60.2791 0 49.4372 0C22.5594 0 0.770508 21.7888 0.770508 48.6667C0.770508 75.5446 22.5594 97.3335 49.4372 97.3335C76.3151 97.3335 98.104 75.5446 98.104 48.6667C98.104 41.9934 96.7608 35.6337 94.33 29.8433L88.5696 34.3237C90.2091 38.7955 91.104 43.6266 91.104 48.6667C91.104 71.6786 72.4492 90.3335 49.4372 90.3335C26.4253 90.3335 7.77051 71.6786 7.77051 48.6667C7.77051 25.6548 26.4253 7 49.4372 7C57.9878 7 65.9368 9.57559 72.5508 13.9933L78.3827 9.53983Z"/>
</mask>
<path fill-rule="evenodd" clip-rule="evenodd" d="M78.3827 9.53983C70.293 3.5453 60.2791 0 49.4372 0C22.5594 0 0.770508 21.7888 0.770508 48.6667C0.770508 75.5446 22.5594 97.3335 49.4372 97.3335C76.3151 97.3335 98.104 75.5446 98.104 48.6667C98.104 41.9934 96.7608 35.6337 94.33 29.8433L88.5696 34.3237C90.2091 38.7955 91.104 43.6266 91.104 48.6667C91.104 71.6786 72.4492 90.3335 49.4372 90.3335C26.4253 90.3335 7.77051 71.6786 7.77051 48.6667C7.77051 25.6548 26.4253 7 49.4372 7C57.9878 7 65.9368 9.57559 72.5508 13.9933L78.3827 9.53983Z" fill="#01BB03"/>
<path d="M78.3827 9.53983L90.521 25.4352L111.651 9.29945L90.29 -6.52927L78.3827 9.53983ZM94.33 29.8433L112.771 22.1019L102.663 -1.97542L82.0512 14.0563L94.33 29.8433ZM88.5696 34.3237L76.2908 18.5366L64.766 27.5003L69.7918 41.2083L88.5696 34.3237ZM72.5508 13.9933L61.4422 30.6246L73.3286 38.5639L84.6891 29.8886L72.5508 13.9933ZM90.29 -6.52927C78.8727 -14.9895 64.711 -20 49.4372 -20V20C55.8473 20 61.7132 22.0802 66.4754 25.6089L90.29 -6.52927ZM49.4372 -20C11.5137 -20 -19.2295 10.7431 -19.2295 48.6667H20.7705C20.7705 32.8345 33.605 20 49.4372 20V-20ZM-19.2295 48.6667C-19.2295 86.5903 11.5137 117.333 49.4372 117.333V77.3335C33.605 77.3335 20.7705 64.4989 20.7705 48.6667H-19.2295ZM49.4372 117.333C87.3608 117.333 118.104 86.5903 118.104 48.6667H78.104C78.104 64.4989 65.2695 77.3335 49.4372 77.3335V117.333ZM118.104 48.6667C118.104 39.2878 116.212 30.2996 112.771 22.1019L75.8891 37.5848C77.3092 40.9678 78.104 44.699 78.104 48.6667H118.104ZM100.848 50.1107L106.609 45.6304L82.0512 14.0563L76.2908 18.5366L100.848 50.1107ZM111.104 48.6667C111.104 41.2435 109.783 34.0838 107.347 27.4391L69.7918 41.2083C70.6347 43.5073 71.104 46.0098 71.104 48.6667H111.104ZM49.4372 110.333C83.4949 110.333 111.104 82.7243 111.104 48.6667H71.104C71.104 60.633 61.4035 70.3335 49.4372 70.3335V110.333ZM-12.2295 48.6667C-12.2295 82.7243 15.3797 110.333 49.4372 110.333V70.3335C37.471 70.3335 27.7705 60.633 27.7705 48.6667H-12.2295ZM49.4372 -13C15.3796 -13 -12.2295 14.6091 -12.2295 48.6667H27.7705C27.7705 36.7005 37.471 27 49.4372 27V-13ZM83.6594 -2.638C73.8594 -9.18372 62.0637 -13 49.4372 -13V27C53.912 27 58.0142 28.3349 61.4422 30.6246L83.6594 -2.638ZM66.2444 -6.35553L60.4125 -1.90208L84.6891 29.8886L90.521 25.4352L66.2444 -6.35553Z" fill="black" mask="url(#path-2-inside-1)"/>
</svg>
