<svg width="1058" height="140" viewBox="0 0 1058 140" fill="none" xmlns="http://www.w3.org/2000/svg">
<path d="M21.9088 44.9305V33.4825H41.8528V86.0425H29.0368V44.9305H21.9088Z" fill="#939393"/>
<path d="M1006.38 48.3145C1006.57 43.1785 1008.25 39.2185 1011.42 36.4345C1014.58 33.6505 1018.88 32.2585 1024.3 32.2585C1027.9 32.2585 1030.98 32.8825 1033.52 34.1305C1036.11 35.3785 1038.06 37.0825 1039.35 39.2425C1040.7 41.4025 1041.37 43.8265 1041.37 46.5145C1041.37 49.6825 1040.58 52.2745 1038.99 54.2905C1037.41 56.2585 1035.56 57.6025 1033.45 58.3225V58.6105C1036.18 59.5225 1038.34 61.0345 1039.93 63.1465C1041.51 65.2585 1042.3 67.9705 1042.3 71.2825C1042.3 74.2585 1041.61 76.8985 1040.22 79.2025C1038.87 81.4585 1036.88 83.2345 1034.24 84.5305C1031.65 85.8265 1028.55 86.4745 1024.95 86.4745C1019.19 86.4745 1014.58 85.0585 1011.13 82.2265C1007.72 79.3945 1005.92 75.1225 1005.73 69.4105H1017.68C1017.73 71.5225 1018.33 73.2025 1019.48 74.4505C1020.63 75.6505 1022.31 76.2505 1024.52 76.2505C1026.39 76.2505 1027.83 75.7225 1028.84 74.6665C1029.9 73.5625 1030.42 72.1225 1030.42 70.3465C1030.42 68.0425 1029.68 66.3865 1028.19 65.3785C1026.75 64.3225 1024.42 63.7945 1021.21 63.7945H1018.9V53.7865H1021.21C1023.66 53.7865 1025.62 53.3785 1027.11 52.5625C1028.65 51.6985 1029.42 50.1865 1029.42 48.0265C1029.42 46.2985 1028.94 44.9545 1027.98 43.9945C1027.02 43.0345 1025.7 42.5545 1024.02 42.5545C1022.19 42.5545 1020.82 43.1065 1019.91 44.2105C1019.05 45.3145 1018.54 46.6825 1018.4 48.3145H1006.38Z" fill="#939393"/>
<path d="M513.742 76.1785C515.374 74.8825 516.118 74.2825 515.974 74.3785C520.678 70.4905 524.374 67.2985 527.062 64.8025C529.798 62.3065 532.102 59.6905 533.974 56.9545C535.846 54.2185 536.782 51.5545 536.782 48.9625C536.782 46.9945 536.326 45.4585 535.414 44.3545C534.502 43.2505 533.134 42.6985 531.31 42.6985C529.486 42.6985 528.046 43.3945 526.99 44.7865C525.982 46.1305 525.478 48.0505 525.478 50.5465H513.598C513.694 46.4665 514.558 43.0585 516.19 40.3225C517.87 37.5865 520.054 35.5705 522.742 34.2745C525.478 32.9785 528.502 32.3305 531.814 32.3305C537.526 32.3305 541.822 33.7945 544.702 36.7225C547.63 39.6505 549.094 43.4665 549.094 48.1705C549.094 53.3065 547.342 58.0825 543.838 62.4985C540.334 66.8665 535.87 71.1385 530.446 75.3145H549.886V85.3225H513.742V76.1785Z" fill="#027BFE"/>
<path d="M25.2843 138.101L45.6088 136.208L43.7157 115.884L23.3912 117.777L25.2843 138.101ZM529.228 120.94L527.443 122.69C527.912 123.169 528.553 123.439 529.222 123.44C529.892 123.442 530.534 123.175 531.005 122.699L529.228 120.94ZM1038.23 137.657L1039.17 117.266L1018.77 116.327L1017.83 136.718L1038.23 137.657ZM36.4241 128.589C75.2149 81.8292 146.602 27.8529 233.915 11.82C321.049 -4.18019 424.368 17.5421 527.443 122.69L531.013 119.19C426.86 12.9408 321.895 -9.41898 233.012 6.90222C144.308 23.1907 71.9453 77.9393 32.5759 125.396L36.4241 128.589ZM531.005 122.699C573.079 80.1711 649.474 29.4144 739.081 15.4359C828.513 1.4848 931.308 24.1228 1026.65 128.677L1030.35 125.307C933.855 19.4952 829.375 -3.71009 738.311 10.4957C647.422 24.6741 570.099 76.0746 527.451 119.182L531.005 122.699Z" fill="#D6D6D6"/>
</svg>
