<svg width="41" height="41" viewBox="0 0 41 41" fill="none" xmlns="http://www.w3.org/2000/svg">
<g clip-path="url(#clip0)">
<path d="M2.64526 7.27441H11.9033V15.8712H2.64526V7.27441Z" fill="#020113"/>
<path d="M6.61289 12.8383L4.82275 11.0482L5.75786 10.1131L6.61289 10.9681L10.7744 6.80664L11.7095 7.74175L6.61289 12.8383Z" fill="#027BFE"/>
<path d="M39.1246 3.97646L31.8998 2.5315L28.9095 15.8206L14.5484 12.9481V0H4.35522L0 4.35522V18.5161H7.28743L5.41076 27.1507C4.58802 27.3015 3.9122 27.9169 3.70264 28.7529L3.36716 30.0939C3.32679 30.256 3.30645 30.4226 3.30645 30.5898C3.30645 31.5766 4.01004 32.4223 4.98002 32.6021L21.7021 35.699L21.943 34.3984L5.2209 31.3015C4.87766 31.2379 4.62903 30.9386 4.62903 30.5898C4.62903 30.5304 4.63646 30.4717 4.65099 30.4142L4.98616 29.0735C5.094 28.6444 5.5396 28.3661 5.96808 28.452L23.2853 31.9153L23.5452 30.6183L6.74109 27.2579L8.64101 18.5161H14.5484V14.2972L16.2894 14.6456L15.0385 19.0247L22.9521 20.6078L24.2033 16.2281L28.6192 17.1115L25.8061 29.6124L27.0964 29.903L32.1659 7.37139L33.6193 7.66231L28.4513 30.2718L29.741 30.5663L30.7823 26.008L32.441 26.3392L31.0965 32.2557L32.3861 32.5489L35.7455 17.7683L33.6273 13.5652L34.9173 7.92095L38.0626 8.54995C38.2134 8.5816 38.3674 8.59677 38.5202 8.59677H38.6671C39.9532 8.59677 41 7.54995 41 6.26385C41 5.15535 40.2112 4.19377 39.1246 3.97646ZM3.96774 2.25769V3.96774H2.25769L3.96774 2.25769ZM13.2258 17.1935H1.32258V5.29032H5.29032V1.32258H13.2258V17.1935ZM18.7092 18.4089L16.7034 18.0076L17.5904 14.9055L19.5959 15.3069L18.7092 18.4089ZM22.0157 19.0702L20.0098 18.6689L20.8968 15.5668L22.9023 15.9682L22.0157 19.0702ZM32.7352 25.0502L31.0787 24.719L32.1717 19.9378L33.8224 20.2678L32.7352 25.0502ZM34.3506 17.9401L34.1146 18.9779L32.4655 18.6479L33.1649 15.5878L34.3506 17.9401ZM38.6671 7.27419H38.5202C38.4533 7.27419 38.3871 7.26774 38.3219 7.2545L32.4562 6.08109L32.9057 4.0814L38.864 5.27321C39.3355 5.36782 39.6774 5.78435 39.6774 6.26385C39.6774 6.82053 39.2238 7.27419 38.6671 7.27419Z" fill="#027BFE"/>
<path d="M27.113 29.0967C23.8311 29.0967 21.1614 31.7664 21.1614 35.0483C21.1614 38.3302 23.8311 40.9999 27.113 40.9999C30.3949 40.9999 33.0646 38.3302 33.0646 35.0483C33.0646 31.7664 30.3949 29.0967 27.113 29.0967Z" fill="#020113"/>
<path d="M27.1129 38.3546C25.2898 38.3546 23.8064 36.8712 23.8064 35.0482C23.8064 33.2251 25.2898 31.7417 27.1129 31.7417C28.9359 31.7417 30.4193 33.2251 30.4193 35.0482C30.4193 36.8712 28.9359 38.3546 27.1129 38.3546ZM27.1129 33.0643C26.0192 33.0643 25.129 33.9545 25.129 35.0482C25.129 36.1418 26.0192 37.032 27.1129 37.032C28.2065 37.032 29.0967 36.1418 29.0967 35.0482C29.0967 33.9545 28.2065 33.0643 27.1129 33.0643Z" fill="#027BFE"/>
</g>
<defs>
<clipPath id="clip0">
<rect width="41" height="41" fill="white"/>
</clipPath>
</defs>
</svg>
