<svg width="83" height="59" viewBox="0 0 83 59" fill="none" xmlns="http://www.w3.org/2000/svg">
<path d="M51.6645 18.6696V24.9883H56.5713V28.4371H51.6645V44.6197C51.6645 45.6648 51.8831 46.4526 52.3203 46.9832C52.7576 47.4977 53.5025 47.755 54.5551 47.755C55.0733 47.755 55.7859 47.6585 56.6927 47.4656V51.0831C55.5106 51.4047 54.3608 51.5655 53.2434 51.5655C51.2353 51.5655 49.7212 50.9626 48.701 49.7567C47.6807 48.5508 47.1706 46.8385 47.1706 44.6197V28.4371H42.3853V24.9883H47.1706V18.6696H51.6645Z" fill="#101121"/>
<path d="M72.7492 51.5655C69.1865 51.5655 66.2877 50.4079 64.0529 48.0926C61.8182 45.7613 60.7008 42.6502 60.7008 38.7592V37.9393C60.7008 35.3507 61.1947 33.0435 62.1825 31.0176C63.1866 28.9757 64.5792 27.384 66.3606 26.2424C68.1581 25.0848 70.1014 24.506 72.1905 24.506C75.6074 24.506 78.2632 25.6234 80.1579 27.8583C82.0527 30.0931 83 33.2927 83 37.4569V39.3139H65.1946C65.2594 41.8864 66.0124 43.9686 67.4537 45.5603C68.9112 47.136 70.7573 47.9238 72.9921 47.9238C74.5791 47.9238 75.9232 47.6022 77.0244 46.9591C78.1256 46.316 79.0891 45.4638 79.915 44.4027L82.6599 46.525C80.4575 49.8853 77.1539 51.5655 72.7492 51.5655ZM72.1905 28.1718C70.3767 28.1718 68.8545 28.831 67.6237 30.1494C66.393 31.4517 65.6319 33.2846 65.3404 35.6481H78.5061V35.3105C78.3766 33.0435 77.7612 31.2909 76.66 30.0529C75.5588 28.7988 74.069 28.1718 72.1905 28.1718Z" fill="#101121"/>
<path d="M22.1823 45.7523C20.9895 46.4356 19.7278 46.7772 18.3973 46.7772C17.0057 46.7772 15.8664 46.4052 14.9794 45.6612C14.0924 44.9172 13.6489 43.8847 13.6489 42.5638C13.6489 39.5423 16.2487 38.0315 21.4483 38.0315H24.7745V43.0876C24.2393 44.1808 23.3752 45.069 22.1823 45.7523Z" fill="#101121"/>
<path fill-rule="evenodd" clip-rule="evenodd" d="M40.8487 38.09C40.8487 49.6383 31.7044 59 20.4243 59C9.14428 59 0 49.6383 0 38.09C0 26.5417 9.14428 17.1799 20.4243 17.1799C31.7044 17.1799 40.8487 26.5417 40.8487 38.09ZM24.8433 47.3921C24.9963 48.6372 25.1951 49.5026 25.4397 49.9885H29.89V49.6241C29.3089 48.2879 29.0183 46.4887 29.0183 44.2264V32.8843C28.9571 30.3942 28.116 28.4431 26.495 27.0311C24.8739 25.6038 22.6335 24.8902 19.7737 24.8902C17.9691 24.8902 16.3098 25.2242 14.7958 25.8923C13.2971 26.5604 12.1043 27.4714 11.2173 28.6253C10.3456 29.7641 9.90974 30.9484 9.90974 32.1783H14.1765C14.1765 31.1002 14.6888 30.1816 15.7134 29.4225C16.7381 28.6633 18.0074 28.2837 19.5214 28.2837C21.2495 28.2837 22.557 28.724 23.444 29.6047C24.331 30.4701 24.7745 31.6393 24.7745 33.112V35.0479H20.6454C17.0821 35.0479 14.3141 35.7616 12.3413 37.1888C10.3838 38.6009 9.40507 40.5899 9.40507 43.1559C9.40507 45.2664 10.185 47.0125 11.7449 48.3942C13.3201 49.7607 15.3311 50.444 17.778 50.444C20.5154 50.444 22.8705 49.4267 24.8433 47.3921Z" fill="#101121"/>
<path fill-rule="evenodd" clip-rule="evenodd" d="M15.95 0.37169C16.6093 0.0727592 18.5645 -0.684028 19.1514 1.50687L23.3399 13.1992C23.5114 13.8349 23.6296 14.4177 23.6181 14.9134C22.5739 14.762 21.5067 14.6825 20.4243 14.6825C19.7421 14.6825 19.0714 14.7166 18.4044 14.7771L11.5785 5.48C10.0883 3.7621 11.8186 2.58529 12.4398 2.21447L15.95 0.37169Z" fill="#101121"/>
</svg>
