<svg width="1173" height="1195" viewBox="0 0 1173 1195" fill="none" xmlns="http://www.w3.org/2000/svg">
<path opacity="0.7" d="M88.7582 372.199C88.7582 372.199 13.5492 566.399 119.241 762.002C224.906 957.632 442.629 1060.9 616.867 1149.24C791.105 1237.59 972.033 1194.56 1058.01 1049.86C1143.98 905.164 1026.04 801.873 1025.9 595.534C1025.77 389.194 1056.79 334.568 945.084 160.249C833.376 -14.0697 559.165 -52.6724 351.882 76.6235C144.599 205.919 88.7582 372.199 88.7582 372.199Z" fill="#027BFE"/>
<path d="M261.702 1074.87C325.366 1142.07 481.665 1117.46 549.374 1074.87C769.121 936.618 1154.28 706.459 1171.74 373.036C1179.16 231.304 1054.18 156.904 1001.98 135.08C876.593 82.6391 739.015 66.9121 603.245 60.8425C461.433 54.5032 309.315 59.4398 181.584 128.633C133.189 154.827 87.5454 188.439 56.3073 234.325C24.5565 280.94 6.32076 336.429 1.46509 392.458C-6.35795 482.828 17.9744 573.44 54.7427 656.364C91.5109 739.289 140.526 816.062 185.549 894.832C214.899 946.248 208.074 1018.25 261.702 1074.87Z" fill="#D4E9FF"/>
<path opacity="0.7" d="M261.702 1074.87C325.366 1142.07 481.665 1117.46 549.374 1074.87C769.121 936.618 1154.28 706.459 1171.74 373.036C1179.16 231.304 1054.18 156.904 1001.98 135.08C876.593 82.6391 739.015 66.9121 603.245 60.8425C461.433 54.5032 309.315 59.4398 181.584 128.633C133.189 154.827 87.5454 188.439 56.3073 234.325C24.5565 280.94 6.32076 336.429 1.46508 392.458C-6.35795 482.828 17.9744 573.44 54.7427 656.364C91.5109 739.289 140.526 816.062 185.549 894.832C214.899 946.248 208.074 1018.25 261.702 1074.87Z" fill="#D4E9FF"/>
<path opacity="0.2" d="M609.073 805.757C609.073 805.757 588.275 911.341 460.705 935.134C460.705 935.134 427.39 961.705 416.303 977.432C405.216 993.159 346.057 1019.89 286.009 1103.3C225.96 1186.71 136.292 921.835 136.292 921.835L334.242 664.727L609.073 805.757Z" fill="black" fill-opacity="0.7"/>
<path d="M722.451 310.127C722.451 310.127 791.24 276.515 806.374 282.315C821.507 288.115 835.966 322.914 778.157 356.229C720.374 389.545 737.558 451.616 737.558 451.616H778.831C778.831 451.616 803.595 461.705 813.225 474.654C822.856 487.602 829.735 531.87 835.238 546.895C840.741 561.921 837.989 576.893 822.856 581.802C822.856 581.802 813.226 623.777 815.977 642.39C818.729 660.977 817.353 672.981 799.468 675.247C781.583 677.513 763.698 662.326 765.073 642.39L751.316 692.242L760.946 711.395C760.946 711.395 778.831 717.384 798.092 733.893C817.353 750.402 836.614 754.907 831.111 773.305C825.607 791.702 814.601 811.53 756.819 788.546C699.036 765.563 650.884 675.247 650.884 675.247L616.166 360.33L722.451 310.127Z" fill="white"/>
<path opacity="0.4" d="M794.856 491.028C763.672 533.543 798.174 582.504 798.174 582.504C798.174 582.504 776.593 594.535 775.973 625.234C775.73 637.994 778.94 655.825 782.771 672.334C772.061 667.128 764.157 655.825 765.128 642.337L751.343 692.188L760.974 711.341C760.974 711.341 773.761 715.63 789.353 726.933C780.801 746.572 778.185 770.85 778.967 795.884C772.493 794.212 765.155 791.811 756.874 788.493C699.091 765.482 650.939 675.194 650.939 675.194L616.221 360.276L722.479 310.101C722.479 310.101 760.057 291.73 785.792 284.473C783.796 308.563 788.543 333.435 791.888 347.327C787.869 350.295 783.31 353.262 778.212 356.203C720.429 389.491 737.613 451.59 737.613 451.59H778.913C778.913 451.59 802.463 461.166 812.525 473.683C806.806 477.325 800.844 482.855 794.856 491.028Z" fill="#2D82DE"/>
<path d="M614.845 754.934C614.845 754.934 540.014 901.656 405.107 934.945C405.107 934.945 399.955 963.971 377.133 976.434C364.94 983.07 315.763 1056.82 272.547 1124.1L33.459 977.432C48.1879 962.865 64.9669 946.086 82.1237 928.578C132.029 877.702 185.253 820.54 201.573 792.458C216.14 767.37 234.565 723.831 250.616 682.908C271.171 630.575 287.896 582.504 287.896 582.504L367.637 493.86L493.022 354.476L498.444 372.307L614.845 754.934Z" fill="white"/>
<path opacity="0.4" d="M493.023 354.476L614.847 754.934C614.847 754.934 540.015 901.656 405.108 934.945C405.108 934.945 399.956 963.971 377.134 976.434C366.209 982.396 325.448 1042.42 285.982 1103.3C300.603 1053.13 342.956 973.143 342.956 973.143C315.791 940.96 323.695 907.052 334.566 916.709C345.087 926.097 372.764 953.477 374.518 955.204C362.513 941.068 359.735 918.921 359.735 918.921C359.735 918.921 393.401 941.311 396.125 905.325C398.85 869.366 375.947 781.775 375.947 781.775L315.953 551.319L493.023 354.476Z" fill="#2D82DE"/>
<path d="M616.193 360.303L722.452 310.127C722.452 310.127 791.24 276.515 806.374 282.315C821.508 288.115 835.967 322.914 778.157 356.229C720.375 389.545 737.558 451.616 737.558 451.616H778.831C778.831 451.616 803.595 461.705 813.226 474.654C822.856 487.602 829.735 531.87 835.238 546.895C840.741 561.921 837.99 576.893 822.856 581.802C822.856 581.802 813.226 623.777 815.977 642.39C818.729 660.977 817.353 672.981 799.468 675.247C781.583 677.513 763.698 662.326 765.074 642.39L751.316 692.242L760.946 711.395C760.946 711.395 778.832 717.384 798.092 733.893C817.353 750.402 836.614 754.907 831.111 773.305C825.608 791.702 814.602 811.53 756.819 788.546C699.037 765.563 650.884 675.247 650.884 675.247" stroke="#263238" stroke-miterlimit="10" stroke-linecap="round" stroke-linejoin="round"/>
<path d="M822.884 581.775C802.248 587.359 778.158 583.232 769.229 546.76C760.273 510.289 778.185 471.363 789.866 467.64" stroke="#263238" stroke-miterlimit="10" stroke-linecap="round" stroke-linejoin="round"/>
<path d="M765.101 642.364C765.101 642.364 763.726 595.399 780.936 583.826" stroke="#263238" stroke-miterlimit="10" stroke-linecap="round" stroke-linejoin="round"/>
<path opacity="0.4" d="M263.266 875.625C263.266 875.625 212.848 869.34 201.599 846.788C192.292 828.121 141.847 897.935 82.1494 928.579C132.055 877.703 185.279 820.54 201.599 792.458C216.166 767.371 234.591 723.832 250.641 682.909C250.641 682.936 250.641 682.936 250.641 682.963C249.832 716.899 231.731 768.854 236.911 795.911C236.911 795.911 217.488 800.713 221.399 822.186C225.257 843.632 263.266 875.625 263.266 875.625Z" fill="#2D82DE"/>
<path d="M614.847 754.935C614.847 754.935 540.016 901.684 405.109 934.945C405.109 934.945 399.956 963.972 377.135 976.434C364.942 983.071 315.764 1056.8 272.549 1124.1" stroke="#263238" stroke-miterlimit="10" stroke-linecap="round" stroke-linejoin="round"/>
<path d="M33.4863 977.432C91.107 920.486 179.669 830.197 201.601 792.458C234.781 735.323 287.924 582.477 287.924 582.477L493.049 354.476" stroke="#263238" stroke-miterlimit="10" stroke-linecap="round" stroke-linejoin="round"/>
<path d="M375.946 528.606C375.946 528.606 407.454 556.823 416.302 582.504" stroke="#263238" stroke-miterlimit="10" stroke-linecap="round" stroke-linejoin="round"/>
<path d="M747.865 875.625H408.831C398.796 875.625 390.676 867.505 390.676 857.47V135.755C390.676 125.72 398.796 117.6 408.831 117.6H747.865C757.9 117.6 766.02 125.72 766.02 135.755V857.47C766.02 867.505 757.9 875.625 747.865 875.625Z" fill="#263238"/>
<path d="M652.773 138.264L645.598 151.428C644.033 154.314 641.012 156.095 637.72 156.095H518.972C515.681 156.095 512.66 154.287 511.095 151.428L503.92 138.264C502.355 135.377 499.334 133.597 496.043 133.597H413.145C408.182 133.597 404.189 137.616 404.189 142.553V852.183C404.189 857.146 408.209 861.139 413.145 861.139H743.493C748.457 861.139 752.449 857.12 752.449 852.183V142.553C752.449 137.589 748.43 133.597 743.493 133.597H660.596C657.359 133.57 654.338 135.377 652.773 138.264Z" fill="#F5F7FA" stroke="#263238" stroke-miterlimit="10" stroke-linecap="round" stroke-linejoin="round"/>
<path d="M552.611 144.63C555.278 144.63 557.44 142.468 557.44 139.801C557.44 137.134 555.278 134.972 552.611 134.972C549.944 134.972 547.782 137.134 547.782 139.801C547.782 142.468 549.944 144.63 552.611 144.63Z" stroke="white" stroke-miterlimit="10"/>
<path d="M608.911 139.801C608.911 141.447 607.562 142.795 605.916 142.795C604.271 142.795 602.922 141.447 602.922 139.801C602.922 138.156 604.271 136.807 605.916 136.807C607.589 136.78 608.911 138.129 608.911 139.801Z" stroke="white" stroke-miterlimit="10"/>
<path d="M595.477 137.913H566.154C565.129 137.913 564.266 138.749 564.266 139.801C564.266 140.853 565.102 141.689 566.154 141.689H595.477C596.529 141.689 597.365 140.853 597.365 139.801C597.338 138.749 596.502 137.913 595.477 137.913Z" fill="white"/>
<rect x="461" y="723" width="215.612" height="53" rx="5" fill="#027BFE"/>
<path d="M461.972 378.091H460.672V386.678H460.565L454.599 378.091H453.321V389H454.642V380.435H454.749L460.693 389H461.972V378.091ZM467.62 389.192C469.048 389.192 469.793 388.425 470.049 387.892H470.113V389H471.37V383.609C471.37 381.01 469.389 380.712 468.345 380.712C467.109 380.712 465.703 381.138 465.063 382.629L466.257 383.055C466.534 382.459 467.189 381.82 468.387 381.82C469.543 381.82 470.113 382.432 470.113 383.482V383.524C470.113 384.131 469.495 384.078 468.004 384.27C466.486 384.467 464.829 384.803 464.829 386.678C464.829 388.276 466.065 389.192 467.62 389.192ZM467.812 388.062C466.811 388.062 466.086 387.615 466.086 386.741C466.086 385.783 466.96 385.484 467.94 385.357C468.472 385.293 469.9 385.143 470.113 384.888V386.038C470.113 387.061 469.303 388.062 467.812 388.062ZM474.433 389H475.69V383.886C475.69 382.688 476.563 381.841 477.543 381.841C478.497 381.841 479.163 382.464 479.163 383.396V389H480.441V383.673C480.441 382.619 481.102 381.841 482.252 381.841C483.147 381.841 483.914 382.315 483.914 383.524V389H485.171V383.524C485.171 381.601 484.138 380.712 482.678 380.712C481.507 380.712 480.649 381.25 480.228 382.097H480.143C479.738 381.223 479.024 380.712 477.948 380.712C476.883 380.712 476.095 381.223 475.754 382.097H475.647V380.818H474.433V389ZM491.668 389.17C493.33 389.17 494.545 388.339 494.928 387.104L493.714 386.763C493.394 387.615 492.654 388.041 491.668 388.041C490.193 388.041 489.175 387.088 489.117 385.335H495.056V384.803C495.056 381.756 493.245 380.712 491.54 380.712C489.324 380.712 487.854 382.459 487.854 384.973C487.854 387.487 489.303 389.17 491.668 389.17ZM489.117 384.249C489.202 382.975 490.102 381.841 491.54 381.841C492.904 381.841 493.778 382.864 493.778 384.249H489.117Z" fill="#263238"/>
<path d="M453.321 476H454.642V472.016H457.028C459.569 472.016 460.714 470.471 460.714 468.543C460.714 466.614 459.569 465.091 457.007 465.091H453.321V476ZM454.642 470.844V466.263H456.964C458.738 466.263 459.415 467.232 459.415 468.543C459.415 469.853 458.738 470.844 456.986 470.844H454.642ZM465.848 476.192C467.275 476.192 468.021 475.425 468.277 474.892H468.341V476H469.598V470.609C469.598 468.01 467.616 467.712 466.572 467.712C465.336 467.712 463.93 468.138 463.291 469.629L464.484 470.055C464.761 469.459 465.416 468.82 466.615 468.82C467.771 468.82 468.341 469.432 468.341 470.482V470.524C468.341 471.131 467.723 471.078 466.231 471.27C464.713 471.467 463.057 471.803 463.057 473.678C463.057 475.276 464.292 476.192 465.848 476.192ZM466.039 475.062C465.038 475.062 464.314 474.615 464.314 473.741C464.314 472.783 465.187 472.484 466.167 472.357C466.7 472.293 468.128 472.143 468.341 471.888V473.038C468.341 474.061 467.531 475.062 466.039 475.062ZM478.456 469.651C478.061 468.489 477.177 467.712 475.558 467.712C473.832 467.712 472.554 468.692 472.554 470.077C472.554 471.206 473.225 471.962 474.727 472.314L476.091 472.634C476.916 472.825 477.305 473.219 477.305 473.784C477.305 474.487 476.559 475.062 475.387 475.062C474.359 475.062 473.715 474.62 473.491 473.741L472.298 474.04C472.591 475.43 473.736 476.17 475.409 476.17C477.31 476.17 478.605 475.132 478.605 473.72C478.605 472.58 477.891 471.861 476.432 471.504L475.217 471.206C474.248 470.966 473.811 470.641 473.811 470.013C473.811 469.31 474.557 468.798 475.558 468.798C476.655 468.798 477.108 469.406 477.326 469.97L478.456 469.651ZM487.061 469.651C486.666 468.489 485.782 467.712 484.163 467.712C482.437 467.712 481.159 468.692 481.159 470.077C481.159 471.206 481.83 471.962 483.332 472.314L484.696 472.634C485.521 472.825 485.91 473.219 485.91 473.784C485.91 474.487 485.164 475.062 483.992 475.062C482.964 475.062 482.32 474.62 482.096 473.741L480.903 474.04C481.196 475.43 482.341 476.17 484.014 476.17C485.915 476.17 487.21 475.132 487.21 473.72C487.21 472.58 486.496 471.861 485.036 471.504L483.822 471.206C482.852 470.966 482.416 470.641 482.416 470.013C482.416 469.31 483.161 468.798 484.163 468.798C485.26 468.798 485.713 469.406 485.931 469.97L487.061 469.651ZM491.724 476H492.96L494.749 469.714H494.877L496.667 476H497.903L500.396 467.818H499.075L497.306 474.061H497.221L495.495 467.818H494.153L492.406 474.082H492.32L490.552 467.818H489.231L491.724 476ZM505.871 476.17C508.087 476.17 509.578 474.487 509.578 471.952C509.578 469.395 508.087 467.712 505.871 467.712C503.655 467.712 502.164 469.395 502.164 471.952C502.164 474.487 503.655 476.17 505.871 476.17ZM505.871 475.041C504.188 475.041 503.421 473.592 503.421 471.952C503.421 470.311 504.188 468.841 505.871 468.841C507.554 468.841 508.321 470.311 508.321 471.952C508.321 473.592 507.554 475.041 505.871 475.041ZM512.265 476H513.523V470.822C513.523 469.714 514.396 468.905 515.589 468.905C515.925 468.905 516.271 468.969 516.356 468.99V467.712C516.212 467.701 515.882 467.69 515.696 467.69C514.716 467.69 513.863 468.244 513.565 469.054H513.48V467.818H512.265V476ZM521.455 476.17C523.032 476.17 523.564 475.19 523.841 474.743H523.99V476H525.205V465.091H523.948V469.118H523.841C523.564 468.692 523.074 467.712 521.476 467.712C519.409 467.712 517.982 469.352 517.982 471.93C517.982 474.53 519.409 476.17 521.455 476.17ZM521.625 475.041C520.049 475.041 519.239 473.656 519.239 471.909C519.239 470.183 520.027 468.841 521.625 468.841C523.159 468.841 523.969 470.077 523.969 471.909C523.969 473.763 523.138 475.041 521.625 475.041Z" fill="#263238"/>
<path d="M462.099 554.5C461.695 552.263 459.905 550.942 457.71 550.942C454.919 550.942 452.895 553.094 452.895 556.545C452.895 559.997 454.919 562.149 457.71 562.149C459.905 562.149 461.695 560.828 462.099 558.591H460.778C460.459 560.104 459.159 560.913 457.71 560.913C455.729 560.913 454.173 559.379 454.173 556.545C454.173 553.712 455.729 552.178 457.71 552.178C459.159 552.178 460.459 552.987 460.778 554.5H462.099ZM468.156 562.17C470.371 562.17 471.863 560.487 471.863 557.952C471.863 555.395 470.371 553.712 468.156 553.712C465.94 553.712 464.448 555.395 464.448 557.952C464.448 560.487 465.94 562.17 468.156 562.17ZM468.156 561.041C466.472 561.041 465.705 559.592 465.705 557.952C465.705 556.311 466.472 554.841 468.156 554.841C469.839 554.841 470.606 556.311 470.606 557.952C470.606 559.592 469.839 561.041 468.156 561.041ZM475.807 557.078C475.807 555.651 476.691 554.841 477.895 554.841C479.062 554.841 479.77 555.603 479.77 556.886V562H481.027V556.801C481.027 554.713 479.914 553.712 478.257 553.712C477.021 553.712 476.254 554.266 475.871 555.097H475.764V553.818H474.55V562H475.807V557.078ZM487.736 553.818H485.903V552.987C485.903 552.178 486.244 551.751 487.075 551.751C487.437 551.751 487.651 551.837 487.778 551.879L488.141 550.793C487.949 550.707 487.565 550.58 486.947 550.58C485.776 550.58 484.646 551.283 484.646 552.689V553.818H483.325V554.884H484.646V562H485.903V554.884H487.736V553.818ZM490.266 562H491.523V553.818H490.266V562ZM490.905 552.455C491.395 552.455 491.8 552.071 491.8 551.602C491.8 551.134 491.395 550.75 490.905 550.75C490.415 550.75 490.01 551.134 490.01 551.602C490.01 552.071 490.415 552.455 490.905 552.455ZM494.593 562H495.85V556.822C495.85 555.714 496.724 554.905 497.917 554.905C498.253 554.905 498.599 554.969 498.684 554.99V553.712C498.54 553.701 498.21 553.69 498.024 553.69C497.043 553.69 496.191 554.244 495.893 555.054H495.808V553.818H494.593V562ZM500.942 562H502.199V556.886C502.199 555.688 503.073 554.841 504.053 554.841C505.006 554.841 505.672 555.464 505.672 556.396V562H506.951V556.673C506.951 555.619 507.611 554.841 508.762 554.841C509.657 554.841 510.424 555.315 510.424 556.524V562H511.681V556.524C511.681 554.601 510.647 553.712 509.188 553.712C508.016 553.712 507.158 554.25 506.738 555.097H506.652C506.248 554.223 505.534 553.712 504.458 553.712C503.392 553.712 502.604 554.223 502.263 555.097H502.157V553.818H500.942V562ZM519.904 562H521.225V558.016H523.612C526.153 558.016 527.298 556.471 527.298 554.543C527.298 552.614 526.153 551.091 523.591 551.091H519.904V562ZM521.225 556.844V552.263H523.548C525.322 552.263 525.998 553.232 525.998 554.543C525.998 555.853 525.322 556.844 523.569 556.844H521.225ZM532.431 562.192C533.859 562.192 534.604 561.425 534.86 560.892H534.924V562H536.181V556.609C536.181 554.01 534.2 553.712 533.156 553.712C531.92 553.712 530.514 554.138 529.874 555.629L531.068 556.055C531.345 555.459 532 554.82 533.198 554.82C534.354 554.82 534.924 555.432 534.924 556.482V556.524C534.924 557.131 534.306 557.078 532.815 557.27C531.297 557.467 529.64 557.803 529.64 559.678C529.64 561.276 530.876 562.192 532.431 562.192ZM532.623 561.062C531.622 561.062 530.897 560.615 530.897 559.741C530.897 558.783 531.771 558.484 532.751 558.357C533.283 558.293 534.711 558.143 534.924 557.888V559.038C534.924 560.061 534.114 561.062 532.623 561.062ZM545.039 555.651C544.645 554.489 543.761 553.712 542.141 553.712C540.416 553.712 539.137 554.692 539.137 556.077C539.137 557.206 539.808 557.962 541.31 558.314L542.674 558.634C543.5 558.825 543.889 559.219 543.889 559.784C543.889 560.487 543.143 561.062 541.971 561.062C540.943 561.062 540.298 560.62 540.075 559.741L538.881 560.04C539.174 561.43 540.32 562.17 541.992 562.17C543.894 562.17 545.188 561.132 545.188 559.72C545.188 558.58 544.474 557.861 543.015 557.504L541.8 557.206C540.831 556.966 540.394 556.641 540.394 556.013C540.394 555.31 541.14 554.798 542.141 554.798C543.239 554.798 543.691 555.406 543.91 555.97L545.039 555.651ZM553.644 555.651C553.25 554.489 552.366 553.712 550.746 553.712C549.02 553.712 547.742 554.692 547.742 556.077C547.742 557.206 548.413 557.962 549.915 558.314L551.279 558.634C552.105 558.825 552.493 559.219 552.493 559.784C552.493 560.487 551.748 561.062 550.576 561.062C549.548 561.062 548.903 560.62 548.68 559.741L547.486 560.04C547.779 561.43 548.925 562.17 550.597 562.17C552.499 562.17 553.793 561.132 553.793 559.72C553.793 558.58 553.079 557.861 551.62 557.504L550.405 557.206C549.436 556.966 548.999 556.641 548.999 556.013C548.999 555.31 549.745 554.798 550.746 554.798C551.844 554.798 552.296 555.406 552.515 555.97L553.644 555.651ZM558.307 562H559.543L561.333 555.714H561.461L563.25 562H564.486L566.979 553.818H565.658L563.89 560.061H563.804L562.078 553.818H560.736L558.989 560.082H558.904L557.135 553.818H555.814L558.307 562ZM572.455 562.17C574.67 562.17 576.162 560.487 576.162 557.952C576.162 555.395 574.67 553.712 572.455 553.712C570.239 553.712 568.747 555.395 568.747 557.952C568.747 560.487 570.239 562.17 572.455 562.17ZM572.455 561.041C570.771 561.041 570.004 559.592 570.004 557.952C570.004 556.311 570.771 554.841 572.455 554.841C574.138 554.841 574.905 556.311 574.905 557.952C574.905 559.592 574.138 561.041 572.455 561.041ZM578.849 562H580.106V556.822C580.106 555.714 580.98 554.905 582.173 554.905C582.508 554.905 582.855 554.969 582.94 554.99V553.712C582.796 553.701 582.466 553.69 582.279 553.69C581.299 553.69 580.447 554.244 580.149 555.054H580.063V553.818H578.849V562ZM588.038 562.17C589.615 562.17 590.148 561.19 590.425 560.743H590.574V562H591.788V551.091H590.531V555.118H590.425C590.148 554.692 589.658 553.712 588.06 553.712C585.993 553.712 584.565 555.352 584.565 557.93C584.565 560.53 585.993 562.17 588.038 562.17ZM588.209 561.041C586.632 561.041 585.822 559.656 585.822 557.909C585.822 556.183 586.611 554.841 588.209 554.841C589.743 554.841 590.553 556.077 590.553 557.909C590.553 559.763 589.722 561.041 588.209 561.041Z" fill="#263238"/>
<path d="M453.321 653H457.263C459.841 653 460.906 651.743 460.906 650.102C460.906 648.376 459.713 647.439 458.712 647.375V647.268C459.649 647.013 460.48 646.395 460.48 644.989C460.48 643.391 459.415 642.091 457.135 642.091H453.321V653ZM454.642 651.828V648.036H457.327C458.754 648.036 459.649 648.994 459.649 650.102C459.649 651.061 458.989 651.828 457.263 651.828H454.642ZM454.642 646.885V643.263H457.135C458.584 643.263 459.223 644.03 459.223 644.989C459.223 646.139 458.286 646.885 457.092 646.885H454.642ZM468.831 649.655C468.831 651.189 467.659 651.892 466.721 651.892C465.677 651.892 464.932 651.125 464.932 649.932V644.818H463.674V650.017C463.674 652.105 464.782 653.107 466.316 653.107C467.552 653.107 468.362 652.446 468.745 651.615H468.831V653H470.088V644.818H468.831V649.655ZM478.954 646.651C478.56 645.489 477.675 644.712 476.056 644.712C474.33 644.712 473.052 645.692 473.052 647.077C473.052 648.206 473.723 648.962 475.225 649.314L476.589 649.634C477.414 649.825 477.803 650.219 477.803 650.784C477.803 651.487 477.057 652.062 475.886 652.062C474.857 652.062 474.213 651.62 473.989 650.741L472.796 651.04C473.089 652.43 474.234 653.17 475.907 653.17C477.808 653.17 479.103 652.132 479.103 650.72C479.103 649.58 478.389 648.861 476.93 648.504L475.715 648.206C474.746 647.966 474.309 647.641 474.309 647.013C474.309 646.31 475.055 645.798 476.056 645.798C477.153 645.798 477.606 646.406 477.824 646.97L478.954 646.651ZM481.763 653H483.02V644.818H481.763V653ZM482.402 643.455C482.892 643.455 483.297 643.071 483.297 642.602C483.297 642.134 482.892 641.75 482.402 641.75C481.912 641.75 481.507 642.134 481.507 642.602C481.507 643.071 481.912 643.455 482.402 643.455ZM487.348 648.078C487.348 646.651 488.232 645.841 489.436 645.841C490.602 645.841 491.311 646.603 491.311 647.886V653H492.568V647.801C492.568 645.713 491.455 644.712 489.798 644.712C488.562 644.712 487.795 645.266 487.412 646.097H487.305V644.818H486.091V653H487.348V648.078ZM499.064 653.17C500.725 653.17 501.94 652.339 502.323 651.104L501.109 650.763C500.789 651.615 500.049 652.041 499.064 652.041C497.588 652.041 496.571 651.088 496.512 649.335H502.451V648.803C502.451 645.756 500.64 644.712 498.936 644.712C496.72 644.712 495.25 646.459 495.25 648.973C495.25 651.487 496.698 653.17 499.064 653.17ZM496.512 648.249C496.597 646.975 497.497 645.841 498.936 645.841C500.299 645.841 501.173 646.864 501.173 648.249H496.512ZM510.927 646.651C510.533 645.489 509.649 644.712 508.029 644.712C506.303 644.712 505.025 645.692 505.025 647.077C505.025 648.206 505.696 648.962 507.198 649.314L508.562 649.634C509.388 649.825 509.777 650.219 509.777 650.784C509.777 651.487 509.031 652.062 507.859 652.062C506.831 652.062 506.186 651.62 505.963 650.741L504.769 651.04C505.062 652.43 506.208 653.17 507.88 653.17C509.782 653.17 511.076 652.132 511.076 650.72C511.076 649.58 510.362 648.861 508.903 648.504L507.688 648.206C506.719 647.966 506.282 647.641 506.282 647.013C506.282 646.31 507.028 645.798 508.029 645.798C509.127 645.798 509.579 646.406 509.798 646.97L510.927 646.651ZM519.532 646.651C519.138 645.489 518.254 644.712 516.634 644.712C514.908 644.712 513.63 645.692 513.63 647.077C513.63 648.206 514.301 648.962 515.803 649.314L517.167 649.634C517.993 649.825 518.381 650.219 518.381 650.784C518.381 651.487 517.636 652.062 516.464 652.062C515.436 652.062 514.791 651.62 514.567 650.741L513.374 651.04C513.667 652.43 514.813 653.17 516.485 653.17C518.387 653.17 519.681 652.132 519.681 650.72C519.681 649.58 518.967 648.861 517.508 648.504L516.293 648.206C515.324 647.966 514.887 647.641 514.887 647.013C514.887 646.31 515.633 645.798 516.634 645.798C517.732 645.798 518.184 646.406 518.403 646.97L519.532 646.651ZM530.652 653.17C532.463 653.17 533.656 652.062 533.869 650.614H532.612C532.378 651.509 531.632 652.041 530.652 652.041C529.161 652.041 528.202 650.805 528.202 648.909C528.202 647.055 529.182 645.841 530.652 645.841C531.76 645.841 532.421 646.523 532.612 647.268H533.869C533.656 645.734 532.357 644.712 530.631 644.712C528.415 644.712 526.945 646.459 526.945 648.952C526.945 651.402 528.351 653.17 530.652 653.17ZM538.883 653.192C540.31 653.192 541.056 652.425 541.312 651.892H541.376V653H542.633V647.609C542.633 645.01 540.651 644.712 539.607 644.712C538.371 644.712 536.965 645.138 536.326 646.629L537.519 647.055C537.796 646.459 538.451 645.82 539.65 645.82C540.806 645.82 541.376 646.432 541.376 647.482V647.524C541.376 648.131 540.758 648.078 539.266 648.27C537.748 648.467 536.092 648.803 536.092 650.678C536.092 652.276 537.327 653.192 538.883 653.192ZM539.075 652.062C538.073 652.062 537.349 651.615 537.349 650.741C537.349 649.783 538.222 649.484 539.202 649.357C539.735 649.293 541.163 649.143 541.376 648.888V650.038C541.376 651.061 540.566 652.062 539.075 652.062ZM549.253 644.818H547.506V642.858H546.249V644.818H545.013V645.884H546.249V650.997C546.249 652.425 547.4 653.107 548.465 653.107C548.934 653.107 549.232 653.021 549.403 652.957L549.147 651.828C549.04 651.849 548.87 651.892 548.593 651.892C548.039 651.892 547.506 651.722 547.506 650.656V645.884H549.253V644.818ZM555.255 653.17C556.917 653.17 558.131 652.339 558.515 651.104L557.3 650.763C556.981 651.615 556.24 652.041 555.255 652.041C553.779 652.041 552.762 651.088 552.703 649.335H558.643V648.803C558.643 645.756 556.832 644.712 555.127 644.712C552.911 644.712 551.441 646.459 551.441 648.973C551.441 651.487 552.89 653.17 555.255 653.17ZM552.703 648.249C552.789 646.975 553.689 645.841 555.127 645.841C556.491 645.841 557.364 646.864 557.364 648.249H552.703ZM564.626 656.239C566.586 656.239 568.163 655.344 568.163 653.234V644.818H566.948V646.118H566.82C566.543 645.692 566.032 644.712 564.434 644.712C562.367 644.712 560.94 646.352 560.94 648.866C560.94 651.423 562.431 652.872 564.413 652.872C566.011 652.872 566.522 651.935 566.799 651.487H566.905V653.149C566.905 654.513 565.947 655.131 564.626 655.131C563.139 655.131 562.617 654.348 562.282 653.895L561.28 654.598C561.792 655.456 562.799 656.239 564.626 656.239ZM564.583 651.743C563.006 651.743 562.197 650.55 562.197 648.845C562.197 647.183 562.985 645.841 564.583 645.841C566.117 645.841 566.927 647.077 566.927 648.845C566.927 650.656 566.096 651.743 564.583 651.743ZM574.556 653.17C576.771 653.17 578.263 651.487 578.263 648.952C578.263 646.395 576.771 644.712 574.556 644.712C572.34 644.712 570.848 646.395 570.848 648.952C570.848 651.487 572.34 653.17 574.556 653.17ZM574.556 652.041C572.872 652.041 572.105 650.592 572.105 648.952C572.105 647.311 572.872 645.841 574.556 645.841C576.239 645.841 577.006 647.311 577.006 648.952C577.006 650.592 576.239 652.041 574.556 652.041ZM580.95 653H582.207V647.822C582.207 646.714 583.081 645.905 584.274 645.905C584.609 645.905 584.956 645.969 585.041 645.99V644.712C584.897 644.701 584.567 644.69 584.38 644.69C583.4 644.69 582.548 645.244 582.25 646.054H582.164V644.818H580.95V653ZM588.358 656.068C589.492 656.068 590.291 655.466 590.765 654.193L594.249 644.839L592.875 644.818L590.616 651.338H590.531L588.272 644.818H586.909L589.934 653.043L589.7 653.682C589.242 654.928 588.677 655.045 587.761 654.811L587.441 655.919C587.569 655.983 587.931 656.068 588.358 656.068Z" fill="#263238"/>
<rect x="447.5" y="326.5" width="243" height="44" rx="3.5" stroke="black"/>
<rect x="447.5" y="410.5" width="243" height="44" rx="3.5" stroke="black"/>
<rect x="447.5" y="497.5" width="243" height="44" rx="3.5" stroke="black"/>
<rect x="447.5" y="584.5" width="243" height="44" rx="3.5" stroke="black"/>
<path d="M409.126 712.501C413.173 774.681 384.362 843.928 384.362 843.928L228.765 800.119L201.627 792.458C228.549 754.962 241.444 681.182 234.403 621.457C233.863 616.952 233.513 612.69 233.297 608.671C230.734 559.413 251.047 544.981 268.366 523.211C287.114 499.634 329.277 410.613 329.277 389.545C329.277 368.45 381.988 316.926 370.281 258.361C370.281 258.361 386.224 248.488 402.247 256.607C409.504 260.276 416.787 267.641 422.614 281.263C436.345 313.365 417.084 404.004 400.656 426.259L369.067 557.039C369.067 557.039 379.722 575.409 390.189 608.752C398.336 634.784 406.348 669.852 409.126 712.501Z" fill="white"/>
<path opacity="0.4" d="M233.27 608.671C242.065 632.787 251.452 649 250.643 682.936C249.834 716.871 231.733 768.827 236.912 795.884C236.912 795.884 232.812 796.882 228.738 800.092L201.601 792.431C228.523 754.934 241.417 681.155 234.376 621.43C233.837 616.952 233.513 612.717 233.27 608.671Z" fill="#2D82DE"/>
<path opacity="0.4" d="M400.655 426.259L369.066 557.038C369.066 557.038 379.721 575.409 390.188 608.751C390.161 608.724 390.161 608.697 390.134 608.67C368.769 574.195 350.695 563.971 350.695 563.971C364.939 546.868 375.918 421.997 375.918 421.997C375.918 421.997 420.563 369.528 416.274 314.632C414.278 289.383 408.208 270.068 402.192 256.607C409.449 260.276 416.733 267.64 422.559 281.263C436.344 313.364 417.056 404.031 400.655 426.259Z" fill="#2D82DE"/>
<path d="M201.601 792.458C228.55 754.988 241.417 681.182 234.403 621.457C227.363 561.732 249.618 546.788 268.366 523.211C287.114 499.661 329.278 410.64 329.278 389.545C329.278 368.449 381.989 316.925 370.281 258.361C370.281 258.361 403.92 237.508 422.642 281.263C436.373 313.365 417.085 404.004 400.71 426.259L369.121 557.039C369.121 557.039 402.841 615.172 409.154 712.501C413.2 774.681 384.39 843.928 384.39 843.928" stroke="#263238" stroke-miterlimit="10" stroke-linecap="round" stroke-linejoin="round"/>
<path d="M305.62 893.699C305.62 893.699 341.04 915.523 361.703 949.971" stroke="#263238" stroke-miterlimit="10" stroke-linecap="round" stroke-linejoin="round"/>
<path d="M405.107 934.945C405.107 934.945 374.598 939.288 347.028 906.296C329.359 885.147 275.704 875.598 263.349 820.351" stroke="#263238" stroke-miterlimit="10" stroke-linecap="round" stroke-linejoin="round"/>
<path opacity="0.2" d="M848.537 1098.31C770.442 1060.95 817.758 1031.03 710.312 984.635C602.867 938.263 601.761 898.635 614.736 807.511C627.712 716.359 617.407 619.488 648.672 611.26C679.937 603.033 624.205 477.352 660.649 432.922L839.878 781.56L848.537 1098.31Z" fill="black" fill-opacity="0.7"/>
<path d="M1139.53 1094.67C1135.86 1084.18 1132.11 1072.71 1129.25 1062.35C1125.53 1048.78 1122.62 1038.05 1115.74 1025.56C1114.66 1023.53 1113.47 1021.43 1112.18 1019.19C1104.86 1006.16 1094.86 988.33 1089 966.426C1085.09 951.67 1088.92 915.333 1092.67 880.157C1095.32 854.853 1097.82 830.98 1097.12 817.438L1096.91 812.636C1095.07 777.216 1091.24 703.518 1083.31 683.124C1075.62 663.486 1068.45 660.545 1055.36 655.285C1054.02 654.691 1052.61 654.152 1051.13 653.532C1046.22 651.481 1037.86 647.165 1028.23 642.175C1006.51 630.926 979.481 616.925 965.75 615.064C947.622 612.663 930.142 616.224 927.255 616.844C910.341 603.842 881.558 587.117 872.979 586.793C865.939 586.442 850.643 590.839 843.225 593.132C841.498 593.672 840.177 594.076 839.529 594.319C833.352 589.733 828.172 586.307 824.827 584.662C824.45 584.5 824.126 584.338 823.829 584.23C814.307 580.319 799.928 580.157 792.078 580.373C789.705 580.481 787.87 580.615 787.007 580.696C772.224 557.929 757.63 535.242 751.291 525.288C738.073 504.354 697.15 418.193 696.718 417.303C696.61 417.087 696.449 416.925 696.179 416.871C696.179 416.871 696.044 416.79 695.801 416.736C692.618 415.792 669.176 409.857 659.761 432.571C649.456 457.281 664.185 511.611 678.51 531.33C685.415 540.853 704.245 579.563 723.398 619.65C718.461 624.209 679.211 660.491 660.139 667.262C644.52 672.792 648.162 752.83 651.102 817.141C652.208 840.88 653.125 861.301 652.855 873.575C652.316 897.314 695.504 930.035 737.344 961.624C775.191 990.273 814.28 1019.87 818.866 1041.37C820.133 1047.43 823.748 1052.32 828.064 1057.85C835.267 1067.02 844.547 1077.84 848.485 1098.37C849.645 1104.49 859.518 1112.53 867.26 1125.69H1150.89C1148.59 1119.49 1144.11 1107.83 1139.53 1094.67ZM746.57 668.179C760.301 696.936 768.798 714.147 770.794 715.981C772.818 717.815 772.737 727.014 772.656 735.862C772.548 743.685 772.494 752.075 773.465 759.169C770.12 762.11 749.025 781.344 744.763 796.882L726.824 775.733L722.292 709.48C725.016 706.647 743.468 687.144 746.57 668.179Z" fill="white"/>
<path opacity="0.4" d="M1058.22 852.965C1064.88 915.144 1064.97 948.864 1072.44 966.857C1085.04 997.232 1103.65 1003.38 1103.65 1003.38C1098.28 992.862 1092.78 980.48 1089.03 966.399C1085.12 951.643 1088.95 915.306 1092.7 880.13C1095.34 854.826 1097.88 830.925 1097.15 817.383L1096.91 812.582C1095.07 777.162 1091.24 703.464 1083.31 683.07C1075.65 663.431 1068.45 660.491 1055.36 655.231C1054.01 654.637 1052.61 654.098 1051.1 653.477C1046.19 651.427 1037.85 647.111 1028.2 642.12C1006.48 630.871 979.452 616.871 965.721 615.01C947.593 612.609 930.113 616.143 927.226 616.79C910.312 603.815 881.529 587.089 872.951 586.739C865.937 586.415 846.919 591.945 839.527 594.265C871.818 620.675 918.513 653.531 918.513 653.531C955.389 660.869 950.668 676.892 965.559 685.822C979.074 693.914 991.969 670.229 1003.24 668.152C1018.11 665.401 1035.05 681.182 1034.29 700.2C1032.19 752.965 1052.5 799.579 1058.22 852.965Z" fill="#2D82DE"/>
<path opacity="0.4" d="M871.819 660.276C871.819 660.276 842.604 636.052 828.603 627.824C814.603 619.624 812.445 591.811 823.451 585.04C823.828 584.798 824.26 584.663 824.8 584.609C824.449 584.447 824.098 584.258 823.802 584.15C814.279 580.212 799.901 580.077 792.051 580.32C808.344 610.452 821.158 633.597 824.638 638.642C836.426 655.69 871.819 660.276 871.819 660.276Z" fill="#2D82DE"/>
<path opacity="0.4" d="M827.497 1037.83C828.711 1031.38 818.11 1012.5 813.443 1004.84C802.814 987.359 679.723 878.592 697.581 849.539C715.358 820.432 731.679 842.013 742.982 843.874C751.101 845.223 773.303 831.978 773.195 830.872C770.659 808.509 791.323 793.969 791.323 793.969C791.323 793.969 789.407 704.948 784.686 706.485C779.939 707.996 723.127 572.792 723.127 572.792C723.127 572.792 663.106 492.944 666.478 455.717C669.85 418.517 695.881 417.68 695.881 417.68L695.828 416.682C692.644 415.738 669.202 409.804 659.788 432.517C649.483 457.227 664.212 511.557 678.536 531.276C685.442 540.799 704.271 579.509 723.424 619.596C718.487 624.155 679.237 660.437 660.165 667.208C644.546 672.738 648.188 752.776 651.128 817.087C652.234 840.826 653.152 861.247 652.882 873.521C652.342 897.26 695.531 929.981 737.371 961.57C775.218 990.219 814.306 1019.81 818.892 1041.31C820.16 1047.38 823.775 1052.26 828.091 1057.79C827.389 1049.97 826.877 1041.23 827.497 1037.83ZM746.569 668.18C760.3 696.936 768.798 714.147 770.794 715.981C772.817 717.815 772.736 727.014 772.655 735.862C772.547 743.685 772.493 752.075 773.464 759.17C770.119 762.11 749.024 781.344 744.762 796.882L726.823 775.733L722.291 709.48C725.016 706.647 743.467 687.144 746.569 668.18Z" fill="#2D82DE"/>
<path d="M854.959 659.925C854.959 659.925 836.939 655.177 824.638 638.668C812.31 622.158 763.888 546.976 750.481 525.746C737.074 504.516 695.855 417.707 695.855 417.707C695.855 417.707 670.497 409.21 660.624 432.922C650.751 456.607 664.266 510.1 679.291 530.737C694.317 551.346 765.776 710.154 771.441 715.306C777.106 720.432 768.609 762.757 779.966 773.008" stroke="#263238" stroke-miterlimit="10" stroke-linecap="round" stroke-linejoin="round"/>
<path d="M774.518 759.52C774.518 759.52 748.351 782.315 745.276 798.959L725.854 776.111L721.268 709.102C721.268 709.102 744.71 685.633 745.978 664.754" stroke="#263238" stroke-miterlimit="10" stroke-linecap="round" stroke-linejoin="round"/>
<path d="M724.585 619.812C724.585 619.812 681.126 660.815 660.463 668.126C639.799 675.436 654.852 829.064 653.827 873.548C652.802 918.031 810.18 995.506 819.81 1041.07C823.641 1059.17 839.503 1062.87 849.187 1097.58" stroke="#263238" stroke-miterlimit="10" stroke-linecap="round" stroke-linejoin="round"/>
<path d="M786.441 581.641C786.441 581.641 810.099 579.51 823.425 585.04C836.752 590.57 890.892 637.076 903.922 645.978C916.951 654.854 936.617 658.226 940.339 667.775" stroke="#263238" stroke-miterlimit="10" stroke-linecap="round" stroke-linejoin="round"/>
<path d="M839.34 595.344C839.34 595.344 863.699 587.305 872.871 587.71C882.07 588.114 917.058 608.778 932.704 622.509C948.35 636.24 964.05 643.847 973.465 647.273" stroke="#263238" stroke-miterlimit="10" stroke-linecap="round" stroke-linejoin="round"/>
<path d="M927.04 617.842C927.04 617.842 945.896 613.337 965.643 615.981C985.389 618.652 1034.97 647.813 1050.78 654.395C1066.56 660.977 1074.14 662.191 1082.45 683.448C1090.73 704.705 1094.56 785.525 1096.23 817.465C1097.91 849.404 1081.26 940.88 1088.11 966.642C1094.97 992.377 1107.4 1012.23 1114.93 1026.02" stroke="#263238" stroke-miterlimit="10" stroke-linecap="round" stroke-linejoin="round"/>
<path d="M721.267 709.101C721.267 709.101 717.329 693.375 712.149 691.351" stroke="#263238" stroke-miterlimit="10" stroke-linecap="round" stroke-linejoin="round"/>
<path d="M725.853 776.11C725.853 776.11 729.359 793.644 733.217 803.221C737.074 812.797 731.059 826.636 731.059 826.636" stroke="#263238" stroke-miterlimit="10" stroke-linecap="round" stroke-linejoin="round"/>
<path d="M745.275 798.959C744.627 814.282 759.896 832.194 763.591 829.658" stroke="#263238" stroke-miterlimit="10" stroke-linecap="round" stroke-linejoin="round"/>
<path d="M822.885 709.102C822.885 709.102 839.232 682.612 854.959 681.317C870.659 680.022 888.787 702.304 898.471 700.227C908.183 698.15 920.349 683.88 936.616 681.263C952.909 678.646 960.543 686.496 973.465 687.144C986.413 687.791 987.708 670.527 1003.22 668.153C1018.73 665.779 1023.91 673.656 1034.27 675.544C1044.63 677.432 1047.22 669.394 1055.61 664.727" stroke="#263238" stroke-miterlimit="10" stroke-linecap="round" stroke-linejoin="round"/>
<path d="M502.599 756.266C506.026 756.266 508.21 754.233 508.441 751.339H505.369C505.094 752.804 504.038 753.647 502.626 753.647C500.62 753.647 499.324 751.969 499.324 749.182C499.324 746.43 500.646 744.778 502.626 744.778C504.171 744.778 505.121 745.773 505.369 747.087H508.441C508.219 744.13 505.911 742.186 502.582 742.186C498.587 742.186 496.065 745.071 496.065 749.235C496.065 753.363 498.525 756.266 502.599 756.266ZM511.848 756H515.062V747.983C515.062 746.252 516.367 745.027 518.134 745.027C518.675 745.027 519.35 745.125 519.625 745.213V742.257C519.332 742.204 518.826 742.168 518.471 742.168C516.908 742.168 515.603 743.056 515.106 744.636H514.964V742.364H511.848V756ZM528.004 756.266C531.182 756.266 533.366 754.713 533.934 752.342L530.933 752.005C530.498 753.159 529.433 753.763 528.048 753.763C525.97 753.763 524.594 752.396 524.568 750.061H534.067V749.075C534.067 744.29 531.191 742.186 527.835 742.186C523.929 742.186 521.381 745.054 521.381 749.262C521.381 753.541 523.893 756.266 528.004 756.266ZM524.577 747.895C524.674 746.154 525.962 744.69 527.879 744.69C529.726 744.69 530.969 746.039 530.986 747.895H524.577ZM541.478 756.275C543.617 756.275 544.896 755.272 545.482 754.127H545.588V756H548.678V746.874C548.678 743.269 545.739 742.186 543.138 742.186C540.271 742.186 538.069 743.464 537.359 745.95L540.359 746.376C540.679 745.444 541.584 744.645 543.156 744.645C544.647 744.645 545.464 745.409 545.464 746.749V746.803C545.464 747.726 544.496 747.77 542.09 748.028C539.445 748.312 536.915 749.102 536.915 752.174C536.915 754.855 538.877 756.275 541.478 756.275ZM542.312 753.914C540.972 753.914 540.013 753.301 540.013 752.12C540.013 750.886 541.087 750.371 542.526 750.167C543.369 750.052 545.056 749.839 545.473 749.501V751.108C545.473 752.626 544.248 753.914 542.312 753.914ZM559.487 742.364H556.797V739.097H553.583V742.364H551.648V744.849H553.583V752.431C553.565 754.997 555.43 756.257 557.844 756.186C558.759 756.16 559.389 755.982 559.735 755.867L559.194 753.354C559.016 753.399 558.652 753.479 558.253 753.479C557.445 753.479 556.797 753.195 556.797 751.898V744.849H559.487V742.364ZM568.833 756.266C572.011 756.266 574.195 754.713 574.763 752.342L571.763 752.005C571.328 753.159 570.262 753.763 568.877 753.763C566.8 753.763 565.424 752.396 565.397 750.061H574.896V749.075C574.896 744.29 572.02 742.186 568.664 742.186C564.758 742.186 562.21 745.054 562.21 749.262C562.21 753.541 564.722 756.266 568.833 756.266ZM565.406 747.895C565.504 746.154 566.791 744.69 568.709 744.69C570.555 744.69 571.798 746.039 571.816 747.895H565.406ZM596.13 745.968C595.686 743.66 593.84 742.186 590.644 742.186C587.359 742.186 585.122 743.802 585.131 746.323C585.122 748.312 586.347 749.626 588.966 750.167L591.292 750.656C592.544 750.931 593.129 751.437 593.129 752.209C593.129 753.141 592.117 753.843 590.59 753.843C589.117 753.843 588.158 753.203 587.883 751.978L584.749 752.28C585.148 754.784 587.252 756.266 590.599 756.266C594.008 756.266 596.414 754.5 596.423 751.916C596.414 749.972 595.162 748.782 592.588 748.223L590.262 747.726C588.877 747.415 588.327 746.936 588.335 746.146C588.327 745.222 589.348 744.583 590.688 744.583C592.171 744.583 592.952 745.391 593.2 746.288L596.13 745.968ZM606.65 742.364H603.96V739.097H600.747V742.364H598.811V744.849H600.747V752.431C600.729 754.997 602.593 756.257 605.008 756.186C605.922 756.16 606.553 755.982 606.899 755.867L606.358 753.354C606.18 753.399 605.816 753.479 605.416 753.479C604.609 753.479 603.96 753.195 603.96 751.898V744.849H606.65V742.364ZM615.908 756.266C619.903 756.266 622.442 753.452 622.442 749.235C622.442 745.009 619.903 742.186 615.908 742.186C611.913 742.186 609.374 745.009 609.374 749.235C609.374 753.452 611.913 756.266 615.908 756.266ZM615.926 753.692C613.715 753.692 612.632 751.721 612.632 749.226C612.632 746.732 613.715 744.734 615.926 744.734C618.101 744.734 619.184 746.732 619.184 749.226C619.184 751.721 618.101 753.692 615.926 753.692ZM625.938 756H629.151V747.983C629.151 746.252 630.457 745.027 632.223 745.027C632.765 745.027 633.439 745.125 633.715 745.213V742.257C633.422 742.204 632.916 742.168 632.561 742.168C630.998 742.168 629.693 743.056 629.196 744.636H629.054V742.364H625.938V756ZM642.093 756.266C645.272 756.266 647.455 754.713 648.024 752.342L645.023 752.005C644.588 753.159 643.523 753.763 642.138 753.763C640.06 753.763 638.684 752.396 638.658 750.061H648.157V749.075C648.157 744.29 645.28 742.186 641.925 742.186C638.018 742.186 635.47 745.054 635.47 749.262C635.47 753.541 637.983 756.266 642.093 756.266ZM638.666 747.895C638.764 746.154 640.051 744.69 641.969 744.69C643.816 744.69 645.058 746.039 645.076 747.895H638.666Z" fill="#F5F7FA"/>
<path d="M461.674 292.816H464.844C464.782 289.745 462.163 287.57 458.292 287.57C454.474 287.57 451.607 289.718 451.616 292.932C451.616 295.542 453.471 297.042 456.463 297.815L458.532 298.347C460.494 298.844 461.79 299.457 461.799 300.869C461.79 302.422 460.316 303.461 458.168 303.461C456.108 303.461 454.51 302.538 454.377 300.629H451.136C451.27 304.242 453.96 306.275 458.194 306.275C462.553 306.275 465.083 304.1 465.092 300.895C465.083 297.744 462.482 296.305 459.748 295.657L458.043 295.231C456.552 294.876 454.936 294.246 454.954 292.728C454.963 291.36 456.188 290.357 458.248 290.357C460.21 290.357 461.506 291.272 461.674 292.816ZM468.655 306H471.868V292.364H468.655V306ZM470.27 290.428C471.291 290.428 472.126 289.647 472.126 288.688C472.126 287.721 471.291 286.939 470.27 286.939C469.241 286.939 468.406 287.721 468.406 288.688C468.406 289.647 469.241 290.428 470.27 290.428ZM481.872 311.398C485.556 311.398 488.273 309.711 488.273 306.222V292.364H485.103V294.619H484.926C484.437 293.633 483.416 292.186 481.01 292.186C477.859 292.186 475.382 294.654 475.382 299.137C475.382 303.585 477.859 305.805 481.002 305.805C483.336 305.805 484.428 304.553 484.926 303.55H485.085V306.133C485.085 308.14 483.754 308.965 481.925 308.965C479.989 308.965 479.137 308.051 478.747 307.252L475.852 307.953C476.438 309.862 478.4 311.398 481.872 311.398ZM481.898 303.283C479.776 303.283 478.658 301.632 478.658 299.12C478.658 296.643 479.759 294.823 481.898 294.823C483.967 294.823 485.103 296.536 485.103 299.12C485.103 301.721 483.949 303.283 481.898 303.283ZM495.548 298.01C495.548 296.039 496.738 294.903 498.433 294.903C500.093 294.903 501.088 295.995 501.088 297.815V306H504.302V297.317C504.31 294.05 502.446 292.186 499.632 292.186C497.59 292.186 496.187 293.163 495.566 294.681H495.406V292.364H492.334V306H495.548V298.01ZM523.997 300.265C523.997 302.342 522.515 303.372 521.094 303.372C519.549 303.372 518.52 302.28 518.52 300.549V292.364H515.306V301.046C515.306 304.322 517.17 306.178 519.851 306.178C521.893 306.178 523.331 305.103 523.953 303.576H524.095V306H527.211V292.364H523.997V300.265ZM531.284 311.114H534.497V303.852H534.631C535.137 304.846 536.193 306.24 538.537 306.24C541.751 306.24 544.157 303.692 544.157 299.2C544.157 294.654 541.68 292.186 538.528 292.186C536.122 292.186 535.119 293.633 534.631 294.619H534.444V292.364H531.284V311.114ZM534.435 299.182C534.435 296.536 535.572 294.823 537.64 294.823C539.78 294.823 540.881 296.643 540.881 299.182C540.881 301.739 539.762 303.603 537.64 303.603C535.589 303.603 534.435 301.827 534.435 299.182Z" fill="#026ADA"/>
<path d="M590.572 201.822V207.177H594.711V210.099H590.572V223.813C590.572 224.699 590.757 225.367 591.126 225.816C591.494 226.252 592.123 226.47 593.01 226.47C593.447 226.47 594.048 226.389 594.813 226.225V229.291C593.816 229.563 592.846 229.7 591.904 229.7C590.211 229.7 588.934 229.189 588.073 228.167C587.213 227.145 586.782 225.694 586.782 223.813V210.099H582.747V207.177H586.782V201.822H590.572Z" fill="#027BFE"/>
<path d="M608.355 229.7C605.35 229.7 602.905 228.719 601.021 226.756C599.136 224.781 598.193 222.144 598.193 218.847V218.152C598.193 215.958 598.61 214.003 599.443 212.286C600.29 210.556 601.464 209.207 602.967 208.239C604.483 207.258 606.122 206.768 607.884 206.768C610.765 206.768 613.005 207.715 614.603 209.609C616.201 211.503 617 214.214 617 217.743V219.317H601.983C602.038 221.497 602.673 223.261 603.889 224.61C605.118 225.946 606.675 226.613 608.56 226.613C609.898 226.613 611.032 226.341 611.96 225.796C612.889 225.251 613.702 224.529 614.398 223.629L616.713 225.428C614.856 228.276 612.07 229.7 608.355 229.7ZM607.884 209.874C606.354 209.874 605.07 210.433 604.032 211.55C602.994 212.654 602.352 214.207 602.106 216.21H613.21V215.924C613.101 214.003 612.582 212.518 611.653 211.469C610.724 210.406 609.468 209.874 607.884 209.874Z" fill="#027BFE"/>
<path d="M565.708 224.773C564.702 225.352 563.638 225.642 562.516 225.642C561.342 225.642 560.381 225.326 559.633 224.696C558.885 224.065 558.511 223.19 558.511 222.071C558.511 219.51 560.704 218.23 565.089 218.23H567.894V222.515C567.443 223.441 566.714 224.194 565.708 224.773Z" fill="#027BFE"/>
<path fill-rule="evenodd" clip-rule="evenodd" d="M581.451 218.28C581.451 228.066 573.739 236 564.225 236C554.712 236 547 228.066 547 218.28C547 208.493 554.712 200.559 564.225 200.559C573.739 200.559 581.451 208.493 581.451 218.28ZM567.952 226.163C568.081 227.218 568.249 227.951 568.455 228.363H572.208V228.054C571.718 226.922 571.473 225.397 571.473 223.48V213.868C571.422 211.758 570.712 210.104 569.345 208.908C567.978 207.698 566.088 207.093 563.677 207.093C562.155 207.093 560.755 207.376 559.478 207.943C558.214 208.509 557.208 209.281 556.46 210.259C555.725 211.224 555.358 212.227 555.358 213.27H558.956C558.956 212.356 559.388 211.578 560.252 210.934C561.116 210.291 562.187 209.969 563.464 209.969C564.921 209.969 566.024 210.342 566.772 211.089C567.52 211.822 567.894 212.813 567.894 214.061V215.702H564.412C561.407 215.702 559.072 216.306 557.408 217.516C555.757 218.713 554.932 220.398 554.932 222.573C554.932 224.361 555.59 225.841 556.905 227.012C558.234 228.17 559.93 228.749 561.993 228.749C564.302 228.749 566.288 227.887 567.952 226.163Z" fill="#027BFE"/>
<path fill-rule="evenodd" clip-rule="evenodd" d="M560.452 186.315C561.008 186.062 562.657 185.42 563.152 187.277L566.684 197.186C566.829 197.725 566.929 198.218 566.919 198.638C566.038 198.51 565.138 198.443 564.225 198.443C563.65 198.443 563.084 198.472 562.522 198.523L556.765 190.644C555.508 189.188 556.967 188.191 557.491 187.877L560.452 186.315Z" fill="#027BFE"/>
</svg>
