<svg width="41" height="44" viewBox="0 0 41 44" fill="none" xmlns="http://www.w3.org/2000/svg">
<path fill-rule="evenodd" clip-rule="evenodd" d="M34.0517 0.649902L30.0231 4.86368L36.9714 12.1315L41 7.91771L34.0517 0.649902ZM11.459 38.2271L0 43.5169L5.0573 31.5311L11.459 38.2271Z" fill="#0557FF" fill-opacity="0.4"/>
<path fill-rule="evenodd" clip-rule="evenodd" d="M35.2806 14.0458L28.3401 6.74505L21.4639 13.9119L8.73981 0.649902L0 9.75913L12.6599 23.0211L6.61912 29.3172L13.5596 36.618L19.6003 30.3219L32.1317 43.5169L41 34.2737L28.4044 21.1457L35.2806 14.0458ZM12.0173 18.6007L14.9734 15.5197L13.1741 13.6443L10.2179 16.7253L7.96873 14.381L9.89663 12.3716L8.09726 10.4962L6.16936 12.5056L3.66309 9.82641L8.73989 4.53502L19.6004 15.7876L14.4593 21.146L12.0173 18.6007ZM32.1316 39.699L37.337 34.2737L26.605 23.1551L21.3997 28.5134L24.0987 31.3266L26.0909 29.2502L27.8903 31.1256L25.8981 33.202L27.9545 35.3453L30.5893 32.5992L32.3887 34.4746L29.7539 37.2208L32.1316 39.699Z" fill="#027BFE"/>
</svg>
