<svg width="37" height="44" viewBox="0 0 37 44" fill="none" xmlns="http://www.w3.org/2000/svg">
<path d="M35.7241 40.8558H34.4483V14.2422H29.3448V40.8558H25.5172V20.8956H20.4138V40.8558H16.5862V27.549H11.4828V40.8558H7.65517V34.2024H2.55172V40.8558H1.27586C0.571223 40.8558 0 41.4516 0 42.1865C0 42.9214 0.571223 43.5172 1.27586 43.5172H35.7241C36.4288 43.5172 37 42.9214 37 42.1865C37 41.4516 36.4288 40.8558 35.7241 40.8558Z" fill="#027BFE"/>
<path opacity="0.4" d="M3.26445 29.9249C3.53802 29.9249 3.80421 29.8316 4.02306 29.659L32.092 6.32675L31.7759 9.84986C31.7406 10.2028 31.841 10.556 32.0548 10.8306C32.2685 11.1053 32.5778 11.2787 32.9138 11.3123H33.0402C33.692 11.3157 34.2394 10.7976 34.3046 10.1158L35 2.27186L27.5402 0.676493C26.842 0.529643 26.1627 1.00582 26.023 1.74007C25.8834 2.47432 26.3362 3.18859 27.0345 3.33544L30.7012 4.13312L2.50583 27.5319C2.07045 27.8752 1.89287 28.473 2.06496 29.0158C2.23706 29.5587 2.72023 29.9249 3.26445 29.9249Z" fill="#027BFE"/>
</svg>
