<svg width="790" height="711" viewBox="0 0 790 711" fill="none" xmlns="http://www.w3.org/2000/svg">
<path d="M75.7344 715.143H236.007L249.303 679.319C254.012 666.626 263.648 656.424 275.976 650.847C287.584 645.588 303.207 636.049 318.352 619.035C347.823 585.931 363.458 550.411 363.458 550.411L264.132 549.927C264.132 549.927 273.072 494.319 223.704 420.467C218.417 412.562 216.016 403.073 216.842 393.597L221.52 339.734C221.52 339.734 255.067 302.215 234.487 255.66C234.487 255.66 214.806 228.387 206.995 238.373C206.995 238.373 147.544 380.066 142.134 401.129C136.724 422.199 129.502 435.438 136.724 501.652C138.635 519.182 139.323 533.8 139.299 545.822C139.255 568.898 134.106 591.675 124.247 612.533L75.7344 715.143Z" fill="#B96B4A"/>
<path opacity="0.2" d="M225.217 623.226C210.339 606.696 189.672 609.304 167.944 601.766C146.21 594.227 139.242 539.861 139.242 539.861V539.855C139.28 541.904 139.292 543.897 139.292 545.816C139.249 568.891 134.099 591.669 124.24 612.527L75.7402 715.143H236.013L249.309 679.319C254.018 666.626 263.653 656.424 275.982 650.847C285.859 646.376 298.646 638.794 311.57 626.145C267.42 644.712 240.095 639.757 225.217 623.226Z" fill="#F6C19D"/>
<path d="M154.35 73.2313C191.198 131.416 282.012 183.274 282.012 183.274C282.012 183.274 209.817 177.406 173.993 130.708L186.985 119.941C186.985 119.941 176.661 120.941 168.012 121.94C160.039 108.714 154.877 92.6739 154.35 73.2313Z" fill="#9C75C4"/>
<path d="M251.027 97.3002C245.425 99.8462 237.136 103.721 237.136 103.721L245.121 92.2392C235.82 84.9987 225.583 80.1675 215.439 77.0068C211.325 82.9992 206.492 89.6933 206.492 89.6933L205.53 74.4049C178.342 68.5429 154.344 73.2313 154.344 73.2313C191.192 131.416 282.006 183.274 282.006 183.274C281.596 140.52 268.592 113.824 251.027 97.3002Z" fill="#AC8CCE"/>
<path d="M140.818 155.336C151.657 148.959 162.652 145.525 173.336 144.128C176.556 147.804 180.502 152.132 180.502 152.132L180.719 143.469C221.786 141.501 256.413 167.389 256.413 167.389C232.911 181.696 212.684 185.714 196.025 184.522C194.977 181.498 193.481 176.983 193.481 176.983L190.696 183.951C182.692 182.808 175.607 180.492 169.464 177.642C170.941 174.027 172.492 169.892 172.492 169.892L163.737 174.692C148.71 166.185 140.818 155.336 140.818 155.336Z" fill="#5B99E6"/>
<path d="M196.032 184.516C194.983 181.492 193.488 176.977 193.488 176.977L190.702 183.944C182.698 182.802 175.613 180.486 169.47 177.635C170.947 174.021 172.498 169.886 172.498 169.886L163.744 174.686C148.71 166.172 140.818 155.318 140.818 155.318C188.599 149.853 256.419 167.364 256.419 167.364C232.917 181.697 212.697 185.708 196.032 184.516Z" fill="#2671D1"/>
<path d="M545.222 147.952L541.76 171.852L560.305 159.454L617.069 132.907L573.16 136.587C573.16 136.587 550.793 141.563 549.584 142.562C548.367 143.568 545.222 147.952 545.222 147.952Z" fill="#085FCC"/>
<path d="M525.777 133.52L617.069 132.907L545.222 147.952L525.777 133.52Z" fill="#88B2E7"/>
<path d="M574.569 172L550.645 154.41L617.069 132.907L574.569 172Z" fill="#88B2E7"/>
<path d="M535.809 162.968C539.302 161.652 541.877 161.366 541.902 161.366L541.728 159.745C541.617 159.758 538.918 160.056 535.232 161.44L535.809 162.968Z" fill="#141414"/>
<path d="M478.283 308.511C482.062 306.599 485.617 304.531 488.849 302.37L489.755 303.73C486.467 305.928 482.856 308.021 479.022 309.965L478.283 308.511ZM498.472 294.887C501.537 292.087 504.298 289.063 506.675 285.908L507.978 286.889C505.539 290.124 502.71 293.217 499.571 296.092L498.472 294.887ZM512.972 275.525C513.773 273.849 514.505 272.098 515.156 270.322C515.894 268.316 516.546 266.217 517.098 264.087L518.674 264.497C518.109 266.677 517.439 268.831 516.689 270.887C516.019 272.706 515.268 274.501 514.443 276.227L512.972 275.525ZM519.555 239.838L521.187 239.801C521.286 244.228 521.156 248.296 520.783 252.22L519.158 252.065C519.53 248.209 519.654 244.21 519.555 239.838ZM517.241 215.384L518.854 215.155C519.536 219.93 520.027 223.829 520.386 227.431L518.767 227.593C518.401 224.016 517.917 220.135 517.241 215.384ZM515.417 203.101C514.771 198.705 514.56 194.538 514.802 190.719L516.428 190.819C516.198 194.526 516.403 198.581 517.03 202.859L517.042 202.952L515.429 203.176L515.417 203.101ZM517.464 178.455C519.102 174.437 521.485 170.935 524.537 168.048L525.66 169.234C522.775 171.96 520.523 175.269 518.972 179.07L517.464 178.455Z" fill="#141414"/>
<path d="M461.518 317.317C463.615 316.59 465.681 315.82 467.667 315.044L467.071 313.529C465.11 314.299 463.063 315.056 460.984 315.783L461.518 317.317Z" fill="#141414"/>
<path d="M453.062 143.892C453.062 143.892 487.012 121.152 494.761 136.136C502.511 151.12 450.654 204.132 450.654 204.132L453.062 143.892Z" fill="#B96B4A"/>
<path d="M453.062 242.974C453.062 242.974 487.012 220.234 494.761 235.218C502.511 250.202 450.654 303.215 450.654 303.215L453.062 242.974Z" fill="#B96B4A"/>
<path d="M453.061 310.48C453.061 310.48 487.012 287.74 494.761 302.724C502.517 317.702 450.66 370.72 450.66 370.72L453.061 310.48Z" fill="#B96B4A"/>
<path d="M429.615 118.407H243.253C229.374 118.407 218.125 129.665 218.125 143.556V453.949V524.765C218.125 538.768 229.498 549.914 243.253 549.914H429.615C443.488 549.914 454.743 538.656 454.743 524.765V214.378V143.563C454.749 129.547 443.364 118.407 429.615 118.407Z" fill="#141414"/>
<path opacity="0.2" d="M235.1 438.934C235.1 438.934 201.391 521.524 204.661 537.135C207.931 552.752 228.387 573.629 278.574 566.674C328.762 559.713 363.451 550.405 363.451 550.405C363.451 550.405 365.548 438.947 363.451 433.296C361.353 427.645 271.116 387.524 267.561 387.524C264.012 387.524 235.1 438.934 235.1 438.934Z" fill="#F6C19D"/>
<path d="M442.564 152.691H230.305V515.643H442.564V152.691Z" fill="white"/>
<path d="M380.557 400.273H292.312C280.567 400.273 271.043 390.741 271.043 378.986V256.766C271.043 245.011 280.567 235.485 292.306 235.485H380.551C392.296 235.485 401.814 245.017 401.814 256.766V378.992C401.826 390.747 392.302 400.273 380.557 400.273Z" fill="#DAE7F7"/>
<path d="M290.967 302.221L301.328 351.992C301.781 354.159 303.636 355.705 305.783 355.705H367.076C369.223 355.705 371.078 354.159 371.531 351.992L381.893 302.221H290.967ZM309.251 350.88C307.868 350.88 306.738 349.756 306.738 348.365L303.258 313.088C303.258 311.703 304.381 310.573 305.771 310.573C307.154 310.573 308.283 311.697 308.283 313.088L311.764 348.365C311.758 349.756 310.635 350.88 309.251 350.88ZM321.871 350.88C320.487 350.88 319.358 349.756 319.358 348.365L317.968 313.088C317.968 311.703 319.091 310.573 320.481 310.573C321.865 310.573 322.994 311.697 322.994 313.088L324.384 348.365C324.384 349.756 323.261 350.88 321.871 350.88ZM338.946 348.365C338.946 349.75 337.823 350.88 336.433 350.88C335.049 350.88 333.92 349.756 333.92 348.365V313.094C333.92 311.709 335.043 310.579 336.433 310.579C337.816 310.579 338.946 311.703 338.946 313.094V348.365ZM353.514 348.365C353.514 349.75 352.391 350.88 351.001 350.88C349.617 350.88 348.488 349.756 348.488 348.365L349.878 313.088C349.878 311.703 351.001 310.573 352.391 310.573C353.774 310.573 354.903 311.697 354.903 313.088L353.514 348.365ZM366.133 348.365C366.133 349.75 365.01 350.88 363.621 350.88C362.237 350.88 361.108 349.756 361.108 348.365L364.595 313.094C364.595 311.709 365.718 310.579 367.107 310.579C368.491 310.579 369.62 311.703 369.62 313.094L366.133 348.365Z" fill="#88B2E7"/>
<path d="M382.55 306.239H290.321C288.1 306.239 286.307 304.438 286.307 302.221C286.307 299.998 288.106 298.203 290.321 298.203H382.55C384.771 298.203 386.564 300.004 386.564 302.221C386.564 304.438 384.771 306.239 382.55 306.239Z" fill="#085FCC"/>
<path d="M309.692 298.501V295.03C309.692 289.243 314.376 284.554 320.159 284.554H352.72C358.502 284.554 363.186 289.243 363.186 295.03V298.501C363.186 299.743 364.191 300.749 365.432 300.749C366.673 300.749 367.678 299.743 367.678 298.501V295.03C367.678 286.759 360.978 280.052 352.713 280.052H320.153C311.888 280.052 305.188 286.759 305.188 295.03V298.501C305.188 299.743 306.193 300.749 307.433 300.749C308.687 300.756 309.692 299.743 309.692 298.501Z" fill="#88B2E7"/>
<path d="M379.987 141.284H293.224C292.101 141.284 291.189 140.371 291.189 139.247V138.769C291.189 137.645 292.101 136.732 293.224 136.732H379.987C381.11 136.732 382.022 137.645 382.022 138.769V139.247C382.022 140.371 381.11 141.284 379.987 141.284Z" fill="white"/>
<path d="M213.894 372.229C213.894 372.229 215.172 376.992 218.07 379.34L221.513 339.728C221.513 339.728 246.188 312.126 240.226 274.898C238.184 262.156 231.85 250.426 222.165 241.906C216.637 237.044 210.562 233.79 206.982 238.366C206.982 238.366 179.025 304.997 159.711 353.669L213.894 372.229Z" fill="#B96B4A"/>
<path opacity="0.3" d="M346.737 533.13C346.737 538.892 342.072 543.562 336.314 543.562C330.556 543.562 325.891 538.892 325.891 533.13C325.891 527.367 330.556 522.697 336.314 522.697C342.072 522.691 346.737 527.367 346.737 533.13Z" fill="#DAE7F7"/>
<path d="M339.422 537.476H333.205C332.523 537.476 331.971 536.924 331.971 536.241V530.018C331.971 529.335 332.523 528.783 333.205 528.783H339.422C340.105 528.783 340.657 529.335 340.657 530.018V536.241C340.657 536.917 340.105 537.476 339.422 537.476ZM333.205 529.118C332.709 529.118 332.306 529.522 332.306 530.018V536.241C332.306 536.737 332.709 537.141 333.205 537.141H339.422C339.919 537.141 340.322 536.737 340.322 536.241V530.018C340.322 529.522 339.919 529.118 339.422 529.118H333.205Z" fill="#DAE7F7"/>
<path d="M442.564 494.17H230.305V515.637H442.564V494.17Z" fill="#D0E1F5"/>
<path d="M442.564 152.691H230.305V171.953H442.564V152.691Z" fill="#D0E1F5"/>
<path d="M212.014 277.5C219.739 273.942 223.772 253.829 225.217 244.787C219.019 238.546 211.239 232.927 206.989 238.366C206.989 238.366 200.834 253.04 192.303 273.644C198.135 276.892 206.244 280.158 212.014 277.5Z" fill="#DF9866"/>
<path d="M121.913 620.488C138.87 630.914 193.469 662.099 249.923 668.744C253.23 669.135 255.556 672.165 254.576 674.786L244.711 701.227C244.06 702.978 242.093 703.996 239.89 703.729C223.25 701.705 154.604 691.366 106.309 653.971C104.665 652.698 103.97 650.766 104.584 649.121L114.648 622.14C115.597 619.594 119.152 618.793 121.913 620.488Z" fill="#141414"/>
<path d="M116.955 645.768L116.769 645.699C115.777 645.327 115.274 644.228 115.646 643.234L118.68 635.093C119.052 634.1 120.151 633.597 121.143 633.969L121.329 634.038C122.322 634.41 122.825 635.509 122.452 636.503L119.419 644.644C119.052 645.637 117.948 646.14 116.955 645.768Z" fill="black"/>
<path d="M127.114 652.033L126.927 651.965C125.935 651.593 125.432 650.493 125.804 649.5L128.838 641.359C129.211 640.365 130.309 639.862 131.302 640.235L131.488 640.303C132.48 640.676 132.983 641.775 132.611 642.768L129.577 650.909C129.204 651.897 128.106 652.406 127.114 652.033Z" fill="black"/>
<path d="M137.282 658.256L137.095 658.187C136.103 657.815 135.6 656.715 135.972 655.722L139.006 647.581C139.379 646.587 140.477 646.084 141.47 646.457L141.656 646.525C142.648 646.898 143.151 647.997 142.779 648.991L139.745 657.132C139.379 658.119 138.274 658.622 137.282 658.256Z" fill="black"/>
<path d="M147.748 663.316L147.562 663.248C146.569 662.876 146.067 661.776 146.439 660.783L149.473 652.642C149.845 651.648 150.944 651.145 151.936 651.518L152.122 651.586C153.115 651.959 153.618 653.058 153.245 654.052L150.211 662.192C149.845 663.18 148.741 663.683 147.748 663.316Z" fill="black"/>
<path d="M158.047 669.197L157.861 669.129C156.868 668.756 156.366 667.657 156.738 666.663L159.772 658.522C160.144 657.529 161.242 657.026 162.235 657.399L162.421 657.467C163.414 657.839 163.917 658.939 163.544 659.932L160.51 668.073C160.138 669.06 159.04 669.563 158.047 669.197Z" fill="black"/>
<path d="M168.801 673.861L168.615 673.792C167.622 673.42 167.12 672.32 167.492 671.327L170.526 663.186C170.898 662.192 171.996 661.689 172.989 662.062L173.175 662.13C174.168 662.503 174.67 663.602 174.298 664.596L171.264 672.737C170.892 673.724 169.794 674.227 168.801 673.861Z" fill="black"/>
<path d="M179.764 677.953L179.578 677.884C178.585 677.512 178.083 676.413 178.455 675.419L181.489 667.278C181.861 666.285 182.959 665.782 183.952 666.154L184.138 666.223C185.131 666.595 185.633 667.694 185.261 668.688L182.227 676.829C181.855 677.822 180.757 678.325 179.764 677.953Z" fill="black"/>
<path d="M190.938 681.486L190.752 681.418C189.759 681.045 189.256 679.946 189.629 678.952L192.663 670.812C193.035 669.818 194.133 669.315 195.126 669.688L195.312 669.756C196.305 670.128 196.807 671.228 196.435 672.221L193.401 680.362C193.029 681.349 191.93 681.852 190.938 681.486Z" fill="black"/>
<path d="M202.565 683.796L202.379 683.728C201.386 683.355 200.883 682.256 201.256 681.262L204.29 673.122C204.662 672.128 205.76 671.625 206.753 671.998L206.939 672.066C207.932 672.438 208.434 673.538 208.062 674.531L205.028 682.672C204.662 683.666 203.557 684.169 202.565 683.796Z" fill="black"/>
<path d="M213.887 686.932L213.701 686.864C212.708 686.491 212.206 685.392 212.578 684.398L215.612 676.257C215.984 675.264 217.082 674.761 218.075 675.133L218.261 675.202C219.254 675.574 219.756 676.674 219.384 677.667L216.35 685.808C215.984 686.795 214.88 687.298 213.887 686.932Z" fill="black"/>
<path d="M225.645 688.9L225.459 688.832C224.466 688.46 223.963 687.36 224.336 686.367L227.37 678.226C227.742 677.232 228.84 676.729 229.833 677.102L230.019 677.17C231.012 677.543 231.514 678.642 231.142 679.636L228.108 687.776C227.736 688.77 226.638 689.273 225.645 688.9Z" fill="black"/>
<path d="M237.414 690.832L237.228 690.763C236.236 690.391 235.733 689.292 236.105 688.298L239.139 680.157C239.511 679.164 240.61 678.661 241.602 679.033L241.788 679.101C242.781 679.474 243.284 680.573 242.911 681.567L239.878 689.708C239.511 690.695 238.407 691.198 237.414 690.832Z" fill="black"/>
<path d="M155.424 681.71L155.468 681.585C155.288 681.561 155.108 681.523 154.934 681.455L141.576 676.462C140.255 675.972 139.616 674.407 140.149 672.979L152.198 640.682C152.732 639.254 154.233 638.496 155.555 638.987L168.913 643.979C169.695 644.271 170.234 644.942 170.439 645.737C171.488 646.196 172.542 646.656 173.616 647.109C173.976 644.395 172.58 641.756 170.092 640.825L156.734 635.832C153.805 634.739 150.461 636.422 149.282 639.589L137.233 671.892C136.054 675.059 137.475 678.524 140.403 679.617L153.762 684.61C155.766 685.361 157.962 684.802 159.532 683.368C158.161 682.827 156.796 682.275 155.424 681.71Z" fill="#AC8CCE"/>
<path d="M152.489 656.082L146.676 653.909C145.633 653.517 144.448 654.12 144.026 655.244C143.604 656.368 144.107 657.597 145.149 657.988L150.963 660.162L152.489 656.082Z" fill="white"/>
<path d="M406.666 391.734C406.666 391.734 377.996 394.144 376.997 401.769C375.992 409.395 378.201 422.839 405.264 425.447H433.296C433.296 425.447 424.907 402.173 425.311 401.372C425.708 400.558 406.666 391.734 406.666 391.734Z" fill="#B96B4A"/>
<path d="M360.666 505.471C356.782 507.533 355.43 512.445 357.639 516.252C370.829 539.023 423.288 629.523 428.015 636.882C433.426 645.308 446.66 665.173 490.562 675.407C534.465 685.64 552.507 715.137 552.507 715.137H687.832C687.832 715.137 655.953 664.571 629.491 533.347C629.491 533.347 609.042 424.397 570.549 428.005C570.549 428.005 547.091 403.328 524.24 408.14C524.24 408.14 480.939 382.258 456.276 382.258L397.049 312.2C391.186 305.264 380.856 303.91 373.646 309.424C371.326 311.2 369.557 313.548 369.073 316.646C367.268 328.085 382.307 356.978 406.362 391.889C430.416 426.801 489.96 537.563 464.1 586.316C464.1 586.316 437.638 566.451 414.781 534.552C395.641 507.837 373.131 498.852 360.666 505.471Z" fill="#B96B4A"/>
<path d="M456.499 382.289C464.36 389.021 471.725 396.323 478.68 403.998C488.08 414.232 499.936 429.402 506.904 441.12C515.689 455.607 521.484 468.312 524.227 484.265L524.047 484.303C520.889 469.318 512.649 453.173 505.464 442.021C500.091 433.302 490.146 419.448 477.607 404.93C471.309 397.658 463.318 389.07 456.375 382.413L456.499 382.289Z" fill="#F19A5E"/>
<path d="M523.855 407.96C530.252 411.233 535.953 415.803 540.991 420.97C546.091 426.111 550.329 431.942 553.977 438.307C557.539 444.622 560.275 451.403 562.105 458.389C563.656 464.934 564.661 469.374 564.829 479.738L564.649 479.751C564.053 472.653 562.763 465.617 560.746 458.793C558.717 452.186 555.863 445.088 552.408 439.195C548.945 432.979 544.733 427.192 539.943 421.932C535.414 416.97 529.495 411.618 523.762 408.122L523.855 407.96Z" fill="#F19A5E"/>
<path d="M570.053 427.508C575.712 431.787 581.432 439.369 584.212 444.486C587.705 450.497 590.472 457.477 592.296 465.121C593.636 470.008 593.971 474.758 594.182 479.726L594.002 479.751C593.171 474.932 592.644 471.343 590.931 465.506C588.3 456.663 586.241 452.111 582.716 445.293C580.613 441.089 575.147 432.762 569.973 427.633L570.053 427.508Z" fill="#F19A5E"/>
<path d="M387.979 533.496C389.176 527.404 382.085 517.736 375.645 510.445C371.624 505.894 365.277 504.192 359.699 506.099C356.578 508.409 355.629 512.787 357.639 516.258C361.182 522.374 367.566 533.39 375.092 546.363C380.726 543.487 386.868 539.134 387.979 533.496Z" fill="#DF9866"/>
<path d="M393.667 339.703C397.086 339.02 412.61 333.853 411.66 331.022L396.348 312.914C393.308 309.319 389.064 307.226 384.677 306.81C384.652 306.81 384.628 306.804 384.603 306.804C384.479 306.791 384.2 306.773 383.802 306.773C381.749 306.773 376.692 307.363 375.582 312.92C374.483 318.416 383.573 331.767 387.575 337.318C388.971 339.237 391.347 340.169 393.667 339.703Z" fill="#DF9866"/>
<path opacity="0.2" d="M552.513 715.143H687.837C687.837 715.143 666.941 681.989 644.934 599.71C635.28 660.292 582.008 656.802 560.87 660.162C536.53 664.03 442.043 644.315 428.803 638.105C434.691 647.097 448.651 665.645 490.568 675.419C534.464 685.647 552.513 715.143 552.513 715.143Z" fill="#F6C19D"/>
<path opacity="0.2" d="M413.516 402.881C440.046 445.548 487.652 543.562 464.1 586.328L479.729 601.772C479.729 601.772 519.227 557.981 456.376 461.407C441.752 438.928 427.215 419.485 413.516 402.881Z" fill="#F6C19D"/>
<path d="M92.1878 379.588C89.3648 377.148 87.0443 375.993 87.0195 375.98L87.7392 374.515C87.8385 374.564 90.2707 375.775 93.2488 378.352L92.1878 379.588Z" fill="#141414"/>
<path d="M94.7749 537.172C91.8464 534.024 89.1785 530.807 86.8518 527.609L88.1672 526.647C90.4566 529.795 93.0811 532.962 95.9661 536.06L94.7749 537.172ZM80.2751 517.04C78.3208 513.258 76.7324 509.377 75.5598 505.502L77.1171 505.031C78.2587 508.812 79.8098 512.6 81.7208 516.289L80.2751 517.04ZM73.1711 493.257C72.9974 491.357 72.9043 489.407 72.9043 487.469C72.9043 485.277 73.016 483.029 73.2455 480.788L74.8649 480.949C74.6477 483.141 74.5361 485.333 74.5361 487.469C74.5361 489.357 74.6229 491.257 74.7904 493.108L73.1711 493.257ZM77.0737 468.958L75.4977 468.542C76.5029 464.729 77.781 460.873 79.4065 456.75L80.9204 457.346C79.3197 461.407 78.0664 465.208 77.0737 468.958ZM85.8902 446.125L84.4259 445.411C86.008 442.157 87.8135 438.661 90.1029 434.42L91.5362 435.196C89.2591 439.419 87.4661 442.89 85.8902 446.125ZM97.449 424.36L96.0096 423.596L96.053 423.509C98.1191 419.709 99.7074 415.977 100.775 412.419L102.338 412.885C101.24 416.554 99.6081 420.392 97.4862 424.292L97.449 424.36ZM102.437 400.515C102.288 396.41 101.321 392.529 99.5523 388.971L101.01 388.244C102.878 392.014 103.908 396.118 104.063 400.459L102.437 400.515Z" fill="#141414"/>
<path d="M108.666 550.113C106.947 548.704 105.272 547.269 103.684 545.853L104.769 544.636C106.339 546.04 108.002 547.455 109.702 548.853L108.666 550.113Z" fill="#141414"/>
<path d="M81.4606 351.986L79.3015 378.259L64.051 361.071L14.7383 320.645L56.7918 333.903C56.7918 333.903 77.496 343.969 78.4453 345.298C79.3945 346.627 81.4606 351.986 81.4606 351.986Z" fill="#9369BF"/>
<path d="M103.803 340.696L14.7383 320.645L81.4606 351.986L103.803 340.696Z" fill="#AC8CCE"/>
<path d="M47.206 371.441L74.6606 357.73L14.7383 320.645L47.206 371.441Z" fill="#AC8CCE"/>
<path d="M372.119 225.053H368.551C360.188 225.053 353.406 218.266 353.406 209.895V195.55H387.264V209.895C387.264 218.272 380.482 225.053 372.119 225.053Z" fill="#085FCC"/>
<path d="M338.254 225.053H334.686C326.322 225.053 319.541 218.266 319.541 209.895V195.55H353.399V209.895C353.405 218.272 346.623 225.053 338.254 225.053Z" fill="#88B2E7"/>
<path d="M304.396 225.053H300.829C292.465 225.053 285.684 218.266 285.684 209.895V195.55H319.541V209.895C319.541 218.272 312.76 225.053 304.396 225.053Z" fill="#085FCC"/>
<path d="M270.539 225.053H266.971C258.608 225.053 251.826 218.266 251.826 209.895V195.55H285.684V209.895C285.684 218.272 278.902 225.053 270.539 225.053Z" fill="#88B2E7"/>
<path d="M236.675 225.053H233.108C224.744 225.053 217.963 218.266 217.963 209.895V195.55H251.82V209.895C251.82 218.272 245.039 225.053 236.675 225.053Z" fill="#085FCC"/>
<path d="M473.623 225.053H470.055C461.692 225.053 454.91 218.266 454.91 209.895V195.55H488.768V209.895C488.768 218.272 481.986 225.053 473.623 225.053Z" fill="#88B2E7"/>
<path d="M439.759 225.053H436.192C427.828 225.053 421.047 218.266 421.047 209.895V195.55H454.904V209.895C454.904 218.272 448.123 225.053 439.759 225.053Z" fill="#085FCC"/>
<path d="M405.976 225.053H402.409C394.045 225.053 387.264 218.266 387.264 209.895V195.55H421.121V209.895C421.121 218.272 414.346 225.053 405.976 225.053Z" fill="#88B2E7"/>
<path d="M202.818 225.053H199.25C190.887 225.053 184.105 218.266 184.105 209.895V195.55H217.963V209.895C217.963 218.272 211.182 225.053 202.818 225.053Z" fill="#88B2E7"/>
<path d="M348.511 152.691H324.438L319.543 195.557H353.407L348.511 152.691Z" fill="#DAE7F7"/>
<path d="M324.436 152.691H300.363L285.684 195.557H319.541L324.436 152.691Z" fill="#669CDF"/>
<path d="M300.364 152.691H276.284L251.82 195.557H285.684L300.364 152.691Z" fill="#DAE7F7"/>
<path d="M276.284 152.691H252.211L217.963 195.557H251.82L276.284 152.691Z" fill="#669CDF"/>
<path d="M252.212 152.691H228.139L184.1 195.557H217.963L252.212 152.691Z" fill="#DAE7F7"/>
<path d="M444.647 152.691H420.574L454.903 195.557H488.767L444.647 152.691Z" fill="#DAE7F7"/>
<path d="M420.692 152.691H396.619L421.046 195.557H454.903L420.692 152.691Z" fill="#669CDF"/>
<path d="M396.62 152.691H372.547L387.264 195.557H421.121L396.62 152.691Z" fill="#DAE7F7"/>
<path d="M372.546 152.691H348.473L353.405 195.557H387.263L372.546 152.691Z" fill="#669CDF"/>
<path d="M401.608 452.037H271.259C263.932 452.037 257.994 446.094 257.994 438.76V435.631C257.994 428.303 263.932 422.361 271.253 422.361H401.595C408.923 422.361 414.86 428.303 414.86 435.637V438.767C414.867 446.094 408.929 452.037 401.608 452.037Z" fill="#4385D8"/>
<path d="M304.757 439.519C304.757 439.922 304.707 440.289 304.601 440.63C304.502 440.966 304.36 441.276 304.173 441.543C303.987 441.816 303.77 442.052 303.509 442.251C303.249 442.456 302.957 442.624 302.635 442.766C302.312 442.903 301.958 443.009 301.592 443.077C301.22 443.145 300.798 443.182 300.314 443.182H296.982C296.834 443.182 296.691 443.133 296.554 443.027C296.418 442.928 296.35 442.748 296.35 442.493V431.111C296.35 430.856 296.418 430.676 296.554 430.57C296.691 430.471 296.834 430.415 296.982 430.415H299.88C300.643 430.415 301.263 430.49 301.754 430.633C302.238 430.775 302.647 430.987 302.97 431.266C303.292 431.539 303.541 431.881 303.702 432.284C303.863 432.688 303.95 433.141 303.95 433.644C303.95 433.949 303.913 434.234 303.845 434.514C303.77 434.787 303.665 435.048 303.522 435.277C303.379 435.513 303.206 435.718 302.988 435.905C302.777 436.091 302.529 436.24 302.256 436.358C302.604 436.426 302.932 436.544 303.23 436.718C303.534 436.892 303.795 437.116 304.024 437.383C304.248 437.656 304.428 437.966 304.564 438.326C304.688 438.687 304.757 439.084 304.757 439.519ZM302.2 433.806C302.2 433.495 302.157 433.216 302.07 432.967C301.983 432.719 301.853 432.508 301.667 432.328C301.481 432.154 301.245 432.024 300.947 431.93C300.655 431.837 300.265 431.794 299.774 431.794H298.025V435.929H299.954C300.395 435.929 300.749 435.874 301.015 435.756C301.282 435.644 301.505 435.489 301.685 435.29C301.865 435.097 301.989 434.868 302.076 434.607C302.163 434.352 302.2 434.085 302.2 433.806ZM302.97 439.618C302.97 439.239 302.908 438.904 302.79 438.612C302.666 438.32 302.492 438.078 302.256 437.879C302.02 437.681 301.729 437.532 301.381 437.432C301.028 437.327 300.587 437.277 300.06 437.277H298.031V441.773H300.488C300.873 441.773 301.214 441.723 301.499 441.636C301.791 441.543 302.039 441.406 302.262 441.226C302.48 441.046 302.653 440.823 302.777 440.55C302.908 440.283 302.97 439.972 302.97 439.618Z" fill="white"/>
<path d="M316.917 438.462C316.917 439.239 316.806 439.928 316.576 440.536C316.346 441.145 316.024 441.66 315.608 442.083C315.186 442.505 314.678 442.822 314.069 443.039C313.468 443.256 312.779 443.362 312.01 443.362C311.309 443.362 310.663 443.262 310.086 443.058C309.509 442.853 309.013 442.555 308.597 442.157C308.181 441.76 307.865 441.263 307.642 440.661C307.418 440.064 307.307 439.369 307.307 438.587V430.663C307.307 430.613 307.319 430.564 307.344 430.526C307.369 430.489 307.418 430.452 307.48 430.433C307.549 430.408 307.629 430.39 307.735 430.377C307.84 430.359 307.977 430.352 308.15 430.352C308.306 430.352 308.442 430.359 308.554 430.377C308.665 430.396 308.752 430.415 308.814 430.433C308.876 430.458 308.92 430.489 308.945 430.526C308.969 430.564 308.982 430.613 308.982 430.663V438.375C308.982 438.965 309.056 439.487 309.199 439.922C309.342 440.363 309.553 440.729 309.826 441.021C310.099 441.313 310.427 441.536 310.812 441.685C311.197 441.834 311.625 441.909 312.109 441.909C312.599 441.909 313.04 441.834 313.424 441.691C313.809 441.549 314.132 441.331 314.398 441.039C314.665 440.748 314.87 440.394 315.006 439.965C315.149 439.537 315.217 439.04 315.217 438.469V430.663C315.217 430.613 315.23 430.564 315.255 430.526C315.279 430.489 315.329 430.452 315.391 430.433C315.459 430.408 315.546 430.39 315.652 430.377C315.757 430.359 315.894 430.352 316.061 430.352C316.216 430.352 316.353 430.359 316.458 430.377C316.57 430.396 316.651 430.415 316.713 430.433C316.775 430.458 316.818 430.489 316.849 430.526C316.88 430.564 316.892 430.613 316.892 430.663V438.462H316.917Z" fill="white"/>
<path d="M344.335 442.474C344.335 442.604 344.311 442.716 344.267 442.809C344.224 442.902 344.168 442.977 344.093 443.033C344.025 443.095 343.944 443.132 343.851 443.163C343.765 443.188 343.678 443.2 343.585 443.2H343.026C342.853 443.2 342.697 443.182 342.561 443.144C342.431 443.107 342.3 443.045 342.182 442.946C342.065 442.853 341.947 442.722 341.823 442.555C341.705 442.393 341.581 442.182 341.444 441.921L337.554 434.662C337.349 434.289 337.144 433.892 336.94 433.482C336.735 433.072 336.543 432.675 336.363 432.284H336.344C336.356 432.756 336.369 433.24 336.375 433.73C336.381 434.221 336.388 434.712 336.388 435.202V442.909C336.388 442.952 336.375 443.002 336.344 443.045C336.319 443.089 336.27 443.12 336.201 443.144C336.133 443.169 336.046 443.188 335.941 443.207C335.835 443.225 335.699 443.231 335.531 443.231C335.364 443.231 335.227 443.225 335.122 443.207C335.016 443.188 334.929 443.169 334.867 443.144C334.805 443.12 334.762 443.089 334.731 443.045C334.706 443.002 334.688 442.958 334.688 442.909V431.141C334.688 430.88 334.762 430.688 334.911 430.582C335.06 430.47 335.221 430.415 335.401 430.415H336.232C336.431 430.415 336.592 430.433 336.723 430.464C336.853 430.495 336.977 430.551 337.076 430.626C337.182 430.7 337.281 430.806 337.38 430.942C337.48 431.079 337.579 431.247 337.69 431.452L340.681 437.053C340.867 437.394 341.041 437.73 341.215 438.052C341.388 438.375 341.55 438.698 341.711 439.015C341.872 439.332 342.027 439.642 342.182 439.946C342.338 440.251 342.493 440.561 342.642 440.872H342.654C342.642 440.35 342.635 439.81 342.629 439.251C342.623 438.692 342.623 438.146 342.623 437.63V430.706C342.623 430.663 342.635 430.619 342.666 430.576C342.691 430.539 342.741 430.501 342.809 430.47C342.877 430.439 342.964 430.421 343.07 430.408C343.175 430.396 343.318 430.39 343.492 430.39C343.647 430.39 343.777 430.396 343.889 430.408C344 430.421 344.087 430.446 344.149 430.47C344.211 430.501 344.255 430.533 344.286 430.576C344.317 430.613 344.329 430.657 344.329 430.706V442.474H344.335Z" fill="white"/>
<path d="M358.413 436.649C358.413 437.68 358.289 438.611 358.047 439.443C357.805 440.269 357.439 440.977 356.961 441.561C356.477 442.145 355.869 442.592 355.143 442.902C354.411 443.213 353.561 443.368 352.593 443.368C351.631 443.368 350.806 443.225 350.105 442.94C349.404 442.654 348.827 442.238 348.374 441.691C347.915 441.145 347.574 440.468 347.357 439.661C347.133 438.854 347.021 437.922 347.021 436.866C347.021 435.86 347.146 434.948 347.388 434.122C347.63 433.302 347.996 432.6 348.48 432.029C348.963 431.452 349.571 431.011 350.304 430.7C351.036 430.39 351.886 430.228 352.854 430.228C353.79 430.228 354.609 430.371 355.311 430.65C356.005 430.936 356.589 431.346 357.048 431.886C357.513 432.426 357.854 433.097 358.084 433.898C358.295 434.699 358.413 435.618 358.413 436.649ZM356.613 436.767C356.613 436.041 356.551 435.37 356.421 434.749C356.291 434.128 356.08 433.588 355.782 433.128C355.484 432.675 355.087 432.315 354.585 432.06C354.088 431.806 353.468 431.675 352.736 431.675C351.997 431.675 351.383 431.812 350.887 432.091C350.39 432.364 349.981 432.737 349.671 433.196C349.361 433.656 349.137 434.196 349.001 434.811C348.864 435.426 348.802 436.072 348.802 436.748C348.802 437.5 348.864 438.189 348.988 438.816C349.112 439.45 349.323 439.99 349.621 440.449C349.919 440.909 350.31 441.263 350.806 441.518C351.303 441.772 351.923 441.896 352.674 441.896C353.412 441.896 354.039 441.76 354.541 441.48C355.044 441.201 355.453 440.828 355.763 440.363C356.074 439.891 356.291 439.35 356.421 438.729C356.551 438.108 356.613 437.456 356.613 436.767Z" fill="white"/>
<path d="M373.087 442.803C373.062 442.896 373.019 442.971 372.969 443.027C372.919 443.082 372.845 443.126 372.752 443.157C372.659 443.188 372.547 443.207 372.411 443.219C372.274 443.231 372.113 443.238 371.914 443.238C371.709 443.238 371.536 443.231 371.399 443.219C371.257 443.207 371.139 443.182 371.052 443.157C370.959 443.126 370.89 443.082 370.847 443.027C370.804 442.971 370.766 442.896 370.742 442.803L368.074 433.165H368.055L365.592 442.803C365.573 442.896 365.542 442.971 365.493 443.027C365.449 443.082 365.381 443.126 365.294 443.157C365.207 443.188 365.096 443.207 364.965 443.219C364.829 443.231 364.655 443.238 364.45 443.238C364.233 443.238 364.053 443.231 363.911 443.219C363.768 443.207 363.65 443.182 363.557 443.157C363.464 443.126 363.396 443.082 363.346 443.027C363.296 442.971 363.259 442.896 363.24 442.803L359.871 431.017C359.834 430.868 359.809 430.75 359.809 430.663C359.803 430.576 359.834 430.514 359.89 430.464C359.946 430.421 360.039 430.39 360.163 430.377C360.287 430.365 360.455 430.359 360.666 430.359C360.87 430.359 361.032 430.365 361.15 430.371C361.267 430.383 361.361 430.396 361.423 430.427C361.485 430.452 361.528 430.489 361.553 430.539C361.578 430.582 361.596 430.644 361.609 430.719L364.475 441.412H364.488L367.211 430.737C367.23 430.663 367.255 430.607 367.286 430.557C367.317 430.508 367.36 430.47 367.428 430.446C367.497 430.421 367.59 430.402 367.708 430.383C367.832 430.371 367.987 430.365 368.185 430.365C368.371 430.365 368.514 430.371 368.626 430.383C368.738 430.396 368.818 430.415 368.886 430.446C368.955 430.47 368.998 430.508 369.029 430.557C369.06 430.607 369.085 430.669 369.104 430.737L372.032 441.412H372.051L374.861 430.731C374.88 430.663 374.899 430.607 374.917 430.557C374.936 430.508 374.979 430.47 375.041 430.446C375.103 430.421 375.19 430.402 375.308 430.383C375.42 430.371 375.575 430.365 375.767 430.365C375.966 430.365 376.121 430.371 376.239 430.39C376.35 430.408 376.437 430.439 376.487 430.483C376.543 430.526 376.568 430.595 376.561 430.682C376.555 430.768 376.543 430.886 376.505 431.036L373.087 442.803Z" fill="white"/>
<path d="M318.475 430.909L323.205 438.605V444H324.79V438.605L329.52 430.909H327.705L324.074 437.02H323.921L320.29 430.909H318.475Z" fill="white"/>
</svg>
