<svg width="1920" height="922" viewBox="0 0 1920 922" fill="none" xmlns="http://www.w3.org/2000/svg">
<path opacity="0.3" d="M1965.09 527.646H1906.28V375.706H1873.44V443.357H1826.62V421.578V287.466H1749.94V430.012L1727 430.926V287.2H1700.24V225.953H1684.18V184.819H1621.49V225.953H1605.44V287.2H1578.67V365.059L1566.33 365.974L1562.62 135.306H1480.05V258.022L1450.99 258.936V67.1435H1441.06V26.6683H1353.89V67.1435H1343.96V292.094H1325.6V245.015H1310.31V205.601H1288.14V90.578H1256.03V205.601H1233.85V245.015H1218.56V322.928L1199.45 322.8V223.254L1016.56 230.535L973.134 360.861H954.019V314.239H906.415V0.114746H862.822V33.0255H842.937V288.481H774.104V335.103H715.738V225.962L623.519 223.382V381.35L615.108 381.478H604.397V245.134H589.099V205.729H566.921V90.6969H534.802V205.729H512.617V245.134H497.326V325.727H478.966V67.2716H469.024V26.7964H381.837V67.2716H371.895V259.064L342.831 258.15V135.435H296.261L295.521 366.102L282.401 365.187V132.288H217.4V71.0401H201.34V29.9063H138.624V71.0401H122.557V287.329H95.7932V431.054L72.8464 430.14V287.594L-3.85137 381.899V421.706V443.485H-55V921.385L966.93 921.321L1965.09 921.257V527.646Z" fill="#C5DDF9"/>
</svg>
